<?xml version="1.0" encoding="UTF-8" standalone="no"?>
<svg width="34px" height="40px" viewBox="0 0 34 40" version="1.1" xmlns="http://www.w3.org/2000/svg" xmlns:xlink="http://www.w3.org/1999/xlink" xmlns:sketch="http://www.bohemiancoding.com/sketch/ns">
    <!-- Generator: Sketch 3.3.3 (12072) - http://www.bohemiancoding.com/sketch -->
    <title>Fill 77</title>
    <desc>Created with Sketch.</desc>
    <defs></defs>
    <g id="Welcome" stroke="none" stroke-width="1" fill="none" fill-rule="evenodd" sketch:type="MSPage">
        <g id="Desktop-HD" sketch:type="MSArtboardGroup" transform="translate(-27.000000, -223.000000)" fill="#FFFFFF">
            <g id="Fill-77-+-Add-Widget" sketch:type="MSLayerGroup" transform="translate(15.000000, 223.000000)">
                <path d="M41.189,12.788 C40.775,12.788 40.439,13.124 40.439,13.538 L40.439,21.575 C40.439,21.989 40.775,22.325 41.189,22.325 C41.603,22.325 41.939,21.989 41.939,21.575 L41.939,13.538 C41.939,13.124 41.603,12.788 41.189,12.788 L41.189,12.788 Z M33.591,12.43 L41.189,12.43 C41.196,12.429 41.202,12.429 41.209,12.43 C41.623,12.43 41.959,12.094 41.959,11.68 C41.959,11.422 41.829,11.195 41.631,11.06 L30.953,0.224 C30.74,0.008 30.417,-0.056 30.134,0.056 C29.853,0.172 29.669,0.446 29.669,0.75 L29.669,8.506 C29.669,10.67 31.429,12.43 33.591,12.43 L33.591,12.43 Z M31.169,2.581 L39.397,10.93 L33.591,10.93 C32.256,10.93 31.169,9.843 31.169,8.506 L31.169,2.581 L31.169,2.581 Z M37.153,23.813 C32.725,23.813 29.123,27.415 29.123,31.842 C29.123,36.27 32.725,39.872 37.153,39.872 C41.58,39.872 45.182,36.27 45.182,31.842 C45.182,27.415 41.58,23.813 37.153,23.813 L37.153,23.813 Z M37.153,38.372 C33.553,38.372 30.623,35.443 30.623,31.842 C30.623,28.242 33.553,25.313 37.153,25.313 C40.753,25.313 43.682,28.242 43.682,31.842 C43.682,35.443 40.753,38.372 37.153,38.372 L37.153,38.372 Z M29.211,38.225 L16.163,38.225 C14.695,38.225 13.5,37.028 13.5,35.557 L13.503,4.088 C13.548,2.637 14.716,1.5 16.163,1.5 L28.567,1.5 C28.981,1.5 29.317,1.165 29.317,0.75 C29.317,0.336 28.981,0 28.567,0 L16.163,0 C13.9,0 12.074,1.776 12.003,4.065 L12,35.557 C12,37.855 13.868,39.725 16.163,39.725 L29.211,39.725 C29.625,39.725 29.961,39.389 29.961,38.975 C29.961,38.561 29.625,38.225 29.211,38.225 L29.211,38.225 Z M40.492,31.092 L37.902,31.092 L37.902,28.5 C37.902,28.086 37.566,27.75 37.152,27.75 C36.738,27.75 36.402,28.086 36.402,28.5 L36.402,31.092 L33.811,31.092 C33.397,31.092 33.061,31.428 33.061,31.842 C33.061,32.256 33.397,32.592 33.811,32.592 L36.402,32.592 L36.402,35.184 C36.402,35.598 36.738,35.934 37.152,35.934 C37.566,35.934 37.902,35.598 37.902,35.184 L37.902,32.592 L40.492,32.592 C40.906,32.592 41.242,32.256 41.242,31.842 C41.242,31.428 40.906,31.092 40.492,31.092 L40.492,31.092 Z" id="Fill-77" sketch:type="MSShapeGroup"></path>
            </g>
        </g>
    </g>
</svg>