<?xml version="1.0" encoding="UTF-8" standalone="no"?>
<svg width="37px" height="49px" viewBox="0 0 37 49" version="1.1" xmlns="http://www.w3.org/2000/svg" xmlns:xlink="http://www.w3.org/1999/xlink" xmlns:sketch="http://www.bohemiancoding.com/sketch/ns">
    <!-- Generator: Sketch 3.3.3 (12072) - http://www.bohemiancoding.com/sketch -->
    <title>ios-copy-outline - Ionicons</title>
    <desc>Created with Sketch.</desc>
    <defs></defs>
    <g id="Page-1" stroke="none" stroke-width="1" fill="none" fill-rule="evenodd" sketch:type="MSPage">
        <path d="M24.3422921,4.60885755 L24.3422921,12.6088575 L32.3623422,12.6088575 L32.3623422,14.6088575 L22.3372795,14.6088575 L22.3372795,4.60885755 L24.3422921,4.60885755 Z M26.973871,0.608857546 L36.3723672,9.98385755 L36.3723672,42.6088575 L30.3573297,42.6088575 L30.3573297,48.6088575 L0.282141685,48.6088575 L0.282141685,6.60885755 L6.29717928,6.60885755 L6.29717928,0.608857546 L26.973871,0.608857546 Z M28.3523171,46.6088575 L28.3523171,42.6088575 L6.29717928,42.6088575 L6.29717928,8.60885755 L2.28715422,8.60885755 L2.28715422,46.6088575 L28.3523171,46.6088575 Z M34.3673547,40.6088575 L34.3673547,10.8588575 L26.2219913,2.60885755 L8.30219181,2.60885755 L8.30219181,40.6088575 L34.3673547,40.6088575 Z" id="ios-copy-outline---Ionicons" fill="#FFFFFF" sketch:type="MSShapeGroup" transform="translate(18.327254, 24.608858) scale(-1, 1) translate(-18.327254, -24.608858) "></path>
    </g>
</svg>