<?xml version="1.0" encoding="UTF-8" standalone="no"?>
<svg width="48px" height="48px" viewBox="0 0 48 48" version="1.1" xmlns="http://www.w3.org/2000/svg" xmlns:xlink="http://www.w3.org/1999/xlink" xmlns:sketch="http://www.bohemiancoding.com/sketch/ns">
    <!-- Generator: Sketch 3.3.3 (12072) - http://www.bohemiancoding.com/sketch -->
    <title>ios-paper-outline - Ionicons</title>
    <desc>Created with Sketch.</desc>
    <defs></defs>
    <g id="Page-1" stroke="none" stroke-width="1" fill="none" fill-rule="evenodd" sketch:type="MSPage">
        <path d="M6,0 L48,0 L48,44.125 C48,45.2083388 47.6250038,46.1249962 46.875,46.875 C46.1249962,47.6250038 45.2083388,48 44.125,48 L3.875,48 C2.79166125,48 1.87500375,47.6250038 1.125,46.875 C0.37499625,46.1249962 0,45.2083388 0,44.125 L0,6 L4,6 L4,8 L2,8 L2,44.125 C2,44.6250025 2.18749812,45.0624981 2.5625,45.4375 C2.93750188,45.8125019 3.3749975,46 3.875,46 L44.125,46 C44.6250025,46 45.0624981,45.8125019 45.4375,45.4375 C45.8125019,45.0624981 46,44.6250025 46,44.125 L46,2 L8,2 L8,42 L6,42 L6,2 L6,0 Z M12,8 L12,6 L28,6 L28,8 L12,8 Z M12,18 L12,16 L42,16 L42,18 L12,18 Z M12,28 L12,26 L36,26 L36,28 L12,28 Z M12,38 L12,36 L42,36 L42,38 L12,38 Z" id="ios-paper-outline---Ionicons" fill="#FFFFFF" sketch:type="MSShapeGroup"></path>
    </g>
</svg>