<?xml version="1.0" encoding="UTF-8" standalone="no"?>
<svg width="49px" height="48px" viewBox="0 0 49 48" version="1.1" xmlns="http://www.w3.org/2000/svg" xmlns:xlink="http://www.w3.org/1999/xlink" xmlns:sketch="http://www.bohemiancoding.com/sketch/ns">
    <!-- Generator: Sketch 3.3.3 (12072) - http://www.bohemiancoding.com/sketch -->
    <title>Shape</title>
    <desc>Created with Sketch.</desc>
    <defs></defs>
    <g id="Page-1" stroke="none" stroke-width="1" fill="none" fill-rule="evenodd" sketch:type="MSPage">
        <g id="avatar99" sketch:type="MSLayerGroup" fill="#FFFFFF">
            <path d="M28.186125,34.486875 C26.77125,33.77925 24.421125,32.604375 23.849625,32.0655 C26.2395,29.1315 27.623625,25.8165 27.623625,22.91625 C27.623625,20.9475 27.623625,18.496875 26.521875,16.312125 C25.5285,14.34525 23.30925,12 18.37425,12 C13.44,12 11.221125,14.34525 10.22775,16.31175 C9.1245,18.4965 9.1245,20.947125 9.1245,22.915875 C9.1245,25.817625 10.50825,29.131125 12.89775,32.065125 C12.327375,32.6055 9.9765,33.780375 8.56275,34.4865 C5.7615,35.88825 3.9825,36.815625 2.919375,37.877625 C0.565125,40.233 0.38775,44.185125 0.375375,44.95275 C0.36225,45.757125 0.6735,46.531875 1.23675,47.103 C1.8,47.676375 2.570625,48 3.375,48 L33.373875,48 C34.178625,48 34.945875,47.676375 35.511375,47.103375 C36.075375,46.53225 36.387375,45.757125 36.37275,44.953125 C36.361125,44.1855 36.18375,40.233375 33.8295,37.878 C32.766,36.816 30.987375,35.888625 28.186125,34.486875 L28.186125,34.486875 Z M3.37425,45.003 C3.394875,43.743375 3.769125,41.272125 5.04075,39.999 C5.776875,39.263625 7.521,38.362875 9.903375,37.170375 C12.723,35.762625 14.199,34.96575 14.959125,34.245 L16.98225,32.33175 L15.225,30.172875 C13.25475,27.753 12.124125,25.107375 12.124125,22.915875 C12.124125,21.1785 12.124125,19.2105 12.904875,17.664375 C13.8105,15.8715 15.6,15 18.37425,15 C21.148875,15 22.93875,15.8715 23.844,17.664 C24.625125,19.210875 24.625125,21.178875 24.625125,22.91625 C24.625125,25.10775 23.495625,27.751875 21.5235,30.17325 L19.76475,32.334 L21.790125,34.24725 C22.54875,34.965 24.024375,35.760375 26.84475,37.169625 C29.227125,38.363625 30.973125,39.264375 31.708875,39.99975 C32.983125,41.2755 33.3555,43.74375 33.37425,45.00075 L3.37425,45.003 L3.37425,45.003 Z M45.829875,25.878 C44.7675,24.816 42.98925,23.888625 40.1865,22.486875 C38.772375,21.77925 36.421125,20.605125 35.851125,20.06625 C38.239125,17.1315 39.625125,13.81725 39.625125,10.91625 C39.625125,8.9475 39.625125,6.496875 38.521875,4.312125 C37.528875,2.34525 35.30925,0 30.375,0 C25.44075,0 23.221125,2.34525 22.22775,4.31175 C21.20025,6.34725 21.1305,8.607375 21.126,10.5 L24.127875,10.5 C24.133875,8.86875 24.186375,7.0905 24.905625,5.664375 C25.80975,3.8715 27.600375,3 30.375,3 C33.149625,3 34.93875,3.8715 35.844,5.664 C36.62475,7.210875 36.62475,9.179625 36.62475,10.91625 C36.62475,13.107 35.49375,15.751875 33.524625,18.1725 L31.7655,20.334 L33.79125,22.24725 C34.549125,22.965 36.024,23.760375 38.842875,25.169625 C41.227875,26.363625 42.973125,27.264375 43.707,27.99975 C44.983125,29.2755 45.3555,31.74375 45.37425,33.00075 L31.875375,33.00075 L36.37425,36.00075 L45.37425,36.00075 C46.178625,36.00075 46.947375,35.677125 47.512875,35.104125 C48.07575,34.533 48.38775,33.757875 48.374625,32.953875 C48.363,32.1855 48.184125,28.233375 45.829875,25.878 L45.829875,25.878 Z" id="Shape" sketch:type="MSShapeGroup"></path>
        </g>
    </g>
</svg>