<?xml version="1.0" encoding="UTF-8" standalone="no"?>
<svg width="48px" height="48px" viewBox="0 0 48 48" version="1.1" xmlns="http://www.w3.org/2000/svg" xmlns:xlink="http://www.w3.org/1999/xlink" xmlns:sketch="http://www.bohemiancoding.com/sketch/ns">
    <!-- Generator: Sketch 3.3.3 (12072) - http://www.bohemiancoding.com/sketch -->
    <title>Shape</title>
    <desc>Created with Sketch.</desc>
    <defs></defs>
    <g id="Page-1" stroke="none" stroke-width="1" fill="none" fill-rule="evenodd" sketch:type="MSPage">
        <g id="profile8" sketch:type="MSLayerGroup" fill="#FFFFFF">
            <path d="M3.294375,44.701125 C3.108375,44.512125 3.00375,44.2515 3.007125,43.986375 C3.015,43.482375 3.15375,38.9955 5.52075,36.627 C6.61275,35.53425 8.90025,34.35075 12.264375,32.666625 C15.854625,30.87225 17.8455,29.802 18.763125,28.93425 L20.78625,27.021 L19.02825,24.861 C16.259625,21.459 14.671125,17.70225 14.671125,14.55525 C14.671125,12.127875 14.671125,9.376875 15.81975,7.101375 C17.1945,4.38 19.947,3 24.003,3 C28.05825,3 30.81225,4.38 32.1855,7.101 C33.334125,9.37725 33.334125,12.12825 33.334125,14.555625 C33.334125,17.70225 31.746375,21.458625 28.97625,24.861375 L27.21825,27.022125 L29.2425,28.936125 C29.701125,29.368875 30.429,29.85375 31.49175,30.4545 L31.49175,27 L31.61325,27 C31.494,26.913 31.378125,26.827125 31.30275,26.7555 C34.486125,22.84275 36.332625,18.424125 36.332625,14.555625 C36.332625,11.930625 36.332625,8.66325 34.863375,5.749875 C33.53925,3.12675 30.580875,0 24.003,0 C17.425125,0 14.466375,3.12675 13.142625,5.7495 C11.671875,8.66325 11.671875,11.9295 11.671875,14.55525 C11.671875,18.4245 13.518375,22.84275 16.702125,26.755125 C15.942,27.474375 12.807,29.041875 10.923375,29.98275 C7.18725,31.85175 4.816875,33.087375 3.39975,34.505625 C0.261375,37.64475 0.024,42.913875 0.008625,43.939125 C-0.00825,45.008625 0.405,46.0425 1.15725,46.807125 C1.90875,47.56875 2.9355,47.999625 4.0065,47.999625 L31.492125,47.999625 L31.492125,44.999625 L4.0065,44.999625 C3.740625,45 3.480375,44.891625 3.294375,44.701125 L3.294375,44.701125 Z M43.49175,33 L41.99175,33 L41.99175,31.5 C41.99175,29.018625 39.973125,27 37.49175,27 C35.010375,27 32.992125,29.018625 32.992125,31.5 L32.992125,33 L31.492125,33 C29.01075,33 26.992125,35.018625 26.992125,37.5 C26.992125,39.981375 29.01075,42 31.492125,42 L32.992125,42 L32.992125,43.5 C32.992125,45.981375 35.010375,48 37.49175,48 C39.973125,48 41.99175,45.981375 41.99175,43.5 L41.99175,42 L43.49175,42 C45.973125,42 47.99175,39.981375 47.99175,37.5 C47.99175,35.018625 45.973125,33 43.49175,33 L43.49175,33 Z M43.49175,39 L38.99175,39 L38.99175,43.5 C38.99175,44.329125 38.320875,45 37.49175,45 C36.662625,45 35.99175,44.329125 35.99175,43.5 L35.99175,39 L31.492125,39 C30.663,39 29.992125,38.329125 29.992125,37.5 C29.992125,36.670875 30.663,36 31.492125,36 L35.99175,36 L35.99175,31.5 C35.99175,30.670875 36.662625,30 37.49175,30 C38.320875,30 38.99175,30.670875 38.99175,31.5 L38.99175,36 L43.49175,36 C44.320875,36 44.99175,36.670875 44.99175,37.5 C44.99175,38.329125 44.3205,39 43.49175,39 L43.49175,39 Z" id="Shape" sketch:type="MSShapeGroup"></path>
        </g>
    </g>
</svg>