<?xml version="1.0" encoding="UTF-8" standalone="no"?>
<svg width="47px" height="55px" viewBox="0 0 47 55" version="1.1" xmlns="http://www.w3.org/2000/svg" xmlns:xlink="http://www.w3.org/1999/xlink" xmlns:sketch="http://www.bohemiancoding.com/sketch/ns">
    <!-- Generator: Sketch 3.4.2 (15857) - http://www.bohemiancoding.com/sketch -->
    <title>system1</title>
    <desc>Created with Sketch.</desc>
    <defs></defs>
    <g id="Welcome" stroke="none" stroke-width="1" fill="none" fill-rule="evenodd" sketch:type="MSPage">
        <g id="iconsets" sketch:type="MSArtboardGroup" transform="translate(-1220.000000, -905.000000)" fill="#FFFFFF">
            <g id="system1" sketch:type="MSLayerGroup" transform="translate(1220.000000, 905.000000)">
                <g id="Capa_1" sketch:type="MSShapeGroup">
                    <g id="Group">
                        <g id="Shape">
                            <path d="M3.42836957,17.9038043 L3.28771739,17.9038043 C1.48467391,17.9038043 0.0145652174,19.378587 0.0145652174,21.1769565 L0.0145652174,35.4277174 C0.0145652174,37.2331522 1.48467391,38.7031522 3.28771739,38.7031522 L3.43076087,38.7031522 C5.23380435,38.7031522 6.70391304,37.2283696 6.70391304,35.4277174 L6.70391304,21.1768478 C6.70152174,19.378587 5.22913043,17.9038043 3.42836957,17.9038043 L3.42836957,17.9038043 Z"></path>
                            <path d="M8.2701087,40.9282609 C8.2701087,42.583587 9.62293478,43.9317391 11.2782609,43.9317391 L14.4928261,43.9317391 L14.4928261,51.6292391 C14.4928261,53.4369565 15.9676087,54.9070652 17.7659783,54.9070652 L17.9066304,54.9070652 C19.7120652,54.9070652 21.1844565,53.4346739 21.1844565,51.6292391 L21.1844565,43.9317391 L25.6768478,43.9317391 L25.6768478,51.6292391 C25.6768478,53.4369565 27.1563043,54.9070652 28.9546739,54.9070652 L29.0930435,54.9070652 C30.8983696,54.9070652 32.3684783,53.4346739 32.3684783,51.6292391 L32.3684783,43.9317391 L35.5853261,43.9317391 C37.2382609,43.9317391 38.5911957,42.583587 38.5911957,40.9282609 L38.5911957,18.4266304 L8.2701087,18.4266304 L8.2701087,40.9282609 L8.2701087,40.9282609 Z"></path>
                            <path d="M30.9827174,4.78076087 L33.536087,0.839456522 C33.7002174,0.590869565 33.6275,0.250978261 33.3766304,0.0891304348 C33.1281522,-0.075 32.7881522,-0.00695652174 32.6263043,0.248586957 L29.9792391,4.32597826 C27.9933696,3.5123913 25.7753261,3.05521739 23.4329348,3.05521739 C21.0882609,3.05521739 18.8748913,3.5123913 16.8843478,4.32597826 L14.2419565,0.248586957 C14.0802174,-0.00695652174 13.7378261,-0.075 13.4869565,0.0891304348 C13.236087,0.250869565 13.1633696,0.590869565 13.3275,0.839456522 L15.8831522,4.78076087 C11.2758696,7.03869565 8.16923913,11.2942391 8.16923913,16.1757609 C8.16923913,16.4758696 8.18804348,16.7713043 8.21380435,17.0643478 L38.6543478,17.0643478 C38.6801087,16.7713043 38.6965217,16.4758696 38.6965217,16.1757609 C38.6966304,11.2942391 35.5876087,7.03869565 30.9827174,4.78076087 L30.9827174,4.78076087 Z M16.3755435,11.8381522 C15.5666304,11.8381522 14.9101087,11.1863043 14.9101087,10.3751087 C14.9101087,9.56391304 15.5666304,8.91434783 16.3755435,8.91434783 C17.1891304,8.91434783 17.8409783,9.56380435 17.8409783,10.3751087 C17.8409783,11.186413 17.1844565,11.8381522 16.3755435,11.8381522 L16.3755435,11.8381522 Z M30.4880435,11.8381522 C29.6791304,11.8381522 29.0226087,11.1863043 29.0226087,10.3751087 C29.0226087,9.56391304 29.6791304,8.91434783 30.4880435,8.91434783 C31.2992391,8.91434783 31.951087,9.56380435 31.951087,10.3751087 C31.951087,11.1863043 31.2992391,11.8381522 30.4880435,11.8381522 L30.4880435,11.8381522 Z"></path>
                            <path d="M43.5734783,17.9038043 L43.4375,17.9038043 C41.6344565,17.9038043 40.1596739,19.378587 40.1596739,21.1769565 L40.1596739,35.4277174 C40.1596739,37.2331522 41.6368478,38.7031522 43.4375,38.7031522 L43.5758696,38.7031522 C45.3811957,38.7031522 46.8490217,37.2283696 46.8490217,35.4277174 L46.8490217,21.1768478 C46.8490217,19.378587 45.3765217,17.9038043 43.5734783,17.9038043 L43.5734783,17.9038043 Z"></path>
                        </g>
                    </g>
                </g>
            </g>
        </g>
    </g>
</svg>