<?xml version="1.0" encoding="UTF-8" standalone="no"?>
<svg width="45px" height="55px" viewBox="0 0 45 55" version="1.1" xmlns="http://www.w3.org/2000/svg" xmlns:xlink="http://www.w3.org/1999/xlink" xmlns:sketch="http://www.bohemiancoding.com/sketch/ns">
    <!-- Generator: Sketch 3.4.2 (15857) - http://www.bohemiancoding.com/sketch -->
    <title>logotype111</title>
    <desc>Created with Sketch.</desc>
    <defs></defs>
    <g id="Welcome" stroke="none" stroke-width="1" fill="none" fill-rule="evenodd" sketch:type="MSPage">
        <g id="iconsets" sketch:type="MSArtboardGroup" transform="translate(-1166.000000, -991.000000)" fill="#FFFFFF">
            <g id="logotype111" sketch:type="MSLayerGroup" transform="translate(1166.000000, 991.000000)">
                <g id="Capa_1" sketch:type="MSShapeGroup">
                    <g id="Group">
                        <g id="Shape">
                            <path d="M37.5118588,30.8085288 C35.9999602,23.1996123 43.2221272,18.7370676 43.2221272,18.7370676 C43.2221272,18.7370676 40.4082704,14.6660835 35.6792545,13.6187873 C30.9525348,12.5691948 28.5868787,13.8805567 26.2258151,14.8641054 C23.8624553,15.8500596 22.6831809,15.8500596 22.6831809,15.8500596 C19.2726342,15.8500596 16.7794831,12.2389761 10.281501,13.8829622 C5.80485089,15.0127038 1.09223658,20.1805169 0.240775348,26.3483897 C-0.610685885,32.5185586 1.22672962,40.3916501 4.76936382,46.4934791 C8.31199801,52.6000099 11.9207853,54.8949205 14.482167,54.9609642 C17.0436581,55.0246024 19.6004473,53.1259543 22.6831809,52.6636481 C25.7683201,52.2060437 27.6669682,53.7816899 30.6930616,54.6331511 C33.7073459,55.4823161 34.7640457,54.694493 38.2359344,51.7414414 C41.7172266,48.7883897 44.8684095,40.3186083 44.8684095,40.3186083 C44.8684095,40.3186083 39.0237575,38.4221471 37.5118588,30.8085288 L37.5118588,30.8085288 Z"></path>
                            <path d="M30.8180417,8.6962326 C34.1672465,5.28338966 33.0328032,0 33.0328032,0 C33.0328032,0 28.3297018,0.82554672 25.1785189,4.10400596 C22.0297416,7.38487078 22.5509841,12.5667893 22.5509841,12.5667893 C22.5509841,12.5667893 27.4687276,12.1068887 30.8180417,8.6962326 L30.8180417,8.6962326 Z"></path>
                        </g>
                    </g>
                </g>
            </g>
        </g>
    </g>
</svg>