<?xml version="1.0" encoding="UTF-8" standalone="no"?>
<svg width="51px" height="55px" viewBox="0 0 51 55" version="1.1" xmlns="http://www.w3.org/2000/svg" xmlns:xlink="http://www.w3.org/1999/xlink" xmlns:sketch="http://www.bohemiancoding.com/sketch/ns">
    <!-- Generator: Sketch 3.4.2 (15857) - http://www.bohemiancoding.com/sketch -->
    <title>archive4</title>
    <desc>Created with Sketch.</desc>
    <defs></defs>
    <g id="Welcome" stroke="none" stroke-width="1" fill="none" fill-rule="evenodd" sketch:type="MSPage">
        <g id="iconsets" sketch:type="MSArtboardGroup" transform="translate(-1247.000000, -640.000000)" fill="#FFFFFF">
            <g id="archive4" sketch:type="MSLayerGroup" transform="translate(1247.000000, 640.000000)">
                <g id="Capa_1" sketch:type="MSShapeGroup">
                    <g id="Group">
                        <path d="M21.0008086,19.8889488 L10.9693127,19.8889488 C9.74122642,19.8889488 8.74559299,20.8845822 8.74559299,22.1126685 C8.74559299,23.3407547 9.74122642,24.3363881 10.9693127,24.3363881 L21.0008086,24.3363881 C22.2288949,24.3363881 23.2245283,23.3407547 23.2245283,22.1126685 C23.2245283,20.8845822 22.2288949,19.8889488 21.0008086,19.8889488 L21.0008086,19.8889488 Z" id="Shape"></path>
                        <path d="M21.0008086,33.2312668 L10.9693127,33.2312668 C9.74122642,33.2312668 8.74559299,34.2269003 8.74559299,35.4549865 C8.74559299,36.6830728 9.74122642,37.6787062 10.9693127,37.6787062 L21.0008086,37.6787062 C22.2288949,37.6787062 23.2245283,36.6830728 23.2245283,35.4549865 C23.2245283,34.2269003 22.2288949,33.2312668 21.0008086,33.2312668 L21.0008086,33.2312668 Z" id="Shape"></path>
                        <path d="M38.3951887,22.6638544 C36.4627763,22.6638544 34.8911995,24.2355795 34.8911995,26.1679919 L34.8911995,28.4858491 L41.8991779,28.4858491 L41.8991779,26.1679919 C41.8991779,24.2355795 40.3276011,22.6638544 38.3951887,22.6638544 L38.3951887,22.6638544 Z" id="Shape"></path>
                        <path d="M48.9749057,26.3356604 L48.9749057,26.1679919 C48.9749057,21.4353235 45.851469,17.418841 41.5579111,16.0709704 L41.5579111,10.9263208 C41.5579111,10.3431132 41.3266442,9.78392183 40.9139218,9.37208895 L32.1856739,0.643247978 C31.7729515,0.231415094 31.2146496,0 30.631442,0 L4.36427224,0 C1.98444744,0 0.0484770889,1.9361186 0.0484770889,4.31579515 L0.0484770889,50.583248 C0.0484770889,52.963221 1.98444744,54.8991914 4.36412399,54.8991914 L37.2421159,54.8991914 C39.6217925,54.8991914 41.5577628,52.9630728 41.5577628,50.583248 L41.5577628,48.8772102 L44.9315903,48.8772102 C48.2756199,48.8772102 50.9961186,46.1565633 50.9961186,42.8123854 L50.9961186,30.8447709 C50.9962668,29.0785445 50.2197439,27.4567116 48.9749057,26.3356604 L48.9749057,26.3356604 Z M36.8713477,50.0938814 L4.73504043,50.0938814 L4.73504043,4.80530997 L27.5782749,4.80530997 L27.5782749,11.2655121 C27.5782749,12.8301213 28.8463881,14.097938 30.4105526,14.097938 L36.8711995,14.097938 L36.8711995,15.6990162 C31.7572372,16.4402561 27.8153235,20.8516712 27.8153235,26.1681402 L27.8153235,26.3358086 C26.5707817,27.4570081 25.7939623,29.0786927 25.7939623,30.8449191 L25.7939623,42.8125337 C25.7939623,46.1567116 28.5146092,48.8773585 31.8584906,48.8773585 L36.8711995,48.8773585 L36.8711995,50.0938814 L36.8713477,50.0938814 Z M47.2900674,32.5745283 L43.2808491,32.5745283 C42.331469,32.5745283 41.5623585,33.3440836 41.5623585,34.2927224 C41.5623585,35.2415094 42.331469,36.0109164 43.2808491,36.0109164 L47.2900674,36.0109164 L47.2900674,38.4660512 L43.2808491,38.4660512 C42.331469,38.4660512 41.5623585,39.23531 41.5623585,40.1848383 C41.5623585,41.1339218 42.331469,41.9033288 43.2808491,41.9033288 L47.2900674,41.9033288 L47.2900674,42.8125337 C47.2900674,44.1154852 46.2343935,45.171159 44.9317385,45.171159 L31.8586388,45.171159 C30.5559838,45.171159 29.50031,44.1154852 29.50031,42.8125337 L29.50031,30.8449191 C29.50031,29.6565633 30.3786792,28.674124 31.5216712,28.51031 L31.5216712,26.1681402 C31.5216712,22.3774394 34.6053774,19.2940296 38.3951887,19.2940296 C42.185,19.2940296 45.2687062,22.3774394 45.2687062,26.1681402 L45.2687062,28.51031 C46.4116981,28.674124 47.2900674,29.6565633 47.2900674,30.8449191 L47.2900674,32.5745283 L47.2900674,32.5745283 Z" id="Shape"></path>
                    </g>
                </g>
            </g>
        </g>
    </g>
</svg>