<?xml version="1.0" encoding="UTF-8" standalone="no"?>
<svg width="71px" height="55px" viewBox="0 0 71 55" version="1.1" xmlns="http://www.w3.org/2000/svg" xmlns:xlink="http://www.w3.org/1999/xlink" xmlns:sketch="http://www.bohemiancoding.com/sketch/ns">
    <!-- Generator: Sketch 3.4.2 (15857) - http://www.bohemiancoding.com/sketch -->
    <title>bars-graphic1</title>
    <desc>Created with Sketch.</desc>
    <defs></defs>
    <g id="Welcome" stroke="none" stroke-width="1" fill="none" fill-rule="evenodd" sketch:type="MSPage">
        <g id="iconsets" sketch:type="MSArtboardGroup" transform="translate(-406.000000, -640.000000)" fill="#000000">
            <g id="bars-graphic1" sketch:type="MSLayerGroup" transform="translate(406.000000, 640.000000)">
                <g id="Capa_1" sketch:type="MSShapeGroup">
                    <g id="Group">
                        <path d="M69.4599365,47.0075397 L57.4652222,35.0128254 C56.5775397,34.1249683 55.4193968,33.672746 54.2558413,33.6542381 C58.7555397,26.95 58.0466508,17.7627302 52.1262063,11.8424603 C45.3989206,5.115 34.4526984,5.115 27.7254127,11.8424603 C20.998127,18.569746 20.998127,29.5159683 27.7254127,36.243254 C33.6458571,42.1635238 42.8326032,42.8727619 49.5371905,38.3727143 C49.555873,39.5364444 50.007746,40.6944127 50.8957778,41.5822698 L62.8904921,53.5769841 C64.7047937,55.3912857 67.6456349,55.3912857 69.4599365,53.5769841 C71.2742381,51.7626825 71.2742381,48.8214921 69.4599365,47.0075397 L69.4599365,47.0075397 Z M48.3722381,32.4891111 C43.714873,37.1466508 36.136746,37.1466508 31.479381,32.4891111 C26.8218413,27.831746 26.8218413,20.253619 31.479381,15.596254 C36.136746,10.9388889 43.714873,10.9388889 48.3722381,15.596254 C53.0296032,20.253619 53.0296032,27.831746 48.3722381,32.4891111 L48.3722381,32.4891111 Z" id="Shape"></path>
                        <path d="M6.72169841,15.883127 L3.49206349,15.883127 C1.56339683,15.883127 0,17.4465238 0,19.3751905 L0,38.6051111 C0,40.5337778 1.56339683,42.0971746 3.49206349,42.0971746 L6.72169841,42.0971746 C8.65036508,42.0971746 10.2137619,40.5337778 10.2137619,38.6051111 L10.2137619,19.3751905 C10.2137619,17.4465238 8.65036508,15.883127 6.72169841,15.883127 L6.72169841,15.883127 Z" id="Shape"></path>
                        <path d="M25.9280476,10.594746 L25.9280476,3.66090476 C25.9280476,1.7322381 24.3646508,0.16884127 22.4359841,0.16884127 L19.2063492,0.16884127 C17.2776825,0.16884127 15.7142857,1.7322381 15.7142857,3.66090476 L15.7142857,38.6051111 C15.7142857,40.5337778 17.2776825,42.0971746 19.2063492,42.0971746 L22.4359841,42.0971746 C24.3646508,42.0971746 25.9280476,40.5337778 25.9280476,38.6051111 L25.9280476,36.8793333 C22.5260794,33.330873 20.6569524,28.6804921 20.6569524,23.7369524 C20.6569524,18.7934127 22.5260794,14.1432063 25.9280476,10.594746 L25.9280476,10.594746 Z" id="Shape"></path>
                        <path d="M38.1504444,15.883127 L34.9206349,15.883127 C32.9919683,15.883127 31.4285714,17.4465238 31.4285714,19.3751905 L31.4285714,29.7756032 C31.7322063,30.1876667 32.0684921,30.58 32.4369048,30.9487619 C34.3598095,32.8716667 36.9210635,33.9304603 39.6488889,33.9304603 C40.3261746,33.9304603 40.9929841,33.8648095 41.6425079,33.7373492 L41.6425079,19.3751905 C41.6425079,17.4465238 40.0791111,15.883127 38.1504444,15.883127 L38.1504444,15.883127 Z" id="Shape"></path>
                    </g>
                </g>
            </g>
        </g>
    </g>
</svg>