<?xml version="1.0" encoding="UTF-8" standalone="no"?>
<svg width="61px" height="55px" viewBox="0 0 61 55" version="1.1" xmlns="http://www.w3.org/2000/svg" xmlns:xlink="http://www.w3.org/1999/xlink" xmlns:sketch="http://www.bohemiancoding.com/sketch/ns">
    <!-- Generator: Sketch 3.4.2 (15857) - http://www.bohemiancoding.com/sketch -->
    <title>box35</title>
    <desc>Created with Sketch.</desc>
    <defs></defs>
    <g id="Welcome" stroke="none" stroke-width="1" fill="none" fill-rule="evenodd" sketch:type="MSPage">
        <g id="iconsets" sketch:type="MSArtboardGroup" transform="translate(-329.000000, -640.000000)" fill="#000000">
            <g id="box35" sketch:type="MSLayerGroup" transform="translate(329.000000, 640.000000)">
                <g id="Capa_1" sketch:type="MSShapeGroup">
                    <path d="M43.2655654,7.31655477 C43.2119258,6.83146643 42.9085512,6.40001767 42.4668021,6.17632509 L30.8818198,0.307067138 C30.4676678,0.0971731449 29.9784982,0.0971731449 29.5643463,0.307067138 L17.9789753,6.1759364 C17.4890283,6.42411661 17.180212,6.92669611 17.180212,7.47611307 L17.180212,7.47630742 L17.180212,7.47650177 L17.180212,17.2544523 L1.02614841,25.1124558 C0.541060071,25.3431449 0.221943463,25.8218198 0.19590106,26.3584099 C0.169858657,26.8951943 0.441166078,27.4024382 0.901766784,27.6787986 L11.0876502,33.7907951 L11.0876502,44.4677915 C11.0876502,45.0177915 11.3972438,45.5209541 11.8879682,45.7687456 L29.5657067,54.6981802 C29.7722968,54.8025442 29.9977385,54.8548233 30.2229859,54.8548233 C30.4482332,54.8548233 30.6734806,54.8025442 30.880265,54.6981802 L48.5578092,45.7687456 C49.0485336,45.5209541 49.3581272,45.0177915 49.3581272,44.4677915 L49.3581272,33.7907951 L59.5440106,27.6787986 C60.0048057,27.4024382 60.2761131,26.8951943 60.2500707,26.3584099 C60.2240283,25.8218198 59.905106,25.3431449 59.4200177,25.1126502 L43.2655654,17.2536749 L43.2655654,7.31655477 L43.2655654,7.31655477 Z M44.6714664,21.2420495 L43.2657597,21.9479152 L43.2657597,20.5258834 L44.6714664,21.2420495 L44.6714664,21.2420495 Z M30.2231802,3.24130742 L38.5827915,7.47650177 L30.2231802,11.7115018 L21.8631802,7.47611307 L30.2231802,3.24130742 L30.2231802,3.24130742 Z M17.1800177,20.5260777 L17.1800177,21.9475265 L15.774894,21.2420495 L17.1800177,20.5260777 L17.1800177,20.5260777 Z M4.73349823,26.5784099 L12.5275618,22.8739753 L27.3072085,30.2941166 L19.4746643,35.4238869 L4.73349823,26.5784099 L4.73349823,26.5784099 Z M28.765583,51.0281449 L14.0030389,43.5710777 L14.0030389,35.540106 L18.7588869,38.3938869 C18.9899647,38.5326502 19.2496113,38.6016431 19.5088693,38.6016431 C19.7873675,38.6016431 20.0652827,38.5219611 20.3074382,38.3633746 L28.765583,32.8239223 L28.765583,51.0281449 L28.765583,51.0281449 Z M30.2231802,28.4958304 L20.0954064,23.4111484 L20.0954064,9.84849823 L29.5645406,14.645742 C29.7715194,14.750689 29.9973498,14.8031625 30.2233746,14.8031625 C30.4492049,14.8031625 30.6750353,14.750689 30.8822085,14.645742 L40.3507597,9.84888693 L40.3507597,23.4113428 L30.2231802,28.4958304 L30.2231802,28.4958304 Z M46.4431272,43.5710777 L31.6807774,51.0281449 L31.6807774,32.8241166 L40.1385336,38.3635689 C40.380689,38.5221555 40.6587986,38.6018375 40.9371025,38.6018375 C41.1963604,38.6018375 41.4560071,38.5328445 41.6870848,38.3940813 L46.4431272,35.540106 L46.4431272,43.5710777 L46.4431272,43.5710777 Z M40.9709187,35.4238869 L33.1385689,30.2941166 L47.9182155,22.8737809 L55.7124735,26.5782155 L40.9709187,35.4238869 L40.9709187,35.4238869 Z" id="Shape"></path>
                </g>
            </g>
        </g>
    </g>
</svg>