<?xml version="1.0" encoding="UTF-8" standalone="no"?>
<svg width="44px" height="55px" viewBox="0 0 44 55" version="1.1" xmlns="http://www.w3.org/2000/svg" xmlns:xlink="http://www.w3.org/1999/xlink" xmlns:sketch="http://www.bohemiancoding.com/sketch/ns">
    <!-- Generator: Sketch 3.4.2 (15857) - http://www.bohemiancoding.com/sketch -->
    <title>market</title>
    <desc>Created with Sketch.</desc>
    <defs></defs>
    <g id="Welcome" stroke="none" stroke-width="1" fill="none" fill-rule="evenodd" sketch:type="MSPage">
        <g id="iconsets" sketch:type="MSArtboardGroup" transform="translate(-798.000000, -991.000000)" fill="#FFFFFF">
            <g id="market" sketch:type="MSLayerGroup" transform="translate(798.000000, 991.000000)">
                <g id="Capa_1" sketch:type="MSShapeGroup">
                    <g id="Group">
                        <g id="Shape">
                            <path d="M21.6876044,12.9819682 C13.3710139,12.9819682 6.62296223,19.7182107 6.62296223,28.0442048 C6.62296223,33.1129523 9.14202783,37.5730915 12.9889662,40.3019881 L30.3909443,40.3019881 C34.2260736,37.5730915 36.749841,33.1128429 36.749841,28.0442048 C36.7521372,19.7229125 30.0064911,12.9819682 21.6876044,12.9819682 L21.6876044,12.9819682 Z M21.680497,37.7664115 C20.8054175,37.7664115 20.1072565,35.1506859 20.1072565,31.9240557 C20.1072565,28.6974254 20.8078231,26.0794036 21.680497,26.0794036 C22.5602783,26.0794036 23.2725447,28.6951292 23.2725447,31.9240557 C23.2749503,35.1506859 22.5626839,37.7664115 21.680497,37.7664115 L21.680497,37.7664115 Z"></path>
                            <path d="M13.0360934,52.7248807 L17.1141849,52.7248807 C17.6543439,54.0009245 19.4492247,54.9655567 21.6851988,54.9655567 C23.9235785,54.9655567 25.7160537,54.0009245 26.2562127,52.7248807 L30.3414115,52.7248807 L30.3414115,42.0685487 L13.0360934,42.0685487 L13.0360934,52.7248807 L13.0360934,52.7248807 Z M14.9277435,44.3258449 L28.4474652,44.3258449 L28.4474652,46.2363022 L14.9277435,46.2363022 L14.9277435,44.3258449 L14.9277435,44.3258449 Z M14.9277435,48.149165 L28.4474652,48.149165 L28.4474652,50.0644334 L14.9277435,50.0644334 L14.9277435,48.149165 L14.9277435,48.149165 Z"></path>
                            <path d="M19.7770378,0 L23.6050596,0 L23.6050596,8.9911332 L19.7770378,8.9911332 L19.7770378,0 L19.7770378,0 Z M0.0306163022,10.5124354 L2.73130219,7.80704771 L9.09249503,14.158837 L6.39421471,16.8665209 L0.0306163022,10.5124354 L0.0306163022,10.5124354 Z M34.2803082,14.1612425 L40.641501,7.80234592 L43.3444831,10.5077336 L36.9832903,16.8666302 L34.2803082,14.1612425 L34.2803082,14.1612425 Z"></path>
                        </g>
                    </g>
                </g>
            </g>
        </g>
    </g>
</svg>