<?xml version="1.0" encoding="UTF-8" standalone="no"?>
<svg width="52px" height="55px" viewBox="0 0 52 55" version="1.1" xmlns="http://www.w3.org/2000/svg" xmlns:xlink="http://www.w3.org/1999/xlink" xmlns:sketch="http://www.bohemiancoding.com/sketch/ns">
    <!-- Generator: Sketch 3.4.2 (15857) - http://www.bohemiancoding.com/sketch -->
    <title>business12</title>
    <desc>Created with Sketch.</desc>
    <defs></defs>
    <g id="Welcome" stroke="none" stroke-width="1" fill="none" fill-rule="evenodd" sketch:type="MSPage">
        <g id="iconsets" sketch:type="MSArtboardGroup" transform="translate(-992.000000, -640.000000)" fill="#FFFFFF">
            <g id="business12" sketch:type="MSLayerGroup" transform="translate(992.000000, 640.000000)">
                <g id="Capa_1" sketch:type="MSShapeGroup">
                    <g id="Group">
                        <g>
                            <path d="M3.20449791,41.2010983 L3.20449791,3.12487448 L38.041705,3.12487448 L38.041705,14.5991632 C38.7143619,14.4750105 39.4042782,14.3906695 40.1116841,14.3906695 C40.4740167,14.3906695 40.8165586,14.4651151 41.1739435,14.4974477 L41.1739435,0 L0.0746757322,0 L0.0746757322,44.3259728 L25.9221444,44.3259728 L25.9221444,41.2010983 L3.20449791,41.2010983 L3.20449791,41.2010983 Z" id="Shape"></path>
                            <path d="M7.65478033,23.7998117 L28.8832845,23.7998117 C29.0917782,22.6307741 29.503818,21.5436611 30.0448431,20.526046 L7.65478033,20.526046 L7.65478033,23.7998117 L7.65478033,23.7998117 Z" id="Shape"></path>
                            <rect id="Rectangle-path" x="7.65478033" y="10.2902929" width="25.9319247" height="3.27376569"></rect>
                            <path d="M7.65478033,34.0380962 L29.6626046,34.0380962 C30.2508054,33.6807113 30.878818,33.3902929 31.5513598,33.2116004 C30.9134519,32.4694456 30.3898013,31.6355858 29.9430126,30.7643305 L7.65478033,30.7643305 L7.65478033,34.0380962 L7.65478033,34.0380962 Z" id="Shape"></path>
                            <path d="M40.1142155,34.3656799 C44.8399582,34.3656799 48.6472699,30.5459414 48.6472699,25.8350418 C48.6472699,21.1193096 44.8398431,17.3019874 40.1142155,17.3019874 C35.4083787,17.3019874 31.5985356,21.1193096 31.5985356,25.8350418 C31.5985356,30.5459414 35.4083787,34.3656799 40.1142155,34.3656799 L40.1142155,34.3656799 Z" id="Shape"></path>
                            <path d="M46.9620607,35.7506904 L33.2862762,35.7506904 C30.843954,35.7506904 28.8434728,37.9894665 28.8434728,40.7469456 L28.8434728,54.4773849 C28.8434728,54.6288075 28.9129707,54.7628556 28.9228661,54.9192259 L51.3129289,54.9192259 C51.3228243,54.765387 51.3923222,54.6288075 51.3923222,54.4773849 L51.3923222,40.7469456 C51.4023326,37.9968305 49.4067992,35.7506904 46.9620607,35.7506904 L46.9620607,35.7506904 Z" id="Shape"></path>
                        </g>
                    </g>
                </g>
            </g>
        </g>
    </g>
</svg>