<?xml version="1.0" encoding="UTF-8" standalone="no"?>
<svg width="38px" height="48px" viewBox="0 0 38 48" version="1.1" xmlns="http://www.w3.org/2000/svg" xmlns:xlink="http://www.w3.org/1999/xlink" xmlns:sketch="http://www.bohemiancoding.com/sketch/ns">
    <!-- Generator: Sketch 3.4.1 (15681) - http://www.bohemiancoding.com/sketch -->
    <title>clipboard - Ionicons</title>
    <desc>Created with Sketch.</desc>
    <defs></defs>
    <g id="Page-1" stroke="none" stroke-width="1" fill="none" fill-rule="evenodd" sketch:type="MSPage">
        <path d="M8.57142857,13.7142857 C8.78571536,11.3571311 9.78570536,9.92857393 11.5714286,9.42857143 L11.6785714,9.32142857 C13.1785789,8.96428393 13.9285714,8.25000536 13.9285714,7.17857143 L13.9285714,4.92857143 C13.9285714,3.57142179 14.4107095,2.41071911 15.375,1.44642857 C16.3392905,0.482138036 17.4999932,0 18.8571429,0 C20.2142925,0 21.3749952,0.482138036 22.3392857,1.44642857 C23.3035763,2.41071911 23.7857143,3.57142179 23.7857143,4.92857143 L23.7857143,7.17857143 C23.7857143,8.32143429 24.5357068,9.07142679 26.0357143,9.42857143 L26.25,9.42857143 C27.9642943,9.92857393 28.9285704,11.3571311 29.1428571,13.7142857 L8.57142857,13.7142857 Z M18.8571429,3.42857143 C17.9285668,3.42857143 17.4642857,3.92856643 17.4642857,4.92857143 C17.4642857,5.92857643 17.9285668,6.42857143 18.8571429,6.42857143 C19.8571479,6.42857143 20.3571429,5.92857643 20.3571429,4.92857143 C20.3571429,3.92856643 19.8571479,3.42857143 18.8571429,3.42857143 L18.8571429,3.42857143 Z M34.8214286,3.42857143 C35.6071468,3.42857143 36.2857114,3.71428286 36.8571429,4.28571429 C37.4285743,4.85714571 37.7142857,5.57142429 37.7142857,6.42857143 L37.7142857,45 C37.7142857,45.8571471 37.4285743,46.5714257 36.8571429,47.1428571 C36.2857114,47.7142886 35.6071468,48 34.8214286,48 L18.8571429,48 L3,48 C2.21428179,48 1.51786018,47.7142886 0.910714286,47.1428571 C0.303568393,46.5714257 0,45.8571471 0,45 L0,6.42857143 C0,5.57142429 0.303568393,4.85714571 0.910714286,4.28571429 C1.51786018,3.71428286 2.21428179,3.42857143 3,3.42857143 L10.8214286,3.42857143 L10.8214286,4.82142857 C10.8214286,5.39286 10.625002,5.87499804 10.2321429,6.26785714 C9.83928375,6.66071625 9.35714571,6.85714286 8.78571429,6.85714286 L4.82142857,6.85714286 C3.96428143,6.85714286 3.53571429,7.32142393 3.53571429,8.25 L3.53571429,43.2857143 C3.53571429,44.1428614 3.9285675,44.5714286 4.71428571,44.5714286 L33.1071429,44.5714286 C33.8928611,44.5714286 34.2857143,44.1428614 34.2857143,43.2857143 L34.2857143,8.25 C34.2857143,7.32142393 33.8571471,6.85714286 33,6.85714286 L29.0357143,6.85714286 C28.4642829,6.85714286 27.9642879,6.66071625 27.5357143,6.26785714 C27.1071407,5.87499804 26.8928571,5.39286 26.8928571,4.82142857 L26.8928571,3.42857143 L34.8214286,3.42857143 Z M6.85714286,20.5714286 L6.85714286,17.1428571 L18.8571429,17.1428571 L18.8571429,20.5714286 L6.85714286,20.5714286 Z M6.85714286,41.1428571 L6.85714286,37.7142857 L24,37.7142857 L24,41.1428571 L6.85714286,41.1428571 Z M6.85714286,34.2857143 L6.85714286,30.8571429 L20.6785714,30.8571429 L20.6785714,34.2857143 L6.85714286,34.2857143 Z M6.85714286,27.4285714 L6.85714286,24 L29.1428571,24 L29.1428571,27.4285714 L6.85714286,27.4285714 Z" id="clipboard---Ionicons" fill="#FFFFFF" sketch:type="MSShapeGroup"></path>
    </g>
</svg>