<?xml version="1.0" encoding="UTF-8" standalone="no"?>
<svg width="94px" height="55px" viewBox="0 0 94 55" version="1.1" xmlns="http://www.w3.org/2000/svg" xmlns:xlink="http://www.w3.org/1999/xlink" xmlns:sketch="http://www.bohemiancoding.com/sketch/ns">
    <!-- Generator: Sketch 3.4.2 (15857) - http://www.bohemiancoding.com/sketch -->
    <title>cloud392</title>
    <desc>Created with Sketch.</desc>
    <defs></defs>
    <g id="Welcome" stroke="none" stroke-width="1" fill="none" fill-rule="evenodd" sketch:type="MSPage">
        <g id="iconsets" sketch:type="MSArtboardGroup" transform="translate(-600.000000, -741.000000)" fill="#000000">
            <g id="cloud392" sketch:type="MSLayerGroup" transform="translate(600.002940, 741.000000)">
                <g id="Capa_1" sketch:type="MSShapeGroup">
                    <g id="Group">
                        <path d="M43.7269214,5.55451965 C41.9565939,5.55451965 40.2518341,5.83072052 38.6508297,6.34037118 C35.590524,2.49445415 30.8696507,0.0290611354 25.573559,0.0290611354 C17.2462227,0.0290611354 10.3431223,6.12157205 9.07620087,14.0917686 C3.68716157,16.8636245 0,22.4791485 0,28.9566594 C0,38.1832096 7.47975983,45.6622489 16.7053493,45.6622489 L54.121441,45.6622489 C56.1718122,45.6622489 58.1359607,45.2921397 59.95,44.6162882 L59.95,13.3006332 C59.1065066,12.9862445 58.2308297,12.735262 57.329214,12.5601747 C54.2991703,8.31917031 49.3357205,5.55451965 43.7269214,5.55451965 L43.7269214,5.55451965 Z" id="Shape"></path>
                        <path d="M90.9896943,21.9404367 L72.1595197,21.9404367 C70.3867904,18.3877729 67.3101528,15.5998253 63.5559825,14.2015284 L63.5559825,43.715393 C67.2623581,42.3353493 70.3065721,39.5990393 72.0896288,36.1107424 L80.2615721,36.1107424 L80.2615721,52.5326856 C80.2615721,53.8591703 81.3373144,54.9344323 82.6633188,54.9344323 C83.9898035,54.9344323 85.0650655,53.8591703 85.0650655,52.5326856 L85.0650655,33.7089956 C85.0650655,32.3827511 83.9898035,31.3072489 82.6633188,31.3072489 L73.6310699,31.3072489 C73.7461135,30.5403712 73.8073581,29.7557205 73.8073581,28.9566594 C73.8073581,28.205393 73.7521179,27.4673362 73.6502838,26.7439301 L88.5879476,26.7439301 L88.5879476,52.5326856 C88.5879476,53.8591703 89.6632096,54.9344323 90.9896943,54.9344323 C92.3159389,54.9344323 93.391441,53.8591703 93.391441,52.5326856 L93.391441,24.3421834 C93.391441,23.0156987 92.3156987,21.9404367 90.9896943,21.9404367 L90.9896943,21.9404367 Z M66.2867686,21.9065721 L68.6815502,21.9065721 L68.6815502,22.2468996 C67.9482969,22.6580786 67.4520961,23.4417686 67.4520961,24.3421834 C67.4520961,25.2425983 67.9482969,26.0262882 68.6815502,26.4374672 L68.6815502,26.6908515 L66.2867686,26.6908515 L66.2867686,21.9065721 L66.2867686,21.9065721 Z M66.2867686,36.0101092 L66.2867686,31.2260699 L68.6815502,31.2260699 L68.6815502,31.6137118 C67.9482969,32.0246507 67.4520961,32.8085808 67.4520961,33.7089956 C67.4520961,34.6096507 67.9482969,35.3933406 68.6815502,35.8045197 L68.6815502,36.0101092 L66.2867686,36.0101092 L66.2867686,36.0101092 Z" id="Shape"></path>
                    </g>
                </g>
            </g>
        </g>
    </g>
</svg>