<?xml version="1.0" encoding="UTF-8" standalone="no"?>
<svg width="52px" height="55px" viewBox="0 0 52 55" version="1.1" xmlns="http://www.w3.org/2000/svg" xmlns:xlink="http://www.w3.org/1999/xlink" xmlns:sketch="http://www.bohemiancoding.com/sketch/ns">
    <!-- Generator: Sketch 3.4.2 (15857) - http://www.bohemiancoding.com/sketch -->
    <title>button30</title>
    <desc>Created with Sketch.</desc>
    <defs></defs>
    <g id="Welcome" stroke="none" stroke-width="1" fill="none" fill-rule="evenodd" sketch:type="MSPage">
        <g id="iconsets" sketch:type="MSArtboardGroup" transform="translate(-806.000000, -640.000000)" fill="#FFFFFF">
            <g id="button30" sketch:type="MSLayerGroup" transform="translate(806.000000, 640.000000)">
                <g id="Capa_1" sketch:type="MSShapeGroup">
                    <g id="Group">
                        <g id="Shape">
                            <path d="M38.3674751,28.4686779 L38.3674751,25.0934493 L35.0512922,25.0934493 C34.824841,23.8905567 34.3625348,22.7772167 33.7020974,21.8007753 L36.0371372,19.4610338 L33.6525646,17.0764612 L31.3128231,19.411501 C30.3410835,18.7510636 29.2207455,18.2887575 28.0201491,18.0600099 L28.0201491,14.7461233 L24.6450298,14.7461233 L24.6450298,18.0600099 C23.4444334,18.2935686 22.3287972,18.7510636 21.3594632,19.4139066 L19.0126143,17.0764612 L16.6256362,19.4610338 L18.9653777,21.8007753 C18.3026441,22.7749205 17.8379324,23.8905567 17.6091849,25.0934493 L14.2977038,25.0934493 L14.2977038,28.4686779 L17.6091849,28.4686779 C17.840338,29.6668688 18.3026441,30.782505 18.9653777,31.7613519 L16.6256362,34.1010934 L19.0126143,36.4880716 L21.3547614,34.14833 C22.3289066,34.8110636 23.4445427,35.2757753 24.6474354,35.5045229 L24.6474354,38.8208151 L28.022664,38.8208151 L28.022664,35.5069284 C29.2232604,35.2757753 30.3411928,34.811173 31.315338,34.1507356 L33.6549702,36.4880716 L36.0419483,34.1010934 L33.7069085,31.7613519 C34.3696421,30.7849105 34.8319483,29.6668688 35.0583996,28.4686779 L38.3674751,28.4686779 L38.3674751,28.4686779 Z M26.3314414,30.4617992 C24.3007058,30.4617992 22.6472068,28.8131113 22.6472068,26.7799702 C22.6472068,24.746829 24.2983002,23.1005467 26.3314414,23.1005467 C28.3598807,23.1005467 30.0085686,24.746829 30.0085686,26.7799702 C30.0108648,28.8131113 28.3645825,30.4617992 26.3314414,30.4617992 L26.3314414,30.4617992 Z"></path>
                            <path d="M7.62039761,26.6879026 C7.62280318,16.4820676 15.8944533,8.20801193 26.1002883,8.20801193 C28.7679523,8.20801193 31.2798012,8.81421471 33.5677137,9.83308151 L30.3694036,13.0124751 L43.4244135,13.0573062 L43.4621372,0 L39.2189364,4.21488072 C35.365,1.95299205 30.8953479,0.627415507 26.1002883,0.627415507 C11.7078926,0.627415507 0.0396918489,12.2956163 0.0396918489,26.6880119 C0.0396918489,32.7025845 2.09645129,38.2241252 5.51640159,42.6347316 L10.9270676,37.2240656 C8.84920477,34.2308847 7.62039761,30.6032903 7.62039761,26.6879026 L7.62039761,26.6879026 Z"></path>
                            <path d="M47.8893638,12.7578131 L42.0376044,17.6849602 C43.8536978,20.8431412 44.766501,24.557992 44.4339861,28.459165 C43.5660139,38.6295726 34.6173062,46.1654473 24.4468986,45.2950696 C23.041173,45.1747913 21.6990855,44.8681909 20.4112326,44.4554175 L23.5269881,40.5895626 L10.5474254,41.9811829 L11.9413419,54.9631511 L15.4344433,50.6302883 C18.0171471,51.7930517 20.8097913,52.5973857 23.7957555,52.8521571 C38.1362127,54.0809642 50.7573459,43.4482505 51.9837475,29.1100895 C52.500507,23.1193539 50.920159,17.4421074 47.8893638,12.7578131 L47.8893638,12.7578131 Z"></path>
                        </g>
                    </g>
                </g>
            </g>
        </g>
    </g>
</svg>