<?xml version="1.0" encoding="UTF-8" standalone="no"?>
<svg width="60px" height="55px" viewBox="0 0 60 55" version="1.1" xmlns="http://www.w3.org/2000/svg" xmlns:xlink="http://www.w3.org/1999/xlink" xmlns:sketch="http://www.bohemiancoding.com/sketch/ns">
    <!-- Generator: Sketch 3.4.2 (15857) - http://www.bohemiancoding.com/sketch -->
    <title>compressed4</title>
    <desc>Created with Sketch.</desc>
    <defs></defs>
    <g id="Welcome" stroke="none" stroke-width="1" fill="none" fill-rule="evenodd" sketch:type="MSPage">
        <g id="iconsets" sketch:type="MSArtboardGroup" transform="translate(-501.000000, -741.000000)" fill="#010002">
            <g id="compressed4" sketch:type="MSLayerGroup" transform="translate(501.000000, 741.000000)">
                <g id="Capa_1" sketch:type="MSShapeGroup">
                    <g id="Group">
                        <g>
                            <rect id="Rectangle-path" x="0" y="30.219797" width="59.0737607" height="10.6141774"></rect>
                            <rect id="Rectangle-path" x="0" y="44.3728953" width="59.0737607" height="10.6166453"></rect>
                            <path d="M9.99307692,7.31582265 L49.0679915,7.31582265 C51.4458013,7.31582265 53.3750321,5.69849359 53.3750321,3.70086538 C53.3776175,1.7082906 51.4433333,0.0884935897 49.0679915,0.0884935897 L9.99307692,0.0884935897 C7.61526709,0.0884935897 5.68862179,1.70840812 5.68862179,3.70086538 C5.68862179,5.69849359 7.61526709,7.31582265 9.99307692,7.31582265 L9.99307692,7.31582265 Z" id="Shape"></path>
                            <path d="M31.7892949,26.3082158 L28.6661645,28.3768269 L34.9682479,28.3768269 C35.0519231,27.8774786 34.9682479,27.3526282 34.6716239,26.8964103 C34.0378312,25.9407265 32.7500321,25.6770085 31.7892949,26.3082158 L31.7892949,26.3082158 Z M34.6716239,11.6608226 C34.0378312,10.7051389 32.7500321,10.4440064 31.7892949,11.0752137 L24.9903312,15.5724038 C24.0270085,16.2011432 23.7709295,17.4889423 24.4022543,18.4496795 C25.036047,19.4053632 26.3186752,19.6664957 27.2769444,19.0377564 L34.083547,14.5405662 C35.0366453,13.9094765 35.3028312,12.6216774 34.6716239,11.6608226 L34.6716239,11.6608226 Z M27.274359,11.2983868 L30.5065491,9.16384615 L24.092938,9.16384615 C23.9941026,9.67847222 24.0878846,10.2310577 24.3996688,10.7101923 C25.033344,11.6659936 26.3160897,11.929594 27.274359,11.2983868 L27.274359,11.2983868 Z M34.6716239,19.5448611 C34.0378312,18.5891774 32.7500321,18.3254594 31.7892949,18.9567842 L24.9903312,23.4539744 C24.0270085,24.0851816 23.7709295,25.3729808 24.4022543,26.33125 C25.036047,27.2869338 26.3186752,27.5506517 27.2769444,26.9193269 L34.083547,22.4247222 C35.0366453,21.790812 35.3028312,20.5055983 34.6716239,19.5448611 L34.6716239,19.5448611 Z" id="Shape"></path>
                        </g>
                    </g>
                </g>
            </g>
        </g>
    </g>
</svg>