<?xml version="1.0" encoding="UTF-8" standalone="no"?>
<svg width="80px" height="55px" viewBox="0 0 80 55" version="1.1" xmlns="http://www.w3.org/2000/svg" xmlns:xlink="http://www.w3.org/1999/xlink" xmlns:sketch="http://www.bohemiancoding.com/sketch/ns">
    <!-- Generator: Sketch 3.4.2 (15857) - http://www.bohemiancoding.com/sketch -->
    <title>computers13</title>
    <desc>Created with Sketch.</desc>
    <defs></defs>
    <g id="Welcome" stroke="none" stroke-width="1" fill="none" fill-rule="evenodd" sketch:type="MSPage">
        <g id="iconsets" sketch:type="MSArtboardGroup" transform="translate(-1118.000000, -741.000000)" fill="#FFFFFF">
            <g id="computers13" sketch:type="MSLayerGroup" transform="translate(1118.000000, 741.000000)">
                <g id="Capa_1" sketch:type="MSShapeGroup">
                    <path d="M77.5388975,0.106754658 L45.889472,0.106754658 C44.9143323,0.106754658 44.1209317,0.899984472 44.1209317,1.87495342 L44.1209317,9.88104037 L35.1863354,9.88104037 L35.1863354,1.87478261 C35.1863354,0.899813665 34.3929348,0.106583851 33.417795,0.106583851 L1.76854037,0.106583851 C0.793229814,0.106754658 0,0.899813665 0,1.87478261 L0,21.5109783 C0,22.486118 0.793229814,23.2793478 1.76854037,23.2793478 L12.6424845,23.2793478 L12.6424845,24.2645652 L11.2029193,24.2645652 C10.2279503,24.2645652 9.4347205,25.0579658 9.4347205,26.0331056 C9.4347205,27.0080745 10.2279503,27.8013043 11.2029193,27.8013043 L17.261972,27.8013043 L17.261972,37.1543789 C17.261972,38.3237267 18.2137112,39.2749534 19.3835714,39.2749534 L33.4567391,39.2749534 L33.4567391,40.8248602 L31.4687112,40.8248602 C30.2990217,40.8248602 29.3476242,41.7764286 29.3476242,42.9459472 C29.3476242,44.1156366 30.2990217,45.067205 31.4687112,45.067205 L38.2873447,45.067205 L38.2873447,48.6831988 L34.5295807,48.6831988 C33.7761491,48.6831988 33.1631211,49.2962267 33.1631211,50.0496584 L33.1631211,50.4481522 L9.64857143,50.4481522 C8.89513975,50.4481522 8.2821118,51.0611801 8.2821118,51.8146118 C8.2821118,52.5680435 8.89513975,53.1810714 9.64857143,53.1810714 L33.1629503,53.1810714 L33.1629503,53.5795652 C33.1629503,54.3329969 33.7759783,54.9460248 34.5294099,54.9460248 L44.7778571,54.9460248 C45.5312888,54.9460248 46.1443168,54.3329969 46.1443168,53.5795652 L46.1443168,53.1810714 L69.6586957,53.1810714 C70.4121273,53.1810714 71.0251553,52.5680435 71.0251553,51.8146118 C71.0251553,51.0611801 70.4121273,50.4481522 69.6586957,50.4481522 L46.1443168,50.4481522 L46.1443168,50.0496584 C46.1443168,49.2962267 45.5312888,48.6831988 44.7778571,48.6831988 L41.0200932,48.6831988 L41.0200932,45.067205 L47.8387267,45.067205 C49.0082453,45.067205 49.9596429,44.1156366 49.9596429,42.9459472 C49.9596429,41.7764286 49.0082453,40.8248602 47.8387267,40.8248602 L45.8506988,40.8248602 L45.8506988,39.2749534 L59.9240373,39.2749534 C61.0938975,39.2749534 62.0454658,38.3237267 62.0454658,37.1543789 L62.0454658,27.8013043 L68.1045186,27.8013043 C69.0794876,27.8013043 69.8727174,27.0080745 69.8727174,26.0331056 C69.8727174,25.0579658 69.0796584,24.2645652 68.1045186,24.2645652 L66.6649534,24.2645652 L66.6649534,23.2793478 L77.5388975,23.2793478 C78.5140373,23.2793478 79.3072671,22.4859472 79.3072671,21.5109783 L79.3072671,1.87478261 C79.3074379,0.899813665 78.5140373,0.106754658 77.5388975,0.106754658 L77.5388975,0.106754658 Z M17.261972,12.0021273 L17.261972,18.4864907 L3.53622671,18.4864907 L3.53622671,3.64332298 L31.6497671,3.64332298 L31.6497671,9.88104037 L19.3834006,9.88104037 C18.2137112,9.88086957 17.261972,10.8324379 17.261972,12.0021273 L17.261972,12.0021273 Z M39.6536335,38.059146 C38.9007143,38.059146 38.2871739,37.4464596 38.2871739,36.6926863 C38.2871739,35.938913 38.9007143,35.3262267 39.6536335,35.3262267 C40.4065528,35.3262267 41.0200932,35.938913 41.0200932,36.6926863 C41.0200932,37.4464596 40.4067236,38.059146 39.6536335,38.059146 L39.6536335,38.059146 Z M57.8027795,33.4241149 L21.5044876,33.4241149 L21.5044876,14.1232143 L57.8027795,14.1232143 L57.8027795,33.4241149 L57.8027795,33.4241149 Z M75.7710404,18.4864907 L62.0454658,18.4864907 L62.0454658,12.0021273 C62.0454658,10.8324379 61.0938975,9.88086957 59.9240373,9.88086957 L47.6576708,9.88086957 L47.6576708,3.64332298 L75.7712112,3.64332298 L75.7712112,18.4864907 L75.7710404,18.4864907 Z" id="Shape"></path>
                </g>
            </g>
        </g>
    </g>
</svg>