<?xml version="1.0" encoding="UTF-8" standalone="no"?>
<svg width="21px" height="18px" viewBox="0 0 21 18" version="1.1" xmlns="http://www.w3.org/2000/svg" xmlns:xlink="http://www.w3.org/1999/xlink" xmlns:sketch="http://www.bohemiancoding.com/sketch/ns">
    <!-- Generator: Sketch 3.3.3 (12072) - http://www.bohemiancoding.com/sketch -->
    <title>ios-speedometer-outline - Ionicons</title>
    <desc>Created with Sketch.</desc>
    <defs></defs>
    <g id="Welcome" stroke="none" stroke-width="1" fill="none" fill-rule="evenodd" sketch:type="MSPage">
        <g id="Desktop-HD-Copy-5" sketch:type="MSArtboardGroup" transform="translate(-15.000000, -719.000000)" fill="#FFFFFF">
            <path d="M25.5,719 C28.4062645,719 30.8828023,720.023427 32.9296875,722.070312 C34.9765727,724.117198 36,726.593735 36,729.5 C36,732.125013 35.1250087,734.43749 33.375,736.4375 C33.3124997,736.5 33.226563,736.593749 33.1171875,736.71875 C33.007812,736.843751 32.9218753,736.9375 32.859375,737 L32.390625,736.53125 L32.34375,736.4375 C31.4062453,735.562496 30.3906305,734.890627 29.296875,734.421875 C28.1093691,733.921872 26.8437567,733.671875 25.5,733.671875 C24.1562433,733.671875 22.8906309,733.921872 21.703125,734.421875 C20.6093695,734.890627 19.5937547,735.562496 18.65625,736.4375 L18.609375,736.53125 L18.140625,737 C18.0781247,736.9375 17.992188,736.843751 17.8828125,736.71875 C17.773437,736.593749 17.6875003,736.5 17.625,736.4375 C15.8749913,734.43749 15,732.125013 15,729.5 C15,726.593735 16.0234273,724.117198 18.0703125,722.070312 C20.1171977,720.023427 22.5937355,719 25.5,719 L25.5,719 Z M34.5,733.296875 C34.9375022,732.26562 35.1874997,731.125006 35.25,729.875 L33.75,729.875 L33.75,729.125 L35.25,729.125 C35.1874997,727.874994 34.9375022,726.73438 34.5,725.703125 C34.1249981,724.76562 33.5156292,723.82813 32.671875,722.890625 L31.40625,724.15625 L31.125,723.875 L30.890625,723.640625 L30.84375,723.640625 L32.109375,722.375 C31.2031205,721.531246 30.2656298,720.906252 29.296875,720.5 C28.2656198,720.062498 27.1093814,719.8125 25.828125,719.75 L25.828125,721.53125 L25.078125,721.53125 L25.078125,719.75 C23.8593689,719.8125 22.7343802,720.062498 21.703125,720.5 C20.5781194,721.000003 19.6250039,721.624996 18.84375,722.375 L20.109375,723.640625 L19.828125,723.921875 L19.59375,724.15625 L18.328125,722.890625 C17.4843708,723.82813 16.8750019,724.76562 16.5,725.703125 C16.0624978,726.73438 15.8125003,727.890619 15.75,729.171875 L17.25,729.171875 L17.25,729.921875 L15.75,729.921875 C15.8125003,731.140631 16.0624978,732.26562 16.5,733.296875 C16.9687523,734.32813 17.5156219,735.203121 18.140625,735.921875 C20.140635,733.921865 22.5937355,732.921875 25.5,732.921875 C28.4062645,732.921875 30.859365,733.921865 32.859375,735.921875 C33.4843781,735.203121 34.0312477,734.32813 34.5,733.296875 L34.5,733.296875 Z M30.75,724.203125 L30.84375,724.25 L27.328125,728.1875 C27.6093764,728.562502 27.75,728.999997 27.75,729.5 C27.75,730.125003 27.5312522,730.656248 27.09375,731.09375 C26.6562478,731.531252 26.1250031,731.75 25.5,731.75 C25.093748,731.75 24.6718772,731.609376 24.234375,731.328125 L23.625,731.890625 L23.109375,731.375 L23.671875,730.8125 C23.3906236,730.437498 23.25,730.000003 23.25,729.5 C23.25,728.874997 23.4687478,728.343752 23.90625,727.90625 C24.3437522,727.468748 24.8749969,727.25 25.5,727.25 C25.9375022,727.25 26.359373,727.374999 26.765625,727.625 L30.75,724.203125 Z M25.5,731 C25.9375022,731 26.2968736,730.859376 26.578125,730.578125 C26.8593764,730.296874 27,729.937502 27,729.5 C27,729.062498 26.8593764,728.703126 26.578125,728.421875 C26.2968736,728.140624 25.9375022,728 25.5,728 C25.0624978,728 24.7031264,728.140624 24.421875,728.421875 C24.1406236,728.703126 24,729.062498 24,729.5 C24,729.937502 24.1406236,730.296874 24.421875,730.578125 C24.7031264,730.859376 25.0624978,731 25.5,731 L25.5,731 Z" id="ios-speedometer-outline---Ionicons" sketch:type="MSShapeGroup"></path>
        </g>
    </g>
</svg>