<?xml version="1.0" encoding="UTF-8" standalone="no"?>
<svg width="21px" height="18px" viewBox="0 0 21 18" version="1.1" xmlns="http://www.w3.org/2000/svg" xmlns:xlink="http://www.w3.org/1999/xlink" xmlns:sketch="http://www.bohemiancoding.com/sketch/ns">
    <!-- Generator: Sketch 3.4.2 (15857) - http://www.bohemiancoding.com/sketch -->
    <title>ios-speedometer-outline - Ionicons</title>
    <desc>Created with Sketch.</desc>
    <defs></defs>
    <g id="Welcome" stroke="none" stroke-width="1" fill="none" fill-rule="evenodd" sketch:type="MSPage">
        <g id="Desktop-HD-Copy-5" sketch:type="MSArtboardGroup" transform="translate(-20.000000, -177.000000)" fill="#FFFFFF">
            <path d="M30.5,177 C33.4062645,177 35.8828023,178.023427 37.9296875,180.070312 C39.9765727,182.117198 41,184.593735 41,187.5 C41,190.125013 40.1250087,192.43749 38.375,194.4375 C38.3124997,194.5 38.226563,194.593749 38.1171875,194.71875 C38.007812,194.843751 37.9218753,194.9375 37.859375,195 L37.390625,194.53125 L37.34375,194.4375 C36.4062453,193.562496 35.3906305,192.890627 34.296875,192.421875 C33.1093691,191.921872 31.8437567,191.671875 30.5,191.671875 C29.1562433,191.671875 27.8906309,191.921872 26.703125,192.421875 C25.6093695,192.890627 24.5937547,193.562496 23.65625,194.4375 L23.609375,194.53125 L23.140625,195 C23.0781247,194.9375 22.992188,194.843751 22.8828125,194.71875 C22.773437,194.593749 22.6875003,194.5 22.625,194.4375 C20.8749913,192.43749 20,190.125013 20,187.5 C20,184.593735 21.0234273,182.117198 23.0703125,180.070312 C25.1171977,178.023427 27.5937355,177 30.5,177 L30.5,177 Z M39.5,191.296875 C39.9375022,190.26562 40.1874997,189.125006 40.25,187.875 L38.75,187.875 L38.75,187.125 L40.25,187.125 C40.1874997,185.874994 39.9375022,184.73438 39.5,183.703125 C39.1249981,182.76562 38.5156292,181.82813 37.671875,180.890625 L36.40625,182.15625 L36.125,181.875 L35.890625,181.640625 L35.84375,181.640625 L37.109375,180.375 C36.2031205,179.531246 35.2656298,178.906252 34.296875,178.5 C33.2656198,178.062498 32.1093814,177.8125 30.828125,177.75 L30.828125,179.53125 L30.078125,179.53125 L30.078125,177.75 C28.8593689,177.8125 27.7343802,178.062498 26.703125,178.5 C25.5781194,179.000003 24.6250039,179.624996 23.84375,180.375 L25.109375,181.640625 L24.828125,181.921875 L24.59375,182.15625 L23.328125,180.890625 C22.4843708,181.82813 21.8750019,182.76562 21.5,183.703125 C21.0624978,184.73438 20.8125003,185.890619 20.75,187.171875 L22.25,187.171875 L22.25,187.921875 L20.75,187.921875 C20.8125003,189.140631 21.0624978,190.26562 21.5,191.296875 C21.9687523,192.32813 22.5156219,193.203121 23.140625,193.921875 C25.140635,191.921865 27.5937355,190.921875 30.5,190.921875 C33.4062645,190.921875 35.859365,191.921865 37.859375,193.921875 C38.4843781,193.203121 39.0312477,192.32813 39.5,191.296875 L39.5,191.296875 Z M35.75,182.203125 L35.84375,182.25 L32.328125,186.1875 C32.6093764,186.562502 32.75,186.999997 32.75,187.5 C32.75,188.125003 32.5312522,188.656248 32.09375,189.09375 C31.6562478,189.531252 31.1250031,189.75 30.5,189.75 C30.093748,189.75 29.6718772,189.609376 29.234375,189.328125 L28.625,189.890625 L28.109375,189.375 L28.671875,188.8125 C28.3906236,188.437498 28.25,188.000003 28.25,187.5 C28.25,186.874997 28.4687478,186.343752 28.90625,185.90625 C29.3437522,185.468748 29.8749969,185.25 30.5,185.25 C30.9375022,185.25 31.359373,185.374999 31.765625,185.625 L35.75,182.203125 Z M32.5,189 C32.9375022,189 33.2968736,188.859376 33.578125,188.578125 C33.8593764,188.296874 34,187.937502 34,187.5 C34,187.062498 33.8593764,186.703126 33.578125,186.421875 C33.2968736,186.140624 32.9375022,186 32.5,186 C32.0624978,186 31.7031264,186.140624 31.421875,186.421875 C31.1406236,186.703126 31,187.062498 31,187.5 C31,187.937502 31.1406236,188.296874 31.421875,188.578125 C31.7031264,188.859376 32.0624978,189 32.5,189 L32.5,189 Z" id="ios-speedometer-outline---Ionicons" sketch:type="MSShapeGroup"></path>
        </g>
    </g>
</svg>