<?xml version="1.0" encoding="UTF-8" standalone="no"?>
<svg width="49px" height="48px" viewBox="0 0 49 48" version="1.1" xmlns="http://www.w3.org/2000/svg" xmlns:xlink="http://www.w3.org/1999/xlink" xmlns:sketch="http://www.bohemiancoding.com/sketch/ns">
    <!-- Generator: Sketch 3.4.1 (15681) - http://www.bohemiancoding.com/sketch -->
    <title>database4</title>
    <desc>Created with Sketch.</desc>
    <defs></defs>
    <g id="Page-1" stroke="none" stroke-width="1" fill="none" fill-rule="evenodd" sketch:type="MSPage">
        <g id="database4" sketch:type="MSLayerGroup" fill="#FFFFFF">
            <g id="Capa_1" sketch:type="MSShapeGroup">
                <g id="Group">
                    <path d="M48.192,45.0050909 L39.3250909,37.0938182 C40.9992727,34.9716364 42.0058182,32.2981818 42.0058182,29.3890909 C42.0058182,22.912 37.04,17.5970909 30.7170909,16.9890909 C30.6283636,16.7272727 30.5323636,16.4727273 30.3796364,16.208 L30.1643636,15.8327273 C30.6574545,15.1316364 30.9338182,14.384 30.9338182,13.6 L30.9338182,9.14763636 C30.9338182,8.54254545 30.7650909,7.92872727 30.4290909,7.32072727 L30.3272727,7.13018182 C30.4654545,6.80872727 30.5614545,6.48 30.5614545,6.12945455 C30.5614545,2.53381818 22.7796364,0.587636364 15.4647273,0.587636364 C8.14836364,0.587636364 0.373818182,2.53381818 0.373818182,6.13090909 C0.373818182,6.48 0.466909091,6.81018182 0.606545455,7.13163636 L0.501818182,7.32654545 C0.165818182,7.92872727 0,8.54254545 0,9.14763636 L0,13.6 C0,14.384 0.273454545,15.1316364 0.768,15.8327273 L0.549818182,16.2138182 C0.183272727,16.8407273 0,17.4821818 0,18.1163636 L0,22.5701818 C0,23.3338182 0.260363636,24.0669091 0.730181818,24.7549091 L0.549818182,25.0647273 C0.183272727,25.696 0,26.3374545 0,26.9658182 L0,31.4254545 C0,35.3832727 6.79127273,38.48 15.4647273,38.48 C17.2407273,38.48 18.9309091,38.3461818 20.5047273,38.1018182 C20.4058182,37.9709091 20.3258182,37.8210909 20.2312727,37.6785455 C22.5163636,40.2414545 25.8254545,41.8690909 29.5243636,41.8690909 C32.544,41.8690909 35.3192727,40.7927273 37.4807273,38.9992727 L45.3803636,47.6043636 L48.192,45.0050909 L48.192,45.0050909 Z M24.24,24.0625455 C27.2770909,21.0458182 32.1745455,21.0647273 35.1825455,24.0916364 C38.1978182,27.1258182 38.1774545,32.032 35.1476364,35.0370909 C32.112,38.0509091 27.2145455,38.0363636 24.1978182,35.0036364 C21.1854545,31.9709091 21.2116364,27.0705455 24.24,24.0625455 L24.24,24.0625455 Z M15.4647273,2.24727273 C23.7890909,2.24727273 28.9047273,4.50909091 28.9047273,6.13090909 C28.9047273,7.75563636 23.7876364,10.0174545 15.4647273,10.0174545 C7.136,10.0174545 2.02763636,7.75563636 2.02763636,6.13090909 C2.02763636,4.50763636 7.136,2.24727273 15.4647273,2.24727273 L15.4647273,2.24727273 Z M1.65818182,9.89381818 C4.13818182,11.9956364 9.89090909,13.0836364 15.4647273,13.0836364 C21.0414545,13.0836364 26.7912727,11.9956364 29.2741818,9.89381818 L29.2741818,13.5985455 C29.2741818,16.1527273 23.6072727,18.9992727 15.4647273,18.9992727 C7.328,18.9992727 1.65818182,16.1527273 1.65818182,13.5985455 C1.65818182,13.5985455 1.65818182,9.89381818 1.65818182,9.89381818 L1.65818182,9.89381818 Z M1.65818182,18.3796364 C4.19490909,20.7069091 9.41963636,22.192 15.4647273,22.192 C16.9047273,22.192 18.2661818,22.0785455 19.5796364,21.9141818 C18.5687273,23.2610909 17.7992727,24.8029091 17.3963636,26.4901818 C17.2843636,26.9498182 17.1985455,27.4196364 17.1403636,27.8996364 C16.5847273,27.9258182 16.0436364,27.9709091 15.4647273,27.9709091 C7.328,27.9709091 1.65818182,25.1243636 1.65818182,22.5701818 C1.65818182,22.5701818 1.65818182,18.3796364 1.65818182,18.3796364 L1.65818182,18.3796364 Z M15.4647273,36.8261818 C7.328,36.8261818 1.65818182,33.9796364 1.65818182,31.4254545 L1.65818182,27.2349091 C4.19490909,29.5621818 9.41963636,31.0443636 15.4647273,31.0443636 C16.0407273,31.0443636 16.5978182,31.008 17.1578182,30.9730909 C17.3512727,32.4930909 17.808,33.9243636 18.4989091,35.2174545 C18.7505455,35.7003636 19.0516364,36.1498182 19.3629091,36.5861818 C18.144,36.7389091 16.8421818,36.8261818 15.4647273,36.8261818 L15.4647273,36.8261818 Z" id="Shape"></path>
                    <path d="M35.4909091,29.0341818 L36.0421818,27.392 C31.7090909,20.4087273 25.696,24.4625455 25.696,24.4625455 C33.2232727,23.0996364 35.4909091,29.0341818 35.4909091,29.0341818 L35.4909091,29.0341818 Z" id="Shape"></path>
                </g>
            </g>
        </g>
    </g>
</svg>