<?xml version="1.0" encoding="UTF-8" standalone="no"?>
<svg width="50px" height="48px" viewBox="0 0 50 48" version="1.1" xmlns="http://www.w3.org/2000/svg" xmlns:xlink="http://www.w3.org/1999/xlink" xmlns:sketch="http://www.bohemiancoding.com/sketch/ns">
    <!-- Generator: Sketch 3.4.1 (15681) - http://www.bohemiancoding.com/sketch -->
    <title>database10</title>
    <desc>Created with Sketch.</desc>
    <defs></defs>
    <g id="Page-1" stroke="none" stroke-width="1" fill="none" fill-rule="evenodd" sketch:type="MSPage">
        <g id="database10" sketch:type="MSLayerGroup" fill="#FFFFFF">
            <g id="Group" sketch:type="MSShapeGroup">
                <path d="M41.5913514,39.2499293 C36.6865696,41.0709356 28.8760416,41.3508524 24.6847734,41.3508524 C20.4939044,41.3508524 12.6832765,41.0709356 7.7784948,39.2499293 C6.53169231,39.7886071 5.81189189,40.3940457 5.81189189,41.0355094 L5.81189189,43.9175052 C5.81189189,46.1472599 14.264183,47.9553929 24.6847734,47.9553929 C35.110553,47.9553929 43.5579543,46.1472599 43.5579543,43.9175052 L43.5579543,41.0355094 C43.5580541,40.3940457 42.8378545,39.7887069 41.5913514,39.2499293 L41.5913514,39.2499293 Z" id="Shape"></path>
                <path d="M41.5913514,30.2353098 C36.6865696,32.0561164 28.8760416,32.3362328 24.6847734,32.3362328 C20.4939044,32.3362328 12.6832765,32.0561164 7.7784948,30.2353098 C6.53169231,30.7745863 5.81189189,31.3794262 5.81189189,32.0215884 L5.81189189,34.903684 C5.81189189,37.132341 14.264183,38.9415717 24.6847734,38.9415717 C35.110553,38.9415717 43.5579543,37.132341 43.5579543,34.903684 L43.5579543,32.0215884 C43.5580541,31.3794262 42.8378545,30.7746861 41.5913514,30.2353098 L41.5913514,30.2353098 Z" id="Shape"></path>
                <path d="M39.8204407,20.6033763 L35.5355676,22.5239751 C35.1746195,22.6854387 34.7936133,22.7678669 34.4016299,22.7678669 C33.3100042,22.7678669 32.3170728,22.1249064 31.8716008,21.1296798 L31.0088981,19.2080832 L30.5694137,18.2264283 C30.4788025,18.3541622 30.4031601,18.4898794 30.2906944,18.6035426 L29.7714761,19.1227609 L26.6437921,22.2517422 C26.119684,22.7739543 25.4234345,23.0611559 24.6847734,23.0611559 C23.9445156,23.0611559 23.2496632,22.7732557 22.7242578,22.2492474 L19.596973,19.1235593 L19.0777547,18.604341 C18.9648898,18.4914761 18.8896466,18.355659 18.7984366,18.2287235 L18.3595509,19.2079834 L17.4984449,21.12958 C17.0527734,22.1248067 16.0600416,22.7677672 14.968316,22.7677672 C14.5763326,22.7677672 14.195526,22.6853389 13.8358753,22.524474 L9.55100208,20.6031767 C7.21227443,21.2752765 5.81189189,22.1050478 5.81189189,23.006869 L5.81189189,25.8889647 C5.81189189,28.1185198 14.264183,29.9268524 24.6847734,29.9268524 C35.110553,29.9268524 43.5579543,28.1185198 43.5579543,25.8889647 L43.5579543,23.0070686 C43.5580541,22.1052474 42.1571726,21.2754761 39.8204407,20.6033763 L39.8204407,20.6033763 Z" id="Shape"></path>
                <path d="M23.8599917,21.1140125 C24.0870187,21.3412391 24.3867942,21.4551019 24.6848732,21.4551019 C24.983052,21.4551019 25.281131,21.3412391 25.5099543,21.1140125 L29.1548607,17.4681081 C29.4875676,17.1348025 29.588158,16.6337464 29.4076341,16.1976549 C29.2271102,15.7615634 28.801896,15.4777547 28.3301788,15.4777547 L26.2879335,15.4777547 L26.2879335,13.8716008 L26.2879335,1.62351767 C26.2879335,0.736565489 25.5697297,0.0173638254 24.6818794,0.0173638254 C23.7941289,0.0173638254 23.0758254,0.736565489 23.0758254,1.62351767 L23.0758254,13.871501 L23.0758254,15.4776549 L21.0366736,15.4776549 C20.5659543,15.4776549 20.1408399,15.7614636 19.960815,16.1975551 C19.7789938,16.6336466 19.879185,17.1348025 20.2131892,17.4687069 L23.8599917,21.1140125 L23.8599917,21.1140125 Z" id="Shape"></path>
                <path d="M47.6140042,5.20814969 C40.9796258,5.82556341 37.2828274,10.0712183 35.3469605,13.4895967 C35.0647484,13.9875593 34.8078836,14.4738462 34.5973222,14.92321 L32.7043659,14.2016133 C32.5692474,14.1498212 32.428341,14.1255717 32.288632,14.1255717 C31.9749854,14.1255717 31.6678254,14.2526071 31.4415967,14.49121 C31.1186694,14.8336965 31.0340457,15.3378462 31.2270437,15.7678503 L33.3365489,20.4724491 C33.5310437,20.9052474 33.956158,21.1617131 34.4017297,21.1617131 C34.56,21.1617131 34.7213638,21.1286819 34.8767401,21.0589272 L39.5806403,18.9501206 C40.0102453,18.7572225 40.2818794,18.3243243 40.2690062,17.853106 C40.2551351,17.3817879 39.9583534,16.9654553 39.5180707,16.7975052 L37.6249148,16.0760083 C37.8443576,15.6276424 38.096632,15.1522328 38.4025946,14.6541705 C40.0432765,11.9744532 42.9809563,8.86582952 47.9118836,8.40638669 C48.7950437,8.32405821 49.4443909,7.54138877 49.3631601,6.65832848 C49.2800333,5.77446985 48.4780042,5.13230769 47.6140042,5.20814969 L47.6140042,5.20814969 Z" id="Shape"></path>
                <path d="M10.9908025,14.6449896 C11.2934719,15.1437505 11.5447484,15.6203576 11.7607983,16.0697214 L9.85217464,16.7975052 C9.41129314,16.9654553 9.11481081,17.3817879 9.1010395,17.853106 C9.0883659,18.3244241 9.35950104,18.7573222 9.78940541,18.9501206 L14.4933056,21.0589272 C14.6487817,21.1286819 14.8102453,21.1617131 14.968316,21.1617131 C15.4140873,21.1617131 15.8392017,20.9052474 16.0334969,20.4724491 L18.1429023,15.7678503 C18.3359002,15.3378462 18.2514761,14.8336965 17.9283493,14.49121 C17.7022204,14.2526071 17.3949605,14.1255717 17.0815135,14.1255717 C16.9419044,14.1255717 16.8007983,14.1498212 16.6658794,14.2016133 L14.7727235,14.92321 C14.5624615,14.4738462 14.3052973,13.9883576 14.0226861,13.4895967 C12.0873181,10.0720166 8.39041996,5.82556341 1.75614137,5.20814969 C0.885255717,5.13061123 0.090012474,5.77446985 0.00688565489,6.65832848 C-0.0742453222,7.54148857 0.574602911,8.32405821 1.45776299,8.40638669 C6.43140125,8.869921 9.36139709,11.9675676 10.9908025,14.6449896 L10.9908025,14.6449896 Z" id="Shape"></path>
            </g>
        </g>
    </g>
</svg>