<?xml version="1.0" encoding="UTF-8" standalone="no"?>
<svg width="61px" height="55px" viewBox="0 0 61 55" version="1.1" xmlns="http://www.w3.org/2000/svg" xmlns:xlink="http://www.w3.org/1999/xlink" xmlns:sketch="http://www.bohemiancoding.com/sketch/ns">
    <!-- Generator: Sketch 3.4.2 (15857) - http://www.bohemiancoding.com/sketch -->
    <title>data2</title>
    <desc>Created with Sketch.</desc>
    <defs></defs>
    <g id="Welcome" stroke="none" stroke-width="1" fill="none" fill-rule="evenodd" sketch:type="MSPage">
        <g id="iconsets" sketch:type="MSArtboardGroup" transform="translate(-1043.000000, -741.000000)" fill="#FFFFFF">
            <g id="data2" sketch:type="MSLayerGroup" transform="translate(1043.000000, 741.000000)">
                <g id="Capa_1" sketch:type="MSShapeGroup">
                    <path d="M55.3881926,0.116530343 C52.4010686,0.116530343 49.9709103,2.54683377 49.9709103,5.53395778 C49.9709103,6.23328496 50.1089182,6.93116095 50.3731794,7.57795515 L41.4778364,16.4732982 C39.2205145,14.7948549 36.4258179,13.8002111 33.4031398,13.8002111 C30.9890897,13.8002111 28.6343931,14.4425066 26.5571636,15.6625198 L20.9683509,9.24478892 C21.3466755,8.49307388 21.5449077,7.6628496 21.5449077,6.81680739 C21.5449077,3.83026385 19.1148945,1.4005409 16.1280607,1.4005409 C13.1412269,1.4005409 10.7112137,3.83026385 10.7112137,6.81680739 C10.7112137,9.8039314 13.1412269,12.2342348 16.1280607,12.2342348 C16.6925726,12.2342348 17.2453298,12.1480343 17.7773351,11.9773747 L23.3038918,18.3232718 C21.0671768,20.8171372 19.8425198,24.0030739 19.8425198,27.360686 C19.8425198,28.706372 20.0422032,30.0369657 20.4366359,31.323153 L8.26567282,39.9857256 C7.41048813,39.4535752 6.43514512,39.1745119 5.41699208,39.1745119 C2.43001319,39.174657 0,41.6043799 0,44.5910686 C0,47.5781926 2.43001319,50.0083509 5.41699208,50.0083509 C8.40382586,50.0083509 10.8338391,47.5781926 10.8338391,44.5910686 C10.8338391,44.1912665 10.7898681,43.7949472 10.7026517,43.4070449 L22.3096834,35.1463061 C23.8057124,37.2705541 25.89281,38.9359367 28.2881398,39.9166491 L26.993971,43.5658047 C24.2406332,43.8174406 22.0727045,46.1460158 22.0727045,48.9598681 C22.0727045,51.9467018 24.5027177,54.3765699 27.4895515,54.3765699 C30.4763852,54.3765699 32.9065435,51.9467018 32.9065435,48.9598681 C32.9065435,47.3709631 32.2019921,45.8644855 30.9998285,44.838496 L32.4028364,40.8825594 C32.7428496,40.9083905 33.0776385,40.9214512 33.4031398,40.9214512 C35.140066,40.9214512 36.8293931,40.5950792 38.4325198,39.9504617 L44.2525066,46.9662269 C43.8498021,47.7366623 43.6387995,48.5917018 43.6387995,49.4661873 C43.6387995,52.4533113 46.0685224,54.8836148 49.0549208,54.8836148 C52.04219,54.8836148 54.4724934,52.4533113 54.4724934,49.4661873 C54.4724934,46.4796438 52.04219,44.0499208 49.0549208,44.0499208 C48.5192876,44.0499208 47.992942,44.1281398 47.4844459,44.2829815 L42.0826913,37.771504 C45.1931662,35.1820053 46.9633245,31.4254617 46.9633245,27.3609763 C46.9633245,24.4189842 46.0212137,21.6930739 44.4234565,19.4684037 L53.3436148,10.5482454 C53.9905541,10.8122164 54.6887203,10.9503694 55.3881926,10.9503694 C58.3748813,10.9503694 60.8047493,8.52064644 60.8047493,5.5341029 C60.8047493,2.54683377 58.3748813,0.116530343 55.3881926,0.116530343 L55.3881926,0.116530343 Z M33.4031398,20.0485884 C37.4351187,20.0485884 40.7153826,23.3288522 40.7153826,27.3608311 C40.7153826,31.39281 37.4352639,34.6730739 33.4031398,34.6730739 C29.3710158,34.6730739 26.0906069,31.39281 26.0906069,27.3608311 C26.0906069,23.3288522 29.3710158,20.0485884 33.4031398,20.0485884 L33.4031398,20.0485884 Z" id="Shape"></path>
                </g>
            </g>
        </g>
    </g>
</svg>