<?xml version="1.0" encoding="UTF-8" standalone="no"?>
<svg width="45px" height="55px" viewBox="0 0 45 55" version="1.1" xmlns="http://www.w3.org/2000/svg" xmlns:xlink="http://www.w3.org/1999/xlink" xmlns:sketch="http://www.bohemiancoding.com/sketch/ns">
    <!-- Generator: Sketch 3.4.2 (15857) - http://www.bohemiancoding.com/sketch -->
    <title>delete25</title>
    <desc>Created with Sketch.</desc>
    <defs></defs>
    <g id="Welcome" stroke="none" stroke-width="1" fill="none" fill-rule="evenodd" sketch:type="MSPage">
        <g id="iconsets" sketch:type="MSArtboardGroup" transform="translate(-984.000000, -741.000000)" fill="#FFFFFF">
            <g id="delete25" sketch:type="MSLayerGroup" transform="translate(984.000000, 741.000000)">
                <g id="Capa_1" sketch:type="MSShapeGroup">
                    <g id="Group">
                        <g>
                            <circle id="Oval" cx="15.1981511" cy="11.1539563" r="11.1539563"></circle>
                            <path d="M31.4302584,28.5889563 C29.9821074,28.5889563 28.5927833,28.8342147 27.2861233,29.263499 C24.5289066,25.7302684 20.1489165,23.4353579 15.1981511,23.4353579 C6.84853877,23.4377634 0.0839761431,29.9381511 0.0839761431,37.9669483 L0.0839761431,46.0358748 L18.9389165,46.0358748 C20.7102883,51.239006 25.6350298,54.9986879 31.4302584,54.9986879 C38.7137674,54.9986879 44.6362724,49.0737773 44.6362724,41.792674 C44.6362724,34.5115706 38.7137674,28.5889563 31.4302584,28.5889563 L31.4302584,28.5889563 Z M21.137167,41.792674 C21.137167,36.117833 25.7554175,31.4972863 31.4302584,31.4972863 C37.1098012,31.4972863 41.7280517,36.117833 41.7280517,41.792674 C41.7280517,47.4699205 37.1098012,52.0880616 31.4302584,52.0880616 C25.7554175,52.0880616 21.137167,47.4699205 21.137167,41.792674 L21.137167,41.792674 Z" id="Shape"></path>
                            <path d="M33.763002,41.4129225 C33.763002,41.4129225 36.2772565,38.905666 37.5273857,37.6556461 L35.2088569,35.3371173 C33.9635388,36.584841 31.449175,39.101501 31.449175,39.101501 C31.449175,39.101501 28.5291451,36.1814712 27.4159145,35.065835 L25.0997913,37.379662 C26.2130219,38.4928926 29.1377535,41.4129225 29.1377535,41.4129225 C29.1377535,41.4129225 26.6210934,43.9271769 25.3757753,45.1773062 L27.6918986,47.4887276 C28.9325149,46.2457058 31.449175,43.7290457 31.449175,43.7290457 C31.449175,43.7290457 34.3667992,46.6442644 35.4824354,47.7647117 L37.7962624,45.4461829 L33.763002,41.4129225 L33.763002,41.4129225 Z" id="Shape"></path>
                        </g>
                    </g>
                </g>
            </g>
        </g>
    </g>
</svg>