<?xml version="1.0" encoding="UTF-8" standalone="no"?>
<svg width="42px" height="48px" viewBox="0 0 42 48" version="1.1" xmlns="http://www.w3.org/2000/svg" xmlns:xlink="http://www.w3.org/1999/xlink" xmlns:sketch="http://www.bohemiancoding.com/sketch/ns">
    <!-- Generator: Sketch 3.4.1 (15681) - http://www.bohemiancoding.com/sketch -->
    <title>document15</title>
    <desc>Created with Sketch.</desc>
    <defs></defs>
    <g id="Page-1" stroke="none" stroke-width="1" fill="none" fill-rule="evenodd" sketch:type="MSPage">
        <g id="document15" sketch:type="MSLayerGroup" fill="#FFFFFF">
            <g id="Group" sketch:type="MSShapeGroup">
                <path d="M41.0332394,15.6581408 C41.0251268,15.5350986 41.0014648,15.4140845 40.9581972,15.2869859 L40.9135775,15.168 C40.8392113,15.0030423 40.7472676,14.8658028 40.6303099,14.7495211 L26.2931831,0.412394366 C26.1782535,0.298816901 26.0430423,0.207549296 25.860507,0.124394366 C25.8307606,0.112225352 25.8016901,0.102084507 25.7530141,0.0858591549 C25.6245634,0.0425915493 25.500169,0.0169014085 25.3663099,0.0108169014 L25.2953239,0 L15.8230986,0 C12.4171268,0 9.64597183,2.77047887 9.64597183,6.17712676 L9.64597183,7.008 L6.3035493,7.008 C2.89825352,7.008 0.127098592,9.77983099 0.127098592,13.1851268 L0.127098592,41.7566197 C0.127098592,45.1619155 2.89825352,47.9337465 6.3035493,47.9337465 L25.3514366,47.9337465 C28.7567324,47.9337465 31.5278873,45.1619155 31.5278873,41.7566197 L31.5278873,40.9250704 L34.8696338,40.9250704 C38.2756056,40.9250704 41.0467606,38.1545915 41.0467606,34.7479437 L41.0467606,15.7527887 L41.0332394,15.6581408 L41.0332394,15.6581408 Z M26.7089577,4.83042254 L36.2149859,14.3378028 L30.0554366,14.3378028 C28.2104789,14.3378028 26.7096338,12.8362817 26.7096338,10.9906479 L26.7089577,4.83042254 L26.7089577,4.83042254 Z M28.6972394,41.7559437 C28.6972394,43.6015775 27.1957183,45.1030986 25.3507606,45.1030986 L6.30287324,45.1030986 C4.45791549,45.1030986 2.95639437,43.6015775 2.95639437,41.7559437 L2.95639437,13.1844507 C2.95639437,11.3388169 4.45791549,9.83729577 6.30287324,9.83729577 L14.3601127,9.83729577 L14.3601127,17.9972958 C14.3601127,21.4039437 17.1312676,24.1744225 20.5372394,24.1744225 L28.6972394,24.1744225 L28.6972394,41.7559437 L28.6972394,41.7559437 Z M17.1900845,17.9979718 L17.1900845,11.8390986 L26.6967887,21.3451268 L20.5379155,21.3451268 C18.6909296,21.3451268 17.1900845,19.8436056 17.1900845,17.9979718 L17.1900845,17.9979718 Z M38.2161127,34.7472676 C38.2161127,36.5929014 36.7145915,38.0944225 34.8696338,38.0944225 L31.5278873,38.0944225 L31.5278873,22.7594366 L31.5143662,22.6668169 C31.5062535,22.5437746 31.4832676,22.4268169 31.44,22.2970141 L31.3913239,22.1692394 C31.3162817,22.0056338 31.2250141,21.8724507 31.1141408,21.7609014 L16.7749859,7.41971831 C16.6614085,7.30749296 16.5255211,7.21622535 16.379493,7.15064789 C16.3375775,7.13104225 16.2943099,7.11346479 16.2395493,7.09656338 C16.1144789,7.05329577 15.9873803,7.02760563 15.8697465,7.02152113 L15.8697465,7.02422535 L15.7757746,7.00867606 L12.4759437,7.00867606 L12.4759437,6.17780282 C12.4759437,4.33216901 13.9774648,2.83064789 15.8230986,2.83064789 L23.880338,2.83064789 L23.880338,10.9906479 C23.880338,14.3972958 26.6508169,17.1677746 30.0561127,17.1677746 L38.2161127,17.1677746 L38.2161127,34.7472676 L38.2161127,34.7472676 Z" id="Shape"></path>
                <path d="M16.6647887,26.1951549 C16.6647887,25.4487887 16.0590423,24.8430423 15.3126761,24.8430423 C14.5663099,24.8430423 13.9605634,25.4487887 13.9605634,26.1951549 L13.9605634,31.043831 L9.11188732,31.043831 C8.36552113,31.043831 7.75977465,31.6495775 7.75977465,32.3959437 C7.75977465,33.1429859 8.36552113,33.7480563 9.11188732,33.7480563 L13.9605634,33.7480563 L13.9605634,38.5967324 C13.9605634,39.3437746 14.5663099,39.9488451 15.3126761,39.9488451 C16.0590423,39.9488451 16.6647887,39.3437746 16.6647887,38.5967324 L16.6647887,33.7480563 L21.5141408,33.7480563 C22.260507,33.7480563 22.8662535,33.1429859 22.8662535,32.3959437 C22.8662535,31.6495775 22.260507,31.043831 21.5141408,31.043831 L16.6647887,31.043831 L16.6647887,26.1951549 L16.6647887,26.1951549 Z" id="Shape"></path>
            </g>
        </g>
    </g>
</svg>