<?xml version="1.0" encoding="UTF-8" standalone="no"?>
<svg width="57px" height="55px" viewBox="0 0 57 55" version="1.1" xmlns="http://www.w3.org/2000/svg" xmlns:xlink="http://www.w3.org/1999/xlink" xmlns:sketch="http://www.bohemiancoding.com/sketch/ns">
    <!-- Generator: Sketch 3.4.2 (15857) - http://www.bohemiancoding.com/sketch -->
    <title>earth1</title>
    <desc>Created with Sketch.</desc>
    <defs></defs>
    <g id="Welcome" stroke="none" stroke-width="1" fill="none" fill-rule="evenodd" sketch:type="MSPage">
        <g id="iconsets" sketch:type="MSArtboardGroup" transform="translate(-144.000000, -741.000000)" fill="#000000">
            <g id="earth1" sketch:type="MSLayerGroup" transform="translate(144.000000, 741.000000)">
                <g id="Capa_1" sketch:type="MSShapeGroup">
                    <g id="Group">
                        <path d="M52.7834382,26.6177753 C52.7834382,13.8560449 42.4010449,3.47365169 29.6393146,3.47365169 C16.8775843,3.47365169 6.49531461,13.8560449 6.49531461,26.6177753 C6.49531461,39.3795056 16.8777079,49.7618989 29.6394382,49.7618989 C42.4011685,49.7618989 52.7834382,39.3795056 52.7834382,26.6177753 L52.7834382,26.6177753 Z M37.8251685,22.7863146 C37.0217978,23.8368764 37.5779775,25.3818202 36.2802247,26.185191 C34.9206742,27.0503596 33.3139326,26.185191 31.8925843,26.432382 C30.2240449,26.7413708 28.8439775,29.2544382 33.1311348,33.2507753 C35.1939438,35.1735506 40.0432135,37.1338989 39.7040674,43.2398876 C38.1514607,44.1835393 36.4564719,44.9144831 34.6600112,45.3952697 C34.7303371,44.4372809 34.8403371,43.4702697 34.6608764,42.662573 C34.3518876,41.179427 33.2395281,41.5502135 32.003573,41.7974045 C30.767618,41.9827978 29.5934607,42.1063933 28.4193034,41.7974045 C27.4305393,41.5502135 26.1945843,40.7468427 25.1440225,41.0558315 C23.9698652,41.3648202 24.2170562,42.415382 24.773236,43.2187528 C25.4416404,44.1935506 26.2604607,45.0304157 27.054809,45.8818652 C18.0448202,44.6794045 10.9668764,37.2813483 10.2611461,28.1255169 C11.969236,31.5257528 14.9346629,35.5851236 19.718427,36.9999213 C28.4937079,39.595427 21.448764,27.9156517 21.8813483,23.6516067 C22.317764,19.349618 32.0779775,23.4662135 33.0049438,19.9437416 C33.9319101,16.4212697 29.3897753,16.8847528 31.2746067,12.7752022 C32.6906404,9.68766292 31.560236,8.30944944 29.9669663,7.1858427 C39.5847978,7.34577528 47.5243258,14.5256854 48.8725056,23.8131461 C46.6015618,23.3725281 43.0108652,21.1397753 41.965618,21.0561011 C40.2970787,20.932382 38.8757303,21.3649663 37.8251685,22.7863146 L37.8251685,22.7863146 Z" id="Shape"></path>
                        <g id="Shape">
                            <path d="M55.5364045,0.109629213 L47.3889888,0.109629213 C47.1018764,0.109629213 46.8682809,0.343224719 46.8682809,0.630213483 L46.8682809,6.31708989 C46.8682809,6.60420225 47.1018764,6.83767416 47.3889888,6.83767416 L47.5838989,6.83767416 L46.6055169,10.1717865 C46.5751124,10.2754831 46.6156517,10.3870899 46.7056292,10.4470337 C46.7472809,10.4748427 46.7951124,10.4885618 46.8426966,10.4885618 C46.8979438,10.4885618 46.9529438,10.4700225 46.9981798,10.4335618 L51.4414382,6.83779775 L55.5364045,6.83779775 C55.8235169,6.83779775 56.0571124,6.60420225 56.0571124,6.31721348 L56.0571124,0.630213483 C56.0571124,0.343224719 55.8235169,0.109629213 55.5364045,0.109629213 L55.5364045,0.109629213 Z"></path>
                            <path d="M8.47321348,11.4725056 L8.6681236,11.4725056 C8.95523596,11.4725056 9.18883146,11.2389101 9.18883146,10.9519213 L9.18883146,5.26504494 C9.18883146,4.97805618 8.95523596,4.74446067 8.6681236,4.74446067 L0.520707865,4.74446067 C0.233595506,4.74446067 0,4.97805618 0,5.26504494 L0,10.9519213 C0,11.2390337 0.233595506,11.4725056 0.520707865,11.4725056 L4.61567416,11.4725056 L9.05893258,15.0682697 C9.10404494,15.1048539 9.15916854,15.1232697 9.21441573,15.1232697 C9.2621236,15.1232697 9.30995506,15.1095506 9.35148315,15.0817416 C9.44146067,15.0217978 9.482,14.910191 9.45159551,14.8064944 L8.47321348,11.4725056 L8.47321348,11.4725056 Z"></path>
                            <path d="M53.9296629,48.2305506 L49.8346966,48.2305506 L45.3914382,44.6347865 C45.3073933,44.5666854 45.1887416,44.5613708 45.0988876,44.6213146 C45.0089101,44.6812584 44.9683708,44.7928652 44.9987753,44.8965618 L45.9771573,48.2306742 L45.7822472,48.2306742 C45.4951348,48.2306742 45.2615393,48.4642697 45.2615393,48.7512584 L45.2615393,54.4381348 C45.2615393,54.7251236 45.4951348,54.9587191 45.7822472,54.9587191 L53.9296629,54.9587191 C54.2167753,54.9587191 54.4503708,54.7251236 54.4503708,54.4381348 L54.4503708,48.7512584 C54.4503708,48.4641461 54.2167753,48.2305506 53.9296629,48.2305506 L53.9296629,48.2305506 Z"></path>
                        </g>
                    </g>
                </g>
            </g>
        </g>
    </g>
</svg>