<?xml version="1.0" encoding="UTF-8" standalone="no"?>
<svg width="41px" height="48px" viewBox="0 0 41 48" version="1.1" xmlns="http://www.w3.org/2000/svg" xmlns:xlink="http://www.w3.org/1999/xlink" xmlns:sketch="http://www.bohemiancoding.com/sketch/ns">
    <!-- Generator: Sketch 3.4.1 (15681) - http://www.bohemiancoding.com/sketch -->
    <title>file30</title>
    <desc>Created with Sketch.</desc>
    <defs></defs>
    <g id="Page-1" stroke="none" stroke-width="1" fill="none" fill-rule="evenodd" sketch:type="MSPage">
        <g id="file30" sketch:type="MSLayerGroup" fill="#FFFFFF">
            <g id="Capa_1" sketch:type="MSShapeGroup">
                <path d="M35.4793663,0 L4.82114851,0 C2.17829703,0 0.0297029703,2.14716832 0.0297029703,4.78859406 L0.0297029703,43.1154059 C0.0297029703,45.7561188 2.17829703,47.9032871 4.82114851,47.9032871 L35.4793663,47.9032871 C38.121505,47.9032871 40.270099,45.7561188 40.270099,43.1154059 L40.270099,4.78859406 C40.2715248,2.14716832 38.1229307,0 35.4793663,0 L35.4793663,0 Z M35.4793663,45.9892277 L4.82114851,45.9892277 C3.23619802,45.9892277 1.94685149,44.6998812 1.94685149,43.1154059 L1.94685149,4.78859406 C1.94685149,3.20483168 3.23619802,1.91572277 4.82114851,1.91572277 L35.4793663,1.91572277 C37.0638416,1.91572277 38.3529505,3.20506931 38.3529505,4.78859406 L38.3529505,43.1154059 L38.3546139,43.1154059 C38.3543762,44.6998812 37.0650297,45.9892277 35.4793663,45.9892277 L35.4793663,45.9892277 Z M6.20649505,8.48982178 C6.20649505,8.00221782 6.59928713,7.608 7.08546535,7.608 L27.2894257,7.608 C27.775604,7.608 28.1691089,8.00221782 28.1691089,8.48982178 C28.1691089,8.976 27.775604,9.37021782 27.2894257,9.37021782 L7.08546535,9.37021782 C6.59928713,9.37021782 6.20649505,8.97742574 6.20649505,8.48982178 L6.20649505,8.48982178 Z M6.20649505,12.5006733 C6.20649505,12.014495 6.59928713,11.6200396 7.08546535,11.6200396 L27.2894257,11.6200396 C27.775604,11.6200396 28.1691089,12.0142574 28.1691089,12.5006733 C28.1691089,12.9868515 27.775604,13.3810693 27.2894257,13.3810693 L7.08546535,13.3810693 C6.59928713,13.3810693 6.20649505,12.9868515 6.20649505,12.5006733 L6.20649505,12.5006733 Z M6.20649505,16.5115248 C6.20649505,16.0253465 6.59928713,15.6311287 7.08546535,15.6311287 L27.2894257,15.6311287 C27.775604,15.6311287 28.1691089,16.0253465 28.1691089,16.5115248 C28.1691089,16.9991287 27.775604,17.3933465 27.2894257,17.3933465 L7.08546535,17.3933465 C6.59928713,17.3933465 6.20649505,17.0005545 6.20649505,16.5115248 L6.20649505,16.5115248 Z M18.0677228,20.5268911 C18.0677228,21.0130693 17.6749307,21.4072871 17.1887525,21.4072871 L7.08689109,21.4072871 C6.60071287,21.4072871 6.20649505,21.0130693 6.20649505,20.5268911 C6.20649505,20.0392871 6.60071287,19.6450693 7.08689109,19.6450693 L17.1887525,19.6450693 C17.6749307,19.6448317 18.0677228,20.0376238 18.0677228,20.5268911 L18.0677228,20.5268911 Z M15.0370693,28.4480792 C15.0370693,28.9328317 14.6449901,29.3277624 14.1588119,29.3277624 L7.08689109,29.3277624 C6.59928713,29.3277624 6.20649505,28.9328317 6.20649505,28.4480792 C6.20649505,27.9604752 6.59928713,27.5669703 7.08689109,27.5669703 L14.1588119,27.5669703 C14.6449901,27.5669703 15.0370693,27.9604752 15.0370693,28.4480792 L15.0370693,28.4480792 Z M34.6588515,23.9812277 C32.1759208,19.6840396 26.6587723,18.2081584 22.3582574,20.6868119 C18.0610693,23.1704554 16.5809109,28.6868911 19.0645545,32.979802 C21.5451089,37.2857822 27.0608317,38.7573861 31.3582574,36.2773069 C35.6616238,33.7972277 37.1403564,28.2788911 34.6588515,23.9812277 L34.6588515,23.9812277 Z M20.3581782,32.2374653 C18.2839604,28.6491089 19.5184158,24.048 23.1053465,21.9759208 C26.6908515,19.9074059 31.2919604,21.1418614 33.3671287,24.7280792 C35.4361188,28.3166733 34.2035644,32.9146931 30.6178218,34.9910495 C27.0261386,37.0643168 22.4281188,35.8260594 20.3581782,32.2374653 L20.3581782,32.2374653 Z M36.6021386,40.881505 L32.7345743,43.1182574 L29.752396,37.9630099 L33.6213861,35.7245941 L36.6021386,40.881505 L36.6021386,40.881505 Z M37.0072871,41.5877228 C37.626297,42.6584554 37.2589307,44.0257426 36.1898614,44.6421386 C35.1205545,45.2585347 33.7546931,44.8954455 33.1323564,43.8232871 L37.0072871,41.5877228 L37.0072871,41.5877228 Z" id="Shape"></path>
            </g>
        </g>
    </g>
</svg>