<?xml version="1.0" encoding="UTF-8" standalone="no"?>
<svg width="36px" height="48px" viewBox="0 0 36 48" version="1.1" xmlns="http://www.w3.org/2000/svg" xmlns:xlink="http://www.w3.org/1999/xlink" xmlns:sketch="http://www.bohemiancoding.com/sketch/ns">
    <!-- Generator: Sketch 3.3.3 (12072) - http://www.bohemiancoding.com/sketch -->
    <title>Filetypes</title>
    <desc>Created with Sketch.</desc>
    <defs></defs>
    <g id="Page-1" stroke="none" stroke-width="1" fill="none" fill-rule="evenodd" sketch:type="MSPage">
        <g id="Filetypes" sketch:type="MSLayerGroup" fill="#FFFFFF">
            <g id="Welcome" sketch:type="MSShapeGroup">
                <g id="Desktop-HD-Copy-7">
                    <g id="-+-File-types">
                        <path d="M24,4 L24,12 L32,12 L32,14 L22,14 L22,4 L24,4 L24,4 Z M26.625,0 L36,9.375 L36,42 L30,42 L30,48 L0,48 L0,6 L6,6 L6,0 L26.625,0 L26.625,0 Z M28,46 L28,42 L6,42 L6,8 L2,8 L2,46 L28,46 L28,46 Z M34,40 L34,10.25 L25.875,2 L8,2 L8,40 L34,40 L34,40 Z" id=""></path>
                    </g>
                </g>
            </g>
        </g>
    </g>
</svg>