<?xml version="1.0" encoding="UTF-8" standalone="no"?>
<svg width="36px" height="47px" viewBox="0 0 36 47" version="1.1" xmlns="http://www.w3.org/2000/svg" xmlns:xlink="http://www.w3.org/1999/xlink" xmlns:sketch="http://www.bohemiancoding.com/sketch/ns">
    <!-- Generator: Sketch 3.3.3 (12072) - http://www.bohemiancoding.com/sketch -->
    <title>files</title>
    <desc>Created with Sketch.</desc>
    <defs></defs>
    <g id="Page-1" stroke="none" stroke-width="1" fill="none" fill-rule="evenodd" sketch:type="MSPage">
        <g id="files" sketch:type="MSLayerGroup" transform="translate(0.500000, -0.108858)" fill="#FFFFFF">
            <g id="Page-1" sketch:type="MSShapeGroup">
                <path d="M29.7459512,31.7549268 L5.44741463,31.7549268 C4.96390244,31.7549268 4.56936585,32.1482927 4.56936585,32.6329756 C4.56936585,33.1176585 4.96390244,33.5110244 5.44741463,33.5110244 L29.7459512,33.5110244 C30.2318049,33.5110244 30.624,33.1176585 30.624,32.6329756 C30.624,32.1482927 30.2318049,31.7549268 29.7459512,31.7549268 L29.7459512,31.7549268 L29.7459512,31.7549268 Z M25.3510244,14.9572683 L34.2474146,14.9572683 C34.254439,14.9560976 34.2626341,14.9560976 34.2696585,14.9572683 C34.7543415,14.9572683 35.1477073,14.5639024 35.1477073,14.0792195 C35.1477073,13.7783415 34.9955122,13.5114146 34.7637073,13.3533659 L22.2626341,0.66497561 C22.0132683,0.412097561 21.635122,0.337170732 21.3038049,0.468292683 C20.9748293,0.605268293 20.7594146,0.924878049 20.7594146,1.28195122 L20.7594146,10.3656585 C20.7594146,12.8979512 22.8187317,14.9572683 25.3510244,14.9572683 L25.3510244,14.9572683 L25.3510244,14.9572683 Z M22.5155122,3.42439024 L32.1494634,13.2011707 L25.3510244,13.2011707 C23.7869268,13.2011707 22.5155122,11.9285854 22.5155122,10.3656585 L22.5155122,3.42439024 L22.5155122,3.42439024 Z M29.7459512,37.7291707 L5.44741463,37.7291707 C4.96390244,37.7291707 4.56936585,38.1225366 4.56936585,38.6072195 C4.56936585,39.0930732 4.96390244,39.4852683 5.44741463,39.4852683 L29.7459512,39.4852683 C30.2318049,39.4852683 30.624,39.0930732 30.624,38.6072195 C30.624,38.1225366 30.2318049,37.7291707 29.7459512,37.7291707 L29.7459512,37.7291707 L29.7459512,37.7291707 Z M5.44741463,9.60702439 L16.6044878,9.60702439 C17.088,9.60702439 17.4813659,9.21365854 17.4813659,8.72897561 C17.4813659,8.24429268 17.088,7.85092683 16.6044878,7.85092683 L5.44741463,7.85092683 C4.96390244,7.85092683 4.56936585,8.24429268 4.56936585,8.72897561 C4.56936585,9.21365854 4.96390244,9.60702439 5.44741463,9.60702439 L5.44741463,9.60702439 L5.44741463,9.60702439 Z M34.2474146,15.3763902 C33.761561,15.3763902 33.3681951,15.7697561 33.3681951,16.254439 L33.3681951,42.0327805 C33.3681951,43.7537561 31.9691707,45.1539512 30.2481951,45.1539512 L4.94517073,45.1539512 C3.22653659,45.1539512 1.8275122,43.7537561 1.8275122,42.0327805 L1.82985366,5.19219512 C1.88253659,3.49112195 3.25112195,2.16 4.94517073,2.16 L19.470439,2.16 C19.955122,2.16 20.3484878,1.76663415 20.3484878,1.28195122 C20.3484878,0.797268293 19.955122,0.403902439 19.470439,0.403902439 L4.94517073,0.403902439 C2.29580488,0.403902439 0.156878049,2.48312195 0.0749268293,5.16409756 L0.0714146341,42.0327805 C0.0714146341,44.7219512 2.25834146,46.9100488 4.94517073,46.9100488 L30.2481951,46.9100488 C32.9373659,46.9100488 35.1242927,44.7219512 35.1242927,42.0327805 L35.1242927,16.254439 C35.1242927,15.7697561 34.7309268,15.3763902 34.2474146,15.3763902 L34.2474146,15.3763902 L34.2474146,15.3763902 Z M5.44741463,15.582439 L16.6044878,15.582439 C17.088,15.582439 17.4813659,15.1890732 17.4813659,14.7043902 C17.4813659,14.2185366 17.088,13.8263415 16.6044878,13.8263415 L5.44741463,13.8263415 C4.96390244,13.8263415 4.56936585,14.2185366 4.56936585,14.7043902 C4.56936585,15.1890732 4.96390244,15.582439 5.44741463,15.582439 L5.44741463,15.582439 L5.44741463,15.582439 Z M29.7459512,19.8029268 L5.44741463,19.8029268 C4.96390244,19.8029268 4.56936585,20.1962927 4.56936585,20.6809756 C4.56936585,21.1656585 4.96390244,21.5590244 5.44741463,21.5590244 L29.7459512,21.5590244 C30.2318049,21.5590244 30.624,21.1656585 30.624,20.6809756 C30.624,20.1962927 30.2318049,19.8029268 29.7459512,19.8029268 L29.7459512,19.8029268 L29.7459512,19.8029268 Z M29.7459512,25.7783415 L5.44741463,25.7783415 C4.96390244,25.7783415 4.56936585,26.1705366 4.56936585,26.6563902 C4.56936585,27.1410732 4.96390244,27.534439 5.44741463,27.534439 L29.7459512,27.534439 C30.2318049,27.534439 30.624,27.1410732 30.624,26.6563902 C30.624,26.1705366 30.2318049,25.7783415 29.7459512,25.7783415 L29.7459512,25.7783415 L29.7459512,25.7783415 Z" id="Fill-73"></path>
            </g>
        </g>
    </g>
</svg>