<?xml version="1.0" encoding="UTF-8" standalone="no"?>
<svg width="38px" height="49px" viewBox="0 0 38 49" version="1.1" xmlns="http://www.w3.org/2000/svg" xmlns:xlink="http://www.w3.org/1999/xlink" xmlns:sketch="http://www.bohemiancoding.com/sketch/ns">
    <!-- Generator: Sketch 3.4.1 (15681) - http://www.bohemiancoding.com/sketch -->
    <title>Fill 6</title>
    <desc>Created with Sketch.</desc>
    <defs></defs>
    <g id="Page-1" stroke="none" stroke-width="1" fill="none" fill-rule="evenodd" sketch:type="MSPage">
        <path d="M10.6166667,2.67948333 L10.6166667,11.4333333 L2.63375,11.4333333 L10.6166667,2.67948333 L10.6166667,2.67948333 Z M19.6,47.3666667 L1.63333333,47.3666667 L1.63333333,13.0666667 L11.4333333,13.0666667 C11.8841333,13.0666667 12.25,12.7008 12.25,12.25 L12.25,1.63333333 L34.3,1.63333333 L34.3,31.0333333 C34.3,31.4833167 34.6675,31.85 35.1166667,31.85 C35.5674667,31.85 35.9333333,31.4833167 35.9333333,31.0333333 L35.9333333,0.816666667 C35.9333333,0.365866667 35.5674667,0 35.1166667,0 L11.2112,0 C10.9792667,0 10.7620333,0.0963666667 10.60605,0.266233333 L0.212333333,11.6636333 C0.0751333333,11.8139 0,12.0099 0,12.2140667 L0,48.1833333 C0,48.6333167 0.3675,49 0.816666667,49 L19.6,49 C20.0508,49 20.4166667,48.6333167 20.4166667,48.1833333 C20.4166667,47.73335 20.0508,47.3666667 19.6,47.3666667 L19.6,47.3666667 Z M28.78015,38.6218 C26.92795,40.48135 23.70375,40.48135 21.85155,38.6218 C20.9262667,37.6916167 20.41585,36.4568167 20.41585,35.14035 C20.41585,33.8255167 20.9262667,32.5890833 21.85155,31.6605333 C22.7768333,30.73035 24.0083667,30.2166667 25.3166667,30.2166667 C26.6249667,30.2166667 27.8548667,30.73035 28.78015,31.6589 C29.70625,32.5890833 30.21585,33.8238833 30.21585,35.14035 C30.21585,36.4568167 29.70625,37.6940667 28.78015,38.6218 L28.78015,38.6218 Z M37.3265667,46.7909167 L30.0966167,39.56015 C31.2244333,38.34985 31.8491833,36.7826667 31.8491833,35.1166667 C31.8491833,33.3747167 31.1697167,31.7307667 29.93655,30.5008667 C28.7025667,29.2636167 27.0610667,28.5833333 25.3166667,28.5833333 C23.57145,28.5833333 21.9307667,29.2636167 20.6967833,30.5008667 C19.4611667,31.7324 18.7825167,33.3747167 18.7825167,35.1166667 C18.7825167,36.8627 19.4611667,38.5025667 20.6967833,39.73655 C21.92995,40.9705333 23.5698167,41.65 25.3150333,41.65 C26.5841333,41.65 27.7968833,41.2865833 28.8414,40.6144667 L36.1718,47.9456833 C36.3318667,48.1033 36.5409333,48.1833333 36.75,48.1833333 C36.9615167,48.1833333 37.1705833,48.1033 37.3265667,47.9456833 C37.6458833,47.6263667 37.6458833,47.1069667 37.3265667,46.7909167 L37.3265667,46.7909167 Z" id="Fill-6" fill="#FFFFFF" sketch:type="MSShapeGroup"></path>
    </g>
</svg>