<?xml version="1.0" encoding="UTF-8" standalone="no"?>
<svg width="56px" height="61px" viewBox="0 0 56 61" version="1.1" xmlns="http://www.w3.org/2000/svg" xmlns:xlink="http://www.w3.org/1999/xlink" xmlns:sketch="http://www.bohemiancoding.com/sketch/ns">
    <!-- Generator: Sketch 3.3.3 (12072) - http://www.bohemiancoding.com/sketch -->
    <title>finger</title>
    <desc>Created with Sketch.</desc>
    <defs></defs>
    <g id="Page-1" stroke="none" stroke-width="1" fill="none" fill-rule="evenodd" sketch:type="MSPage">
        <g id="finger" sketch:type="MSLayerGroup" transform="translate(-1.000000, 0.891142)" fill="#FFFFFF">
            <g id="Page-1" sketch:type="MSShapeGroup">
                <path d="M39.004,31 L38.998,31 C38.446,31 38.001,31.507 38.004,32.06 C38.061,42.033 35.669,50.536 30.687,57.943 C30.38,58.4 30.501,59.021 30.96,59.33 C31.131,59.445 31.325,59.5 31.517,59.5 C31.839,59.5 32.154,59.318 32.348,59.031 C37.487,51.389 40.063,42.292 40.004,32.048 C40.001,31.498 39.554,31 39.004,31 L39.004,31 L39.004,31 Z M32.485,43.123 C31.961,42.984 31.404,43.301 31.264,43.835 C29.914,48.953 27.526,53.636 24.167,57.753 C23.817,58.181 23.881,58.811 24.31,59.16 C24.495,59.312 24.719,59.385 24.94,59.385 C25.23,59.385 25.519,59.26 25.716,59.018 C29.258,54.678 31.774,49.742 33.197,44.345 C33.338,43.811 33.019,43.264 32.485,43.123 L32.485,43.123 L32.485,43.123 Z M45.29,28.818 L45.279,28.506 C45.268,28.188 45.258,27.912 45.258,27.678 C45.258,18.319 37.438,10.705 27.826,10.705 C25.201,10.705 22.556,11.328 20.176,12.506 C19.681,12.752 19.477,13.352 19.723,13.846 C19.969,14.341 20.566,14.547 21.062,14.299 C23.168,13.256 25.507,12.705 27.826,12.705 C36.335,12.705 43.258,19.422 43.258,27.678 C43.258,27.933 43.269,28.234 43.28,28.578 L43.292,28.9 C43.479,33.993 43.869,44.59 38.114,55.918 C37.864,56.41 38.06,57.012 38.553,57.262 C38.698,57.335 38.852,57.37 39.005,57.37 C39.369,57.37 39.721,57.17 39.897,56.823 C45.887,45.033 45.469,33.677 45.29,28.818 L45.29,28.818 L45.29,28.818 Z M21.225,50.586 C19.739,52.301 17.891,53.824 15.729,55.113 C15.256,55.397 15.101,56.011 15.384,56.485 C15.57,56.799 15.902,56.973 16.243,56.973 C16.418,56.973 16.594,56.927 16.755,56.831 C19.1,55.432 21.112,53.771 22.736,51.895 C23.098,51.478 23.053,50.846 22.635,50.484 C22.22,50.123 21.586,50.168 21.225,50.586 L21.225,50.586 L21.225,50.586 Z M56.022,28.412 L55.998,27.678 C55.998,12.416 43.36,0 27.826,0 C19.237,0 10.891,4.146 5.501,11.092 C5.162,11.527 5.241,12.156 5.678,12.495 C6.115,12.834 6.742,12.754 7.081,12.318 C12.095,5.857 19.851,2 27.826,2 C42.258,2 53.998,13.519 53.999,27.711 L54.024,28.502 C54.157,32.12 54.379,38.176 52.964,45.502 C52.858,46.044 53.213,46.568 53.756,46.673 C53.819,46.686 53.884,46.691 53.946,46.691 C54.416,46.691 54.835,46.359 54.927,45.881 C56.386,38.331 56.159,32.132 56.022,28.412 L56.022,28.412 L56.022,28.412 Z M50.651,28.287 C50.642,28.057 50.633,27.853 50.633,27.679 C50.633,20.835 47.48,14.459 41.982,10.186 C41.548,9.844 40.917,9.926 40.58,10.361 C40.24,10.797 40.319,11.426 40.756,11.764 C45.762,15.655 48.633,21.456 48.633,27.679 C48.633,27.877 48.642,28.109 48.652,28.37 L48.667,28.725 C48.831,33.212 49.174,42.551 45.34,52.883 C45.147,53.4 45.412,53.977 45.93,54.168 C46.044,54.211 46.162,54.23 46.277,54.23 C46.684,54.23 47.065,53.981 47.215,53.578 C51.187,42.874 50.835,33.268 50.663,28.598 L50.651,28.287 L50.651,28.287 Z M28,29.072 C27.447,29.072 27,29.52 27,30.072 L27,34.215 C27,39.104 26.292,43.02 24.469,46.536 C24.215,47.027 24.548,47.63 25.038,47.885 C25.185,47.96 25.342,47.996 25.497,47.996 C25.858,47.996 26.066,47.801 26.244,47.456 C28.193,43.695 29,39.365 29,34.215 L29,30.072 C29,29.52 28.553,29.072 28,29.072 L28,29.072 L28,29.072 Z M16.232,15.162 C12.523,18.455 10.396,23.077 10.396,27.844 C10.396,28.396 10.844,28.844 11.396,28.844 C11.949,28.844 12.396,28.396 12.396,27.844 C12.396,23.648 14.278,19.571 17.56,16.658 C17.974,16.291 18.011,15.66 17.644,15.246 C17.276,14.832 16.644,14.796 16.232,15.162 L16.232,15.162 L16.232,15.162 Z M35.908,8.957 C36.415,9.169 36.985,8.927 37.197,8.416 C37.409,7.906 37.131,7.321 36.621,7.109 C33.777,5.93 30.849,5.355 27.816,5.355 C15.525,5.355 5,15.654 5,27.844 L5,33.153 C5,34.787 3.66,36.168 1.949,36.168 C1.396,36.168 1.055,36.615 1.055,37.168 C1.055,37.721 1.432,38.168 1.984,38.168 C4.78,38.168 7,35.871 7,33.153 L7,27.844 C7,16.738 16.601,7.355 27.808,7.355 C30.572,7.355 33.311,7.879 35.908,8.957 L35.908,8.957 L35.908,8.957 Z M2,33.072 C2.553,33.072 3,32.625 3,32.072 L3,27.844 C3,23.738 4.163,19.247 5.934,15.829 C6.188,15.339 6.102,14.735 5.612,14.481 C5.116,14.227 4.445,14.418 4.193,14.91 C2.254,18.653 1,23.368 1,27.844 L1,32.072 C1,32.625 1.447,33.072 2,33.072 L2,33.072 L2,33.072 Z M17,33.153 L17,27.844 C17,22.63 21.946,18.057 27.435,18.057 C32.983,18.057 37.63,22.373 37.63,27.678 C37.63,28.23 38.06,28.678 38.612,28.678 C39.165,28.678 39.577,28.23 39.577,27.678 C39.577,21.27 34.095,16.057 27.443,16.057 C20.775,16.057 15,21.454 15,27.844 L15,33.153 C15,40.293 12.169,44.205 5.201,46.235 C4.671,46.39 4.508,46.943 4.662,47.475 C4.789,47.912 5.188,48.195 5.622,48.195 C5.714,48.195 5.667,48.183 5.76,48.155 C13.632,45.861 17,41.235 17,33.153 L17,33.153 L17,33.153 Z M12.396,33.153 C12.396,32.602 11.949,32.153 11.396,32.153 C10.844,32.153 10.396,32.602 10.396,33.153 C10.396,37.831 8.919,39.688 4.071,41.099 L1.72,41.783 C1.19,41.938 0.886,42.494 1.04,43.024 C1.167,43.461 1.566,43.744 2,43.744 C2.092,43.744 2.186,43.731 2.28,43.704 L4.631,43.019 C10.292,41.371 12.396,38.697 12.396,33.153 L12.396,33.153 L12.396,33.153 Z M25,33.153 L25,27.844 C25,25.637 26.26,23.41 28.759,23.41 C31.127,23.41 33.054,25.245 33.054,27.678 C33.054,28.199 33.114,28.869 33.189,29.665 C33.317,31.024 33.475,32.715 33.399,34.684 C33.377,35.235 33.803,35.699 34.354,35.722 C34.918,35.783 35.363,35.313 35.384,34.762 C35.466,32.66 35.274,30.82 35.148,29.478 C35.079,28.756 34.984,28.15 34.984,27.678 C34.984,24.104 32.268,21.41 28.76,21.41 C25.452,21.41 23,24.056 23,27.844 L23,33.153 C23,37.927 21.42,46.563 9.887,50.764 C9.367,50.952 9.241,51.527 9.431,52.045 C9.578,52.451 9.962,52.703 10.37,52.703 C10.483,52.703 10.458,52.684 10.57,52.643 C19.831,49.27 25,42.166 25,33.153 L25,33.153 L25,33.153 Z" id="Fill-51"></path>
            </g>
        </g>
    </g>
</svg>