<?xml version="1.0" encoding="UTF-8" standalone="no"?>
<svg width="57px" height="55px" viewBox="0 0 57 55" version="1.1" xmlns="http://www.w3.org/2000/svg" xmlns:xlink="http://www.w3.org/1999/xlink" xmlns:sketch="http://www.bohemiancoding.com/sketch/ns">
    <!-- Generator: Sketch 3.4.2 (15857) - http://www.bohemiancoding.com/sketch -->
    <title>folder275</title>
    <desc>Created with Sketch.</desc>
    <defs></defs>
    <g id="Welcome" stroke="none" stroke-width="1" fill="none" fill-rule="evenodd" sketch:type="MSPage">
        <g id="iconsets" sketch:type="MSArtboardGroup" transform="translate(-600.000000, -1077.000000)" fill="#000000">
            <g id="folder275" sketch:type="MSLayerGroup" transform="translate(600.002940, 1077.000000)">
                <g id="Capa_1" sketch:type="MSShapeGroup">
                    <g id="Group">
                        <path d="M19.9308668,13.9239824 C20.6956156,13.7114447 21.5736809,13.5753266 22.5815075,13.5753266 L29.4976884,13.5753266 C33.5639573,13.5753266 36.8722487,16.8833417 36.8722487,20.9500251 L36.8722487,23.7279397 C37.1885678,23.9625879 37.4798744,24.2320603 37.739397,24.5331784 C38.7716834,25.7299121 39.2304774,27.3120603 38.9988693,28.8744472 L38.4686307,32.453593 L41.9601633,32.453593 L41.9601633,45.5477387 C41.9601633,46.5399497 42.7644347,47.3442211 43.7566457,47.3442211 L54.6988819,47.3442211 C55.691093,47.3442211 56.4953643,46.5399497 56.4953643,45.5477387 C56.4953643,44.5555276 55.691093,43.7512563 54.6988819,43.7512563 L45.5531281,43.7512563 L45.5531281,32.453593 L50.3290075,32.453593 C51.4747487,32.453593 52.4476131,31.6142211 52.6156533,30.4807789 L55.3895603,11.7572864 C55.4883668,11.0924497 55.2922739,10.4175251 54.8532412,9.90829146 C54.4419849,9.43153266 53.8546734,9.14451005 53.2293593,9.11037688 L53.2293593,4.28958543 C53.2293593,1.94116834 51.318593,0.030540201 48.9701759,0.030540201 L42.0542714,0.030540201 C39.7531156,0.030540201 38.5309548,1.00229899 37.6389322,1.71204774 C36.9215829,2.2825 36.488907,2.62673367 35.5602638,2.62673367 L25.5658794,2.62673367 C23.4729774,2.62673367 21.7703266,4.28599246 21.7703266,6.32582915 L21.7703266,9.11023869 C21.1451508,9.14437186 20.5579774,9.43139447 20.1465829,9.90815327 C19.7074121,10.4173869 19.5115955,11.0923116 19.6099874,11.7571482 L19.9308668,13.9239824 L19.9308668,13.9239824 Z M24.5534925,6.32569095 C24.5534925,5.75247487 25.0682538,5.40976131 25.5657412,5.40976131 L35.5601256,5.40976131 C37.4606658,5.40976131 38.5198995,4.56721106 39.371294,3.89007538 C40.1570477,3.26531407 40.7248744,2.81370603 42.0541332,2.81370603 L48.9700377,2.81370603 C49.7839824,2.81370603 50.4461935,3.47577889 50.4461935,4.28958543 L50.4461935,9.10664573 L24.5534925,9.10664573 L24.5534925,6.32569095 L24.5534925,6.32569095 Z" id="Shape"></path>
                        <path d="M54.6987437,51.3517588 L19.8494724,51.3517588 L19.8494724,48.6653266 L30.8819472,48.6653266 C32.0282412,48.6653266 33.0009673,47.8259548 33.1688693,46.6925126 L35.9429146,27.9691583 C36.0414447,27.3040452 35.8456281,26.6291206 35.4064573,26.1200251 C34.9947864,25.6432663 34.4080276,25.3563819 33.7828518,25.3219724 L33.7828518,20.5014573 C33.7828518,18.1530402 31.8720854,16.2424121 29.5236683,16.2424121 L22.6076256,16.2424121 C20.3060553,16.2424121 19.0844472,17.2141709 18.1921482,17.9237814 C17.474799,18.4940955 17.0421231,18.8386055 16.1134799,18.8386055 L6.11895729,18.8386055 C4.02591709,18.8386055 2.32326633,20.4977261 2.32326633,22.5374246 L2.32326633,25.3219724 C1.69822864,25.3563819 1.11105528,25.6432663 0.699660804,26.1200251 C0.26048995,26.6291206 0.0645351759,27.303907 0.163065327,27.9691583 L2.93711055,46.6923744 C3.10501256,47.8259548 4.07787688,48.6653266 5.22375628,48.6653266 L16.2563693,48.6653266 L16.2563693,53.1482412 C16.2563693,54.1404523 17.0606407,54.9447236 18.0528518,54.9447236 L54.6987437,54.9447236 C55.6909548,54.9447236 56.4952261,54.1404523 56.4952261,53.1482412 C56.4952261,52.1560302 55.6909548,51.3517588 54.6987437,51.3517588 L54.6987437,51.3517588 Z M5.10657035,25.3185176 L5.10657035,22.5371482 C5.10657035,21.9639322 5.62133166,21.621495 6.11895729,21.621495 L16.1133417,21.621495 C18.0138819,21.621495 19.0732538,20.7789447 19.9245101,20.101809 C20.7099874,19.4767714 21.2778141,19.0254397 22.6074874,19.0254397 L29.5235302,19.0254397 C30.3369221,19.0254397 30.9992714,19.6872362 30.9992714,20.5013191 L30.9992714,25.3185176 L5.10657035,25.3185176 L5.10657035,25.3185176 Z" id="Shape"></path>
                    </g>
                </g>
            </g>
        </g>
    </g>
</svg>