<?xml version="1.0" encoding="UTF-8" standalone="no"?>
<svg width="77px" height="55px" viewBox="0 0 77 55" version="1.1" xmlns="http://www.w3.org/2000/svg" xmlns:xlink="http://www.w3.org/1999/xlink" xmlns:sketch="http://www.bohemiancoding.com/sketch/ns">
    <!-- Generator: Sketch 3.4.2 (15857) - http://www.bohemiancoding.com/sketch -->
    <title>gear47</title>
    <desc>Created with Sketch.</desc>
    <defs></defs>
    <g id="Welcome" stroke="none" stroke-width="1" fill="none" fill-rule="evenodd" sketch:type="MSPage">
        <g id="iconsets" sketch:type="MSArtboardGroup" transform="translate(-502.000000, -1077.000000)" fill="#010002">
            <g id="gear47" sketch:type="MSLayerGroup" transform="translate(502.000000, 1077.000000)">
                <g id="Capa_1" sketch:type="MSShapeGroup">
                    <g id="Group">
                        <g id="Shape">
                            <path d="M45.3320028,25.203826 L49.4287431,21.1169613 L45.2501105,16.9416713 L41.1632459,21.0382597 C39.4492818,19.8715608 37.4926796,19.062058 35.3885497,18.6522928 L35.3885497,12.8611878 L29.495953,12.8611878 L29.495953,18.6554834 C27.3852901,19.0619061 25.4385635,19.8680663 23.7311326,21.0381077 L19.6345442,16.9415193 L15.4657873,21.1168094 L19.5493094,25.203674 C18.3990193,26.9177901 17.5895166,28.861174 17.1797514,30.9783702 L11.3789227,30.9783702 L11.3789227,36.8677762 L17.1797514,36.8677762 C17.5893646,38.9717541 18.3956768,40.9184807 19.5493094,42.6325967 L15.4657873,46.7291851 L19.6312017,50.897942 L23.7277901,46.8078867 C25.435221,47.9680525 27.3852901,48.7775552 29.495953,49.1871685 L29.495953,54.9848066 L35.3918923,54.9848066 L35.3918923,49.1871685 C37.4958702,48.7840884 39.4459392,47.9777762 41.1665884,46.8144199 L45.253453,50.897942 L49.4320856,46.7291851 L45.3354972,42.6325967 C46.495663,40.9251657 47.3085083,38.9717541 47.7017127,36.8677762 L53.5090746,36.8677762 L53.5090746,30.9783702 L47.6983702,30.9783702 C47.3016713,28.861326 46.495511,26.917942 45.3320028,25.203826 L45.3320028,25.203826 Z M32.4390608,40.3614917 C28.8897376,40.3614917 26.0089227,37.4676105 26.0089227,33.9117541 C26.0089227,30.3656215 28.8897376,27.4784254 32.4390608,27.4784254 C35.9982597,27.4784254 38.8822652,30.3657735 38.8822652,33.9117541 C38.8854558,37.4676105 36.0014503,40.3614917 32.4390608,40.3614917 L32.4390608,40.3614917 Z"></path>
                            <path d="M51.0608149,5.37267956 C45.8924862,2.06584254 39.7801934,0.115773481 33.1961464,0.115773481 C14.8626105,0.115925414 0,14.9753453 0,33.3087293 C0,40.9710497 2.62191989,47.994489 6.97421271,53.6183149 L11.1429696,49.4529006 C7.82625691,44.9269475 5.80751381,39.391547 5.80751381,33.3350138 C5.80751381,18.2101657 18.0679558,5.95625691 33.1928039,5.95625691 C38.2234807,5.95625691 42.8641436,7.40813536 46.9181906,9.80063536 L43.7195304,13.209116 L56.7206492,14.3888812 L55.3245304,0.814212707 L51.0608149,5.37267956 L51.0608149,5.37267956 Z"></path>
                            <path d="M76.3716022,34.0067127 L68.2275,25.865953 L68.2275,30.4247238 L57.5073619,30.4247238 L57.5073619,37.5888536 L68.2275,37.5888536 L68.2275,42.1575 L76.3716022,34.0067127 Z"></path>
                        </g>
                    </g>
                </g>
            </g>
        </g>
    </g>
</svg>