<?xml version="1.0" encoding="UTF-8" standalone="no"?>
<svg width="54px" height="55px" viewBox="0 0 54 55" version="1.1" xmlns="http://www.w3.org/2000/svg" xmlns:xlink="http://www.w3.org/1999/xlink" xmlns:sketch="http://www.bohemiancoding.com/sketch/ns">
    <!-- Generator: Sketch 3.4.2 (15857) - http://www.bohemiancoding.com/sketch -->
    <title>button27</title>
    <desc>Created with Sketch.</desc>
    <defs></defs>
    <g id="Welcome" stroke="none" stroke-width="1" fill="none" fill-rule="evenodd" sketch:type="MSPage">
        <g id="iconsets" sketch:type="MSArtboardGroup" transform="translate(-143.000000, -640.000000)" fill="#010002">
            <g id="button27" sketch:type="MSLayerGroup" transform="translate(143.000000, 640.000000)">
                <g id="Capa_1" sketch:type="MSShapeGroup">
                    <g id="Group">
                        <g id="Shape">
                            <path d="M11.5877051,27.2801074 C11.5877051,35.7933984 18.5137305,42.7264062 27.0340039,42.7264062 C35.5472949,42.7264062 42.4803027,35.7980176 42.4803027,27.2801074 C42.4803027,18.7644531 35.5496582,11.8361719 27.0340039,11.8361719 C18.5159863,11.8361719 11.5877051,18.7668164 11.5877051,27.2801074 L11.5877051,27.2801074 Z M18.0989746,37.4431836 C19.1973633,38.0363672 20.515752,38.3097559 21.7022266,38.1406738 C24.18625,37.7884375 19.8160059,35.7725586 21.9431738,34.7135937 C24.0727051,33.6476465 24.3090332,30.8091309 23.5976855,31.045459 C22.8885937,31.2864062 21.1136621,30.5728027 19.8160059,29.632002 C18.5137305,28.6819629 18.0364551,29.8706934 17.0956543,30.3410937 C16.1479785,30.81375 15.7933789,34.4772656 15.7933789,34.4772656 C15.823457,34.6857715 15.8976855,34.8781641 15.9648242,35.0728125 C14.7436523,33.346543 13.9233789,31.3235742 13.622168,29.1338867 C14.7692187,28.536084 16.6414746,27.5257812 17.3157617,26.9650391 C18.3120996,26.1355273 16.9821094,25.8041309 16.8175391,25.3059082 C16.655332,24.8100488 16.8175391,23.6491406 16.8175391,22.4928516 C16.8175391,21.3319434 19.1393555,21.3319434 19.9619922,20.1733984 C20.5529199,19.3485059 19.4683887,17.5249121 18.7918457,16.5400684 C21.0788574,14.7813574 23.9313379,13.7223926 27.0340039,13.7223926 C27.8542773,13.7223926 28.6537109,13.8081152 29.4345605,13.9494824 C29.6686328,15.3769043 30.1459082,17.3441211 31.0658691,17.8562012 C32.5604297,18.6810937 34.370166,20.5070508 35.0352148,20.836084 C35.7025195,21.1651172 36.5275195,23.9874121 36.3605859,25.1437012 C36.1937598,26.3022461 34.2055957,27.6277246 34.7084375,28.7886328 C35.1996777,29.9471777 34.377041,31.2772754 34.377041,31.2772754 C34.377041,31.2772754 33.5497852,35.0820508 33.0469434,35.5802734 C32.5557031,36.0761328 29.5712012,37.4016113 30.23625,38.2265039 C30.8920605,39.0583789 32.8847363,38.0666602 34.8729004,37.5660742 C35.3617773,37.443291 35.8507617,37.2926855 36.3187988,37.1211328 C33.8904199,39.4105078 30.6278027,40.828584 27.0315332,40.828584 C23.6091797,40.828584 20.4879297,39.5448926 18.0989746,37.4431836 L18.0989746,37.4431836 Z M40.413291,29.3191895 C40.1236816,28.1466797 39.5698145,27.0135937 38.3533691,26.1422949 C37.5330957,25.5560937 36.8588086,22.9955859 37.3616504,22.1637109 C37.6606055,21.6654883 38.4390918,21.2298926 39.0114355,20.961123 C40.0101367,22.8495996 40.5824805,24.9999707 40.5824805,27.2801074 C40.5824805,27.9752344 40.5152344,28.6518848 40.413291,29.3191895 L40.413291,29.3191895 Z"></path>
                            <path d="M20.5666699,23.9688281 C19.8507031,27.2801074 22.3369824,24.3256836 22.8143652,23.7325 C23.2870215,23.1369531 23.523457,20.3008008 22.691582,19.4711816 C21.8689453,18.6440332 20.5666699,23.9688281 20.5666699,23.9688281 L20.5666699,23.9688281 Z"></path>
                            <path d="M49.665752,12.5822168 L45.992998,15.6756445 C48.3680957,19.5777441 49.6309473,24.2190137 49.2115723,29.1267969 C48.1572266,41.4008203 37.3569238,50.5004199 25.082793,49.4506934 C22.5454883,49.2282227 20.1680273,48.5493164 17.9667383,47.5644727 L20.7381152,44.1281543 L10.1068945,43.9543457 L12.057998,54.8983789 L14.8826562,51.3948145 C17.8555566,52.8963574 21.1506152,53.8788379 24.6750195,54.1824121 C39.5512305,55.4591211 52.6456348,44.4294727 53.9223437,29.5508984 C54.4461328,23.3269824 52.8078418,17.4344629 49.665752,12.5822168 L49.665752,12.5822168 Z"></path>
                            <path d="M27.0548438,4.75255859 C31.1585742,4.75255859 34.9679688,5.90422852 38.2652832,7.85060547 L35.6306543,10.6612988 L46.217832,11.6205762 L45.0847461,0.565361328 L41.6066406,4.27979492 C37.4055859,1.58264648 32.4214258,0 27.0594629,0 C12.1276074,0 0.0203027344,12.1049414 0.0203027344,27.0367969 C0.0203027344,33.2746777 2.15445313,39.0003711 5.70431641,43.5791211 L9.09669922,40.1867383 C6.39493164,36.4931445 4.7496582,31.9816406 4.7496582,27.0552734 C4.7496582,14.7349512 14.7366699,4.75255859 27.0548438,4.75255859 L27.0548438,4.75255859 Z"></path>
                        </g>
                    </g>
                </g>
            </g>
        </g>
    </g>
</svg>