<?xml version="1.0" encoding="UTF-8" standalone="no"?>
<svg width="20px" height="20px" viewBox="0 0 20 20" version="1.1" xmlns="http://www.w3.org/2000/svg" xmlns:xlink="http://www.w3.org/1999/xlink" xmlns:sketch="http://www.bohemiancoding.com/sketch/ns">
    <!-- Generator: Sketch 3.3.3 (12072) - http://www.bohemiancoding.com/sketch -->
    <title>ios-world-outline - Ionicons</title>
    <desc>Created with Sketch.</desc>
    <defs></defs>
    <g id="Welcome" stroke="none" stroke-width="1" fill="none" fill-rule="evenodd" sketch:type="MSPage">
        <g id="Desktop-HD-Copy-5" sketch:type="MSArtboardGroup" transform="translate(-16.000000, -786.000000)" fill="#FFFFFF">
            <path d="M25.75,786.25 C28.4375134,786.25 30.7343655,787.203115 32.640625,789.109375 C34.5468845,791.015635 35.5,793.312487 35.5,796 C35.5,798.687513 34.5468845,800.984365 32.640625,802.890625 C30.7343655,804.796885 28.4375134,805.75 25.75,805.75 C23.0624866,805.75 20.7656345,804.796885 18.859375,802.890625 C16.9531155,800.984365 16,798.687513 16,796 C16,793.312487 16.9531155,791.015635 18.859375,789.109375 C20.7656345,787.203115 23.0624866,786.25 25.75,786.25 L25.75,786.25 Z M26.125,792.0625 L26.125,795.625 L29.640625,795.625 C29.6093748,794.187493 29.4375016,792.875006 29.125,791.6875 C28.3124959,791.875001 27.3125059,792 26.125,792.0625 L26.125,792.0625 Z M26.125,791.3125 C27.2812558,791.25 28.2187464,791.125001 28.9375,790.9375 C28.6249984,789.874995 28.2109401,789.007816 27.6953125,788.335938 C27.1796849,787.664059 26.6562527,787.250001 26.125,787.09375 L26.125,791.3125 Z M25.375,787.09375 C24.2499944,787.375001 23.3125038,788.656239 22.5625,790.9375 C23.3125038,791.125001 24.2499944,791.25 25.375,791.3125 L25.375,787.09375 Z M25.375,792.0625 C24.1562439,792 23.1406291,791.875001 22.328125,791.6875 C22.0156234,792.875006 21.8437502,794.187493 21.8125,795.625 L25.375,795.625 L25.375,792.0625 Z M21.0625,795.625 C21.1250003,793.968742 21.2968736,792.593755 21.578125,791.5 C20.6718705,791.249999 19.7500047,790.859378 18.8125,790.328125 C17.5624938,791.828133 16.8906255,793.59374 16.796875,795.625 L21.0625,795.625 Z M21.0625,796.375 L16.796875,796.375 C16.8906255,798.40626 17.5624938,800.171867 18.8125,801.671875 C19.8750053,801.109372 20.7968711,800.718751 21.578125,800.5 C21.2968736,799.406245 21.1250003,798.031258 21.0625,796.375 L21.0625,796.375 Z M21.8125,796.375 C21.8437502,797.812507 22.0156234,799.124994 22.328125,800.3125 C23.2968798,800.093749 24.3124947,799.953125 25.375,799.890625 L25.375,796.375 L21.8125,796.375 Z M25.375,800.6875 C24.2499944,800.75 23.3125038,800.874999 22.5625,801.0625 C23.3125038,803.343761 24.2499944,804.624999 25.375,804.90625 L25.375,800.6875 Z M26.125,804.90625 C26.6562527,804.749999 27.1796849,804.335941 27.6953125,803.664062 C28.2109401,802.992184 28.6249984,802.125005 28.9375,801.0625 C28.2187464,800.874999 27.2812558,800.75 26.125,800.6875 L26.125,804.90625 Z M26.125,799.890625 C27.125005,799.921875 28.124995,800.062499 29.125,800.3125 C29.4375016,799.124994 29.6093748,797.812507 29.640625,796.375 L26.125,796.375 L26.125,799.890625 Z M30.4375,796.375 C30.3749997,797.906258 30.1875016,799.281244 29.875,800.5 C30.7187542,800.750001 31.6562448,801.140622 32.6875,801.671875 C33.9375062,800.171867 34.6093745,798.40626 34.703125,796.375 L30.4375,796.375 Z M30.4375,795.625 L34.703125,795.625 C34.6093745,793.59374 33.9375062,791.828133 32.6875,790.328125 C31.6249947,790.890628 30.7031289,791.281249 29.921875,791.5 C30.2031264,792.593755 30.3749997,793.968742 30.4375,795.625 L30.4375,795.625 Z M32.125,789.71875 C30.8749937,788.468744 29.453133,787.656252 27.859375,787.28125 C28.5781286,788.031254 29.1874975,789.187492 29.6875,790.75 C30.5625044,790.468749 31.3749962,790.125002 32.125,789.71875 L32.125,789.71875 Z M23.640625,787.28125 C21.9843667,787.656252 20.5625059,788.468744 19.375,789.71875 C19.8750025,790.000001 20.6874944,790.328123 21.8125,790.703125 C22.2812523,789.203117 22.8906213,788.062504 23.640625,787.28125 L23.640625,787.28125 Z M19.375,802.28125 C20.6250062,803.531256 22.046867,804.343748 23.640625,804.71875 C22.8593711,803.906246 22.2343773,802.750008 21.765625,801.25 C20.8593705,801.562502 20.0625034,801.906248 19.375,802.28125 L19.375,802.28125 Z M27.859375,804.71875 C29.453133,804.343748 30.8749937,803.531256 32.125,802.28125 C31.3749962,801.874998 30.5625044,801.531251 29.6875,801.25 C29.1874975,802.812508 28.5781286,803.968746 27.859375,804.71875 L27.859375,804.71875 Z" id="ios-world-outline---Ionicons" sketch:type="MSShapeGroup"></path>
        </g>
    </g>
</svg>