<?xml version="1.0" encoding="UTF-8" standalone="no"?>
<svg width="20px" height="20px" viewBox="0 0 20 20" version="1.1" xmlns="http://www.w3.org/2000/svg" xmlns:xlink="http://www.w3.org/1999/xlink" xmlns:sketch="http://www.bohemiancoding.com/sketch/ns">
    <!-- Generator: Sketch 3.4.2 (15857) - http://www.bohemiancoding.com/sketch -->
    <title>ios-world-outline - Ionicons</title>
    <desc>Created with Sketch.</desc>
    <defs></defs>
    <g id="Welcome" stroke="none" stroke-width="1" fill="none" fill-rule="evenodd" sketch:type="MSPage">
        <g id="Desktop-HD-Copy-5" sketch:type="MSArtboardGroup" transform="translate(-21.000000, -210.000000)" fill="#FFFFFF">
            <g id="Group" sketch:type="MSLayerGroup" transform="translate(20.000000, 210.000000)">
                <path d="M10.75,0 C13.4375134,0 15.7343655,0.953115469 17.640625,2.859375 C19.5468845,4.76563453 20.5,7.06248656 20.5,9.75 C20.5,12.4375134 19.5468845,14.7343655 17.640625,16.640625 C15.7343655,18.5468845 13.4375134,19.5 10.75,19.5 C8.06248656,19.5 5.76563453,18.5468845 3.859375,16.640625 C1.95311547,14.7343655 1,12.4375134 1,9.75 C1,7.06248656 1.95311547,4.76563453 3.859375,2.859375 C5.76563453,0.953115469 8.06248656,0 10.75,0 L10.75,0 Z M11.125,5.8125 L11.125,9.375 L14.640625,9.375 C14.6093748,7.93749281 14.4375016,6.62500594 14.125,5.4375 C13.3124959,5.62500094 12.3125059,5.74999969 11.125,5.8125 L11.125,5.8125 Z M11.125,5.0625 C12.2812558,4.99999969 13.2187464,4.87500094 13.9375,4.6875 C13.6249984,3.62499469 13.2109401,2.75781586 12.6953125,2.0859375 C12.1796849,1.41405914 11.6562527,1.00000078 11.125,0.84375 L11.125,5.0625 Z M10.375,0.84375 C9.24999437,1.12500141 8.31250375,2.40623859 7.5625,4.6875 C8.31250375,4.87500094 9.24999437,4.99999969 10.375,5.0625 L10.375,0.84375 Z M10.375,5.8125 C9.15624391,5.74999969 8.14062906,5.62500094 7.328125,5.4375 C7.01562344,6.62500594 6.84375016,7.93749281 6.8125,9.375 L10.375,9.375 L10.375,5.8125 Z M6.0625,9.375 C6.12500031,7.71874172 6.29687359,6.34375547 6.578125,5.25 C5.67187047,4.99999875 4.75000469,4.60937766 3.8125,4.078125 C2.56249375,5.5781325 1.89062547,7.34373984 1.796875,9.375 L6.0625,9.375 Z M6.0625,10.125 L1.796875,10.125 C1.89062547,12.1562602 2.56249375,13.9218675 3.8125,15.421875 C4.87500531,14.8593722 5.79687109,14.4687511 6.578125,14.25 C6.29687359,13.1562445 6.12500031,11.7812583 6.0625,10.125 L6.0625,10.125 Z M6.8125,10.125 C6.84375016,11.5625072 7.01562344,12.8749941 7.328125,14.0625 C8.29687984,13.8437489 9.31249469,13.7031253 10.375,13.640625 L10.375,10.125 L6.8125,10.125 Z M10.375,14.4375 C9.24999437,14.5000003 8.31250375,14.6249991 7.5625,14.8125 C8.31250375,17.0937614 9.24999437,18.3749986 10.375,18.65625 L10.375,14.4375 Z M11.125,18.65625 C11.6562527,18.4999992 12.1796849,18.0859409 12.6953125,17.4140625 C13.2109401,16.7421841 13.6249984,15.8750053 13.9375,14.8125 C13.2187464,14.6249991 12.2812558,14.5000003 11.125,14.4375 L11.125,18.65625 Z M11.125,13.640625 C12.125005,13.6718752 13.124995,13.8124988 14.125,14.0625 C14.4375016,12.8749941 14.6093748,11.5625072 14.640625,10.125 L11.125,10.125 L11.125,13.640625 Z M15.4375,10.125 C15.3749997,11.6562577 15.1875016,13.0312439 14.875,14.25 C15.7187542,14.5000012 16.6562448,14.8906223 17.6875,15.421875 C18.9375062,13.9218675 19.6093745,12.1562602 19.703125,10.125 L15.4375,10.125 Z M15.4375,9.375 L19.703125,9.375 C19.6093745,7.34373984 18.9375062,5.5781325 17.6875,4.078125 C16.6249947,4.64062781 15.7031289,5.03124891 14.921875,5.25 C15.2031264,6.34375547 15.3749997,7.71874172 15.4375,9.375 L15.4375,9.375 Z M17.125,3.46875 C15.8749937,2.21874375 14.453133,1.40625187 12.859375,1.03125 C13.5781286,1.78125375 14.1874975,2.93749219 14.6875,4.5 C15.5625044,4.21874859 16.3749962,3.87500203 17.125,3.46875 L17.125,3.46875 Z M8.640625,1.03125 C6.98436672,1.40625187 5.56250594,2.21874375 4.375,3.46875 C4.8750025,3.75000141 5.68749437,4.07812313 6.8125,4.453125 C7.28125234,2.9531175 7.89062125,1.81250391 8.640625,1.03125 L8.640625,1.03125 Z M4.375,16.03125 C5.62500625,17.2812562 7.04686703,18.0937481 8.640625,18.46875 C7.85937109,17.6562459 7.23437734,16.5000075 6.765625,15 C5.85937047,15.3125016 5.06250344,15.6562481 4.375,16.03125 L4.375,16.03125 Z M12.859375,18.46875 C14.453133,18.0937481 15.8749937,17.2812562 17.125,16.03125 C16.3749962,15.624998 15.5625044,15.2812514 14.6875,15 C14.1874975,16.5625078 13.5781286,17.7187462 12.859375,18.46875 L12.859375,18.46875 Z" id="ios-world-outline---Ionicons" sketch:type="MSShapeGroup"></path>
            </g>
        </g>
    </g>
</svg>