<?xml version="1.0" encoding="UTF-8" standalone="no"?>
<svg width="55px" height="55px" viewBox="0 0 55 55" version="1.1" xmlns="http://www.w3.org/2000/svg" xmlns:xlink="http://www.w3.org/1999/xlink" xmlns:sketch="http://www.bohemiancoding.com/sketch/ns">
    <!-- Generator: Sketch 3.4.2 (15857) - http://www.bohemiancoding.com/sketch -->
    <title>global45</title>
    <desc>Created with Sketch.</desc>
    <defs></defs>
    <g id="Welcome" stroke="none" stroke-width="1" fill="none" fill-rule="evenodd" sketch:type="MSPage">
        <g id="iconsets" sketch:type="MSArtboardGroup" transform="translate(-1158.000000, -1077.000000)" fill="#FFFFFF">
            <g id="global45" sketch:type="MSLayerGroup" transform="translate(1158.000000, 1077.000000)">
                <g id="Capa_1" sketch:type="MSShapeGroup">
                    <g id="Group">
                        <path d="M0,27.5 C0,42.4288816 12.0138816,54.6034211 26.88125,54.8665526 L26.88125,49.5827895 C25.4820789,49.1708684 23.8526316,47.0804342 22.5976184,44.0222895 C22.0891579,42.7843553 21.6462632,41.4262895 21.2719737,39.9732763 C23.0937763,40.1536184 24.9724605,40.2531974 26.88125,40.2678158 L26.88125,35.0533816 C24.5971579,35.0341316 22.3722632,34.8857763 20.2582368,34.6138158 C19.9671711,32.3492632 19.8157763,29.9570526 19.8157763,27.5 C19.8157763,25.0430921 19.9671711,22.6507368 20.2582368,20.3861842 C22.3721184,20.1142237 24.5971579,19.9658684 26.88125,19.9469079 L26.88125,14.7321842 C24.9724605,14.7469474 23.0937763,14.8463816 21.2719737,15.0270132 C21.6462632,13.574 22.0891579,12.2159342 22.5976184,10.9777105 C23.8526316,7.91956579 25.4820789,5.82942105 26.88125,5.41721053 L26.88125,0.133447368 C12.0138816,0.396868421 0,12.5712632 0,27.5 L0,27.5 Z M5.21371053,27.5 C5.21371053,26.0042895 7.42601316,24.1298026 10.8503421,22.7248421 C12.0878421,22.2171053 13.4464868,21.7736316 14.8993553,21.3990526 C14.7033816,23.3778947 14.6014868,25.4220132 14.6014868,27.5 C14.6014868,29.5782763 14.7032368,31.6221053 14.8993553,33.6009474 C13.4464868,33.2266579 12.0878421,32.7831842 10.8503421,32.2751579 C7.42615789,30.8701974 5.21371053,28.9957105 5.21371053,27.5 L5.21371053,27.5 Z M7.01843421,36.2554211 C7.60273684,36.5493816 8.21931579,36.8314737 8.87077632,37.0986579 C10.9182237,37.9388553 13.2340132,38.62375 15.7330395,39.1397368 C16.2487368,41.6389079 16.9333421,43.9542632 17.7741184,46.0017105 C18.0415921,46.6536053 18.3235395,47.2701842 18.6175,47.8539079 C13.4279605,45.6136711 9.25939474,41.4448158 7.01843421,36.2554211 L7.01843421,36.2554211 Z M18.6175,7.14609211 C18.3235395,7.73010526 18.0415921,8.34668421 17.7741184,8.99828947 C16.9333421,11.0457368 16.2488816,13.3610921 15.7330395,15.8602632 C13.2338684,16.3761053 10.9180789,17.0614342 8.87077632,17.9013421 C8.21931579,18.1688158 7.60273684,18.4509079 7.01843421,18.7445789 C9.25939474,13.5551842 13.4279605,9.38676316 18.6175,7.14609211 L18.6175,7.14609211 Z" id="Shape"></path>
                        <path d="M53.3536184,32.4337895 L50.0336447,30.5488816 C50.1734605,29.5520789 50.2475658,28.5347237 50.2475658,27.5001447 C50.2475658,26.4658553 50.1734605,25.4480658 50.0336447,24.4515526 L53.3536184,22.5666447 C54.9150395,21.6801316 55.462,19.6959342 54.5754868,18.1346579 L49.8569211,9.82386842 C49.4315395,9.07442105 48.7250789,8.52427632 47.8942895,8.29530263 C47.0635,8.06546053 46.1748158,8.17661842 45.4252237,8.602 L42.0952632,10.4928421 C40.3969211,9.12319737 38.4911711,8.00061842 36.4312763,7.18401316 L36.4312763,3.36628947 C36.4312763,1.57126316 34.9760921,0.115644737 33.1806316,0.115644737 L28.9308684,0.115644737 L28.9308684,12.9474342 C36.7171316,13.2267763 42.9657105,19.6468684 42.9657105,27.5 C42.9657105,35.3531316 36.7171316,41.7735132 28.9308684,42.0528553 L28.9308684,54.8843553 L33.1806316,54.8843553 C34.9760921,54.8843553 36.4312763,53.4290263 36.4312763,51.634 L36.4312763,47.8159868 C38.4911711,46.9992368 40.3969211,45.8769474 42.0952632,44.5071579 L45.4252237,46.3981447 C45.9187763,46.6782105 46.4725395,46.8222237 47.0303553,46.8222237 C47.3193947,46.8222237 47.6103158,46.7837237 47.8942895,46.7048421 C48.7250789,46.4761579 49.4315395,45.9257237 49.8569211,45.1764211 L54.5754868,36.8659211 C55.462,35.3045 54.9150395,33.3200132 53.3536184,32.4337895 L53.3536184,32.4337895 Z" id="Shape"></path>
                    </g>
                </g>
            </g>
        </g>
    </g>
</svg>