<?xml version="1.0" encoding="UTF-8" standalone="no"?>
<svg width="59px" height="55px" viewBox="0 0 59 55" version="1.1" xmlns="http://www.w3.org/2000/svg" xmlns:xlink="http://www.w3.org/1999/xlink" xmlns:sketch="http://www.bohemiancoding.com/sketch/ns">
    <!-- Generator: Sketch 3.4.2 (15857) - http://www.bohemiancoding.com/sketch -->
    <title>load</title>
    <desc>Created with Sketch.</desc>
    <defs></defs>
    <g id="Welcome" stroke="none" stroke-width="1" fill="none" fill-rule="evenodd" sketch:type="MSPage">
        <g id="iconsets" sketch:type="MSArtboardGroup" transform="translate(-502.000000, -991.000000)" fill="#000000">
            <g id="load" sketch:type="MSLayerGroup" transform="translate(502.000000, 991.000000)">
                <g id="Capa_1" sketch:type="MSShapeGroup">
                    <g id="Group">
                        <path d="M23.7912568,28.1063525 C23.8787158,28.3843579 23.9863115,28.6691257 24.1122404,28.9516393 C24.3686066,29.6218579 24.7385792,30.3170219 25.1836885,30.9603415 C25.370929,31.2327869 25.6175273,31.5612842 25.9096585,31.886776 C25.644276,32.0753689 25.4540301,32.2989754 25.3686749,32.5587978 L21.8249317,33.6326503 C20.1103142,34.1250956 18.8680055,39.3715847 18.2587978,42.6044126 C21.4877186,44.5683333 25.2673907,45.6968852 29.2852459,45.6968852 L29.2870492,45.6968852 C29.7584563,45.6965847 30.2361749,45.6806557 30.7071311,45.6498497 C34.1820492,45.4206831 37.4769399,44.3677186 40.3730055,42.6018579 C39.7657514,39.3164344 38.5109699,34.1299044 36.7814754,33.6328005 L33.2377322,32.5589481 C33.1525273,32.2991257 32.9621311,32.0755191 32.6970492,31.8869262 C32.9888798,31.5614344 33.2356284,31.2332377 33.4228689,30.9606421 C33.8678279,30.3170219 34.2379508,29.6220082 34.4944672,28.9514891 C34.6202459,28.669276 34.7278415,28.3854098 34.8154508,28.1069536 C35.1601776,27.8176776 35.363347,27.386694 35.363347,26.9333197 L35.363347,25.8238525 C35.363347,25.5052732 35.2629645,25.1937568 35.0787295,24.9354372 L35.0787295,23.3730464 C35.0787295,20.6325137 32.849276,18.4027596 30.1087432,18.4027596 L28.4978142,18.4027596 C25.7574317,18.4027596 23.5278279,20.6325137 23.5278279,23.3730464 L23.5278279,24.9355874 C23.3435929,25.1937568 23.2432104,25.5055738 23.2432104,25.8238525 L23.2432104,26.9333197 C23.2432104,27.3857923 23.4463798,27.817377 23.7912568,28.1063525 L23.7912568,28.1063525 Z M28.3496448,36.4227732 C28.3362705,36.5527596 28.2443033,36.662459 28.1180738,36.6970219 C28.0896721,36.7055874 28.0612705,36.7093443 28.0325683,36.7093443 C27.9342896,36.7093443 27.8394672,36.6629098 27.778306,36.5814617 L26.883429,35.3950546 C26.8418033,35.3393033 26.8192623,35.2721311 26.8192623,35.2028552 L26.8204645,33.299194 C26.8206148,33.1869399 26.8787705,33.0837022 26.9743443,33.025847 C27.0702186,32.9688934 27.1890847,32.9649863 27.2878142,33.017582 C27.5480874,33.1558333 27.8080601,33.2476503 28.0609699,33.2924317 C28.2130464,33.3191803 28.3237978,33.451571 28.3237978,33.6062022 L28.3237978,34.4000956 C28.3690301,34.4179781 28.4102049,34.4469809 28.4438661,34.4834973 C28.5044262,34.5500683 28.5335792,34.6397814 28.5242623,34.7297951 L28.3496448,36.4227732 L28.3496448,36.4227732 Z M31.7859426,35.2030055 C31.7859426,35.2722814 31.7635519,35.3394536 31.7220765,35.3952049 L30.8281011,36.581612 C30.7667896,36.662459 30.6719672,36.7076913 30.5738388,36.7076913 C30.5451366,36.7076913 30.516735,36.7046858 30.4883333,36.6962705 C30.3622541,36.6614071 30.2702869,36.5529098 30.2569126,36.4229235 L30.0822951,34.7299454 C30.0729781,34.6399317 30.1022814,34.5503689 30.1628415,34.4836475 C30.1965027,34.4471311 30.2375273,34.4181284 30.2826093,34.4002459 L30.2826093,33.6063525 C30.2826093,33.4517213 30.3936612,33.3193306 30.5457377,33.292582 C30.798347,33.2478005 31.0584699,33.1559836 31.3185929,33.0180328 C31.4173224,32.9651366 31.5361885,32.969194 31.6320628,33.0261475 C31.7279372,33.0840027 31.7860929,33.1872404 31.7860929,33.2993443 L31.7860929,35.2030055 L31.7859426,35.2030055 Z M24.9461066,26.2084016 C24.9461066,26.0319809 25.0884153,25.8895219 25.2643852,25.8895219 L25.3945219,25.8895219 L25.3945219,25.3216393 C25.3945219,25.2008197 25.4628962,25.0905191 25.5707923,25.036571 C26.0095902,24.8177732 26.8799727,24.450806 27.7811612,24.450806 C28.499918,24.450806 29.0960519,24.6889891 29.5527322,25.1615984 C30.1222678,25.749918 30.7779098,26.0480601 31.502377,26.0480601 C31.9124727,26.0480601 32.336694,25.9514344 32.7627186,25.7601366 C32.8612978,25.7162568 32.9753552,25.7249727 33.0661202,25.783429 C33.1086475,25.8101776 33.1433607,25.8478962 33.1680055,25.8895219 L33.3420219,25.8895219 C33.5176913,25.8895219 33.6603005,26.0319809 33.6603005,26.2084016 L33.6603005,26.7325546 C33.6603005,26.8404508 33.6056011,26.9408333 33.5155874,26.9997404 L33.2061749,27.2000546 L33.189194,27.3321448 C33.0885109,28.0932787 32.6611339,29.0805738 32.0460656,29.9715437 C31.2667486,31.1017486 30.5370219,31.6072678 30.1589344,31.6072678 L28.4470219,31.6072678 C28.0690847,31.6072678 27.3390574,31.1018989 26.560041,29.9715437 C25.9446721,29.0804235 25.5174454,28.0935792 25.4169126,27.3322951 L25.3997814,27.1999044 L25.0903689,26.9995902 C25.0003552,26.9405328 24.945806,26.8401503 24.945806,26.7324044 L24.945806,26.2084016 L24.9461066,26.2084016 Z" id="Shape"></path>
                        <path d="M15.6145902,13.8104098 C12.8740574,13.8104098 10.6446038,16.0403142 10.6446038,18.7806967 L10.6446038,20.3432377 C10.4602186,20.6014071 10.3599863,20.9133743 10.3599863,21.2315027 L10.3599863,22.3409699 C10.3599863,22.7935929 10.5631557,23.2250273 10.9081831,23.514153 C10.9954918,23.7927596 11.1032377,24.0769262 11.2291667,24.360041 C11.4856831,25.0302596 11.8556557,25.7246721 12.3006148,26.3687432 C12.4878552,26.6405874 12.7346038,26.9696858 13.026735,27.2945765 C12.7612022,27.4833197 12.5711066,27.707377 12.4857514,27.9667486 L8.9420082,29.0409016 C8.80315574,29.0810246 8.66730874,29.1534563 8.53446721,29.2526366 C9.72928962,34.3159426 12.727541,38.6704098 16.7900273,41.6240301 L17.150082,41.6240301 C17.2934426,40.9106831 17.4626503,40.1330191 17.656653,39.3445355 C19.0241393,33.7907377 20.4081557,32.7168852 21.4633743,32.4097268 L24.0860929,31.6149317 C23.614235,30.9214208 23.2167623,30.1711066 22.9336475,29.4394262 C22.8401776,29.2272404 22.7549727,29.0132514 22.6787842,28.7992623 C22.6299454,28.7447131 22.5847131,28.687459 22.5403825,28.629153 L20.3548087,27.9665984 C20.2696038,27.7072268 20.0793579,27.4831694 19.8141257,27.2944262 C20.1059563,26.9695355 20.3527049,26.640888 20.5399454,26.3687432 C20.9849044,25.7243716 21.3550273,25.0301093 21.6115437,24.3595902 C21.7373224,24.076776 21.844918,23.7933607 21.9325273,23.5144536 C22.2772541,23.2256284 22.4804235,22.7940437 22.4804235,22.3409699 L22.4804235,21.2315027 C22.4804235,20.9130738 22.3801913,20.6014071 22.195806,20.3430874 L22.195806,18.7805464 C22.195806,16.0401639 19.9663525,13.8102596 17.2261202,13.8102596 L15.6145902,13.8102596 L15.6145902,13.8104098 Z M15.4664208,31.830724 C15.4530464,31.9610109 15.3610792,32.0702596 15.2348497,32.1048224 C15.2064481,32.113388 15.1780464,32.1171448 15.149194,32.1171448 C15.0510656,32.1171448 14.9563934,32.0707104 14.895082,31.9898634 L14.0002049,30.8030055 C13.9585792,30.7477049 13.9360383,30.680082 13.9360383,30.6106557 L13.9372404,28.7071448 C13.9373907,28.5951913 13.9955464,28.4919536 14.0911202,28.4342486 C14.1869945,28.3771448 14.3058607,28.3729372 14.4045902,28.4253825 C14.6648634,28.5634836 14.9249863,28.6554508 15.1777459,28.7003825 C15.3298224,28.727582 15.440724,28.8593716 15.440724,29.014153 L15.440724,29.8084973 C15.4859563,29.8263798 15.5271311,29.855082 15.5607923,29.8911475 C15.6212022,29.9580191 15.6505055,30.0480328 15.6411885,30.1374454 L15.4664208,31.830724 L15.4664208,31.830724 Z M18.9027186,30.6106557 C18.9027186,30.680082 18.8801776,30.7477049 18.8387022,30.8030055 L17.9447268,31.9898634 C17.8835656,32.0701093 17.7885929,32.1159426 17.6904645,32.1159426 C17.6617623,32.1159426 17.6333607,32.1124863 17.6048087,32.1045219 C17.4788798,32.0695082 17.3867623,31.9610109 17.3735383,31.830724 L17.1987705,30.1374454 C17.1896038,30.0480328 17.2187568,29.9581694 17.2793169,29.8911475 C17.3129781,29.855082 17.3540027,29.8263798 17.3990847,29.8084973 L17.3990847,29.014153 C17.3990847,28.8593716 17.5101366,28.727582 17.6620628,28.7003825 C17.9148224,28.6554508 18.1749454,28.5634836 18.4350683,28.4256831 C18.5336475,28.3729372 18.6526639,28.3772951 18.7485383,28.4343989 C18.8444126,28.4921038 18.9027186,28.5953415 18.9027186,28.7071448 L18.9027186,30.6106557 L18.9027186,30.6106557 Z M19.8796448,21.1679372 C19.9780738,21.1239071 20.0922814,21.1329235 20.1830464,21.1910792 C20.2255738,21.218429 20.2602869,21.2555464 20.2849317,21.297623 L20.4589481,21.297623 C20.6346175,21.297623 20.7772268,21.4402322 20.7772268,21.6162022 L20.7772268,22.1402049 C20.7772268,22.2487022 20.7226776,22.3486339 20.6325137,22.4078415 L20.3231011,22.608306 L20.3061202,22.7402459 C20.2054372,23.5013798 19.7782104,24.4880738 19.1629918,25.3794945 C18.3838251,26.5096995 17.6539481,27.0155191 17.2760109,27.0155191 L15.5640984,27.0155191 C15.1861612,27.0155191 14.4562842,26.5098497 13.677418,25.3794945 C13.0620492,24.4880738 12.6348224,23.5018306 12.5341393,22.7406967 L12.5170082,22.608306 L12.2077459,22.4078415 C12.1177322,22.3484836 12.0630328,22.2485519 12.0630328,22.1402049 L12.0630328,21.6162022 C12.0630328,21.4402322 12.2053415,21.297623 12.3814617,21.297623 L12.5114481,21.297623 L12.5114481,20.7292896 C12.5114481,20.6084699 12.5798224,20.4981694 12.6877186,20.4445219 C13.1265164,20.2254235 13.9968989,19.858306 14.8980874,19.858306 C15.6168443,19.858306 16.2131284,20.0969399 16.6696585,20.5692486 C17.239194,21.157418 17.8949863,21.4555601 18.6194536,21.4555601 C19.0293989,21.4558607 19.4536202,21.359235 19.8796448,21.1679372 L19.8796448,21.1679372 Z" id="Shape"></path>
                        <path d="M37.1437842,32.4097268 C38.2048634,32.7188388 39.5948907,33.782623 40.9556148,39.2453552 C41.157582,40.0560792 41.3349044,40.8686066 41.484877,41.6240301 L41.8383197,41.6240301 C43.1066257,40.6980464 44.2823634,39.6243443 45.3435929,38.4132923 C47.683347,35.7429372 49.2888661,32.6082377 50.0784016,29.2541393 C49.9437568,29.1546585 49.8059563,29.0814754 49.6648497,29.0409016 L46.1211066,27.9667486 C46.0359016,27.707377 45.8456557,27.4833197 45.5802732,27.2945765 C45.8721038,26.9696858 46.1188525,26.6410383 46.3060929,26.3688934 C46.7510519,25.7245219 47.1210246,25.0302596 47.3776913,24.3597404 C47.5034699,24.0769262 47.6109153,23.7935109 47.6986749,23.5146038 C48.0434016,23.2257787 48.246571,22.794194 48.246571,22.3411202 L48.246571,21.231653 C48.246571,20.913224 48.1463388,20.6015574 47.9619536,20.3432377 L47.9619536,18.7806967 C47.9619536,16.0403142 45.7325,13.8104098 42.9921175,13.8104098 L41.3810383,13.8104098 C38.640806,13.8104098 36.4112022,16.0403142 36.4112022,18.7806967 L36.4112022,20.3432377 C36.2268169,20.6014071 36.1265847,20.9133743 36.1265847,21.2315027 L36.1265847,22.3409699 C36.1265847,22.7935929 36.3297541,23.2250273 36.6746311,23.514153 C36.7620902,23.7927596 36.8696858,24.0769262 36.9956148,24.360041 C37.2518306,25.0302596 37.6219536,25.7246721 38.0670628,26.3687432 C38.2543033,26.6405874 38.5010519,26.9696858 38.7930328,27.2945765 C38.5275,27.4833197 38.3374044,27.707377 38.2520492,27.9667486 L36.0669262,28.6293033 C36.0225956,28.6876093 35.9772131,28.7448634 35.9280738,28.8000137 C35.8520355,29.0135519 35.7669809,29.2272404 35.6733607,29.4395765 C35.3906967,30.1700546 34.9933743,30.919918 34.5209153,31.615082 L37.1437842,32.4097268 L37.1437842,32.4097268 Z M41.2330191,31.830724 C41.2197951,31.9610109 41.1276776,32.0702596 41.0015984,32.1048224 C40.9731967,32.113388 40.9447951,32.1171448 40.9159426,32.1171448 C40.8176639,32.1171448 40.7229918,32.0707104 40.6616803,31.9898634 L39.766653,30.8030055 C39.7250273,30.7477049 39.7024863,30.680082 39.7024863,30.6106557 L39.7036885,28.7071448 C39.7038388,28.5951913 39.7619945,28.4919536 39.8577186,28.4342486 C39.9535929,28.3771448 40.072459,28.3729372 40.1710383,28.4253825 C40.4313115,28.5634836 40.6914344,28.6554508 40.9443443,28.7003825 C41.0962705,28.727582 41.2073224,28.8593716 41.2073224,29.014153 L41.2073224,29.8084973 C41.2525546,29.8263798 41.2937295,29.855082 41.3272404,29.8911475 C41.3878005,29.9580191 41.4171038,30.0480328 41.4076366,30.1374454 L41.2330191,31.830724 L41.2330191,31.830724 Z M44.6691667,30.6106557 C44.6691667,30.680082 44.646776,30.7477049 44.6053005,30.8030055 L43.7114754,31.9898634 C43.6500137,32.0701093 43.5551913,32.1159426 43.4572131,32.1159426 C43.4285109,32.1159426 43.4001093,32.1124863 43.3717077,32.1045219 C43.2456284,32.0695082 43.1536612,31.9610109 43.1402869,31.830724 L42.9656694,30.1374454 C42.9565027,30.0480328 42.9856557,29.9581694 43.0462158,29.8911475 C43.079877,29.855082 43.1207514,29.8263798 43.1659836,29.8084973 L43.1659836,29.014153 C43.1659836,28.8593716 43.2770355,28.727582 43.4289617,28.7003825 C43.681571,28.6554508 43.941694,28.5634836 44.2018169,28.4256831 C44.3005464,28.3729372 44.4194126,28.3772951 44.5152869,28.4343989 C44.6111612,28.4921038 44.6693169,28.5953415 44.6693169,28.7071448 L44.6693169,30.6106557 L44.6691667,30.6106557 Z M38.3005874,22.740847 L38.2834563,22.6084563 L37.9740437,22.4079918 C37.8838798,22.3486339 37.8293306,22.2487022 37.8293306,22.1403552 L37.8293306,21.6163525 C37.8293306,21.4403825 37.9717896,21.2977732 38.1476093,21.2977732 L38.2777459,21.2977732 L38.2777459,20.7294399 C38.2777459,20.6086202 38.3461202,20.4983197 38.4540164,20.4446721 C38.8929645,20.2255738 39.763347,19.8584563 40.6645355,19.8584563 C41.3834426,19.8584563 41.9795765,20.0970902 42.4362568,20.5693989 C43.0057923,21.1575683 43.6614344,21.4557104 44.3859016,21.4557104 C44.7959973,21.4557104 45.2203689,21.3590847 45.6463934,21.1679372 C45.7448224,21.1239071 45.8590301,21.1329235 45.9497951,21.1910792 C45.9923224,21.218429 46.0270355,21.2555464 46.0516803,21.297623 L46.2255464,21.297623 C46.4013661,21.297623 46.5439754,21.4402322 46.5439754,21.6162022 L46.5439754,22.1402049 C46.5439754,22.2487022 46.489276,22.3486339 46.3992623,22.4078415 L46.0898497,22.608306 L46.0728689,22.7402459 C45.9721858,23.5013798 45.5448087,24.4880738 44.9295902,25.3794945 C44.1505738,26.5096995 43.4206967,27.0155191 43.0427596,27.0155191 L41.330847,27.0155191 C40.9529098,27.0155191 40.2230328,26.5098497 39.4438661,25.3794945 C38.828347,24.488224 38.4012705,23.5019809 38.3005874,22.740847 L38.3005874,22.740847 Z" id="Shape"></path>
                        <path d="M58.5414891,23.664877 C58.2752049,19.6271858 57.208265,15.7686202 55.3704235,12.1970765 C53.9770902,9.48900273 52.1855328,7.03474044 50.0372268,4.88853825 L50.7845355,3.74901639 C51.1593169,3.17722678 51.2007923,2.44900273 50.8931831,1.8385929 C50.5855738,1.22803279 49.9756148,0.827855191 49.2930738,0.789385246 L41.0483333,0.320833333 C40.3654918,0.282663934 39.7146585,0.61010929 39.3397268,1.18174863 C38.9647951,1.7532377 38.9233197,2.48131148 39.2310792,3.09202186 L42.9468852,10.4669809 C43.2546448,11.0773907 43.8644536,11.4775683 44.5468443,11.5163388 C45.2290847,11.5554098 45.8806694,11.2269126 46.2556011,10.6552732 L46.6299317,10.0845355 C50.0878689,13.934235 52.1598361,18.8414071 52.5039617,24.0631011 C53.3477459,36.8561612 43.6262705,47.9508333 30.8330601,48.7941667 C18.04,49.6381011 6.94562842,39.9166257 6.10169399,27.1235656 C5.52915301,18.4427322 9.79586066,10.2391667 17.2369399,5.71308743 C18.6619809,4.84586066 19.1159563,2.98142077 18.2493306,1.55653005 C17.6611612,0.589521858 16.5937705,0.0350136612 15.4638661,0.109699454 C14.974877,0.14170765 14.5136885,0.287923497 14.0923224,0.543989071 C4.71812842,6.24595628 -0.656994536,16.5831011 0.0644672131,27.5214891 C0.579453552,35.3317896 4.10516393,42.4736749 9.99166667,47.6318033 C15.8781694,52.7897814 23.4212842,55.3469809 31.2311339,54.8318443 C39.0409836,54.3167077 46.1828689,50.7909973 51.3411475,44.9046448 C56.4994262,39.0181421 59.0566257,31.474877 58.5414891,23.664877 L58.5414891,23.664877 Z" id="Shape"></path>
                    </g>
                </g>
            </g>
        </g>
    </g>
</svg>