<?xml version="1.0" encoding="UTF-8" standalone="no"?>
<svg width="43px" height="55px" viewBox="0 0 43 55" version="1.1" xmlns="http://www.w3.org/2000/svg" xmlns:xlink="http://www.w3.org/1999/xlink" xmlns:sketch="http://www.bohemiancoding.com/sketch/ns">
    <!-- Generator: Sketch 3.4.2 (15857) - http://www.bohemiancoding.com/sketch -->
    <title>headset1</title>
    <desc>Created with Sketch.</desc>
    <defs></defs>
    <g id="Welcome" stroke="none" stroke-width="1" fill="none" fill-rule="evenodd" sketch:type="MSPage">
        <g id="iconsets" sketch:type="MSArtboardGroup" transform="translate(-341.000000, -1077.000000)" fill="#000000">
            <g id="headset1" sketch:type="MSLayerGroup" transform="translate(341.000000, 1077.000000)">
                <g id="Capa_1" sketch:type="MSShapeGroup">
                    <g id="Group">
                        <path d="M39.9379821,19.7016998 C39.466163,8.73406561 31.2958748,0 21.2504473,0 C11.2027237,0 3.03002982,8.73406561 2.5606163,19.6992942 C1.09114314,20.0908549 0.00623260437,21.4140258 0.00623260437,23.0013718 L0.00623260437,31.5373062 C0.00623260437,33.4312525 1.53934394,34.9667694 3.43799205,34.9667694 C5.33664016,34.9667694 6.87215706,33.4336581 6.87215706,31.5373062 L6.87456262,31.5373062 L6.87456262,30.8768688 C8.49733598,38.4315507 12.4291252,48.2152087 21.2504473,48.2152087 C30.0670676,48.2152087 34.0012624,38.4386581 35.626332,30.8839761 L35.626332,31.5373062 C35.626332,33.0492048 36.6122863,34.3157356 37.9660736,34.77334 C37.8694135,36.5021769 36.932992,45.6372068 28.0056064,49.4511233 C27.4466402,49.1043936 26.7672863,48.9888171 26.0927435,49.2293738 L22.1656561,50.6870378 C21.0241054,51.1092147 20.4415209,52.3805567 20.8612922,53.515 C21.288171,54.6589563 22.5524056,55.2415408 23.6963618,54.8240656 L27.6234493,53.3688072 C28.4796123,53.0526938 29.0220676,52.2602783 29.0621968,51.4064115 C39.0627932,46.983996 40.0887674,36.4291352 40.187833,34.756829 C41.5181113,34.2922266 42.4875547,33.0349901 42.4875547,31.5373062 L42.4875547,23.0013718 C42.4899602,21.4164314 41.4026441,20.0908549 39.9379821,19.7016998 L39.9379821,19.7016998 Z M21.2504473,6.51219682 C13.440994,6.51219682 7.0066501,12.7130915 6.00418489,20.7418887 C5.73760437,20.4399901 5.4216004,20.192326 5.06776342,19.9988966 C5.39328032,10.4298807 12.5045726,2.78324056 21.250338,2.78324056 C29.9938072,2.78324056 37.1050994,10.4298807 37.4306163,19.9988966 C37.0791849,20.192326 36.7630716,20.4399901 36.4966004,20.7371869 C35.4942445,12.7106859 29.0599006,6.51219682 21.2504473,6.51219682 L21.2504473,6.51219682 Z" id="Shape"></path>
                    </g>
                </g>
            </g>
        </g>
    </g>
</svg>