<?xml version="1.0" encoding="UTF-8" standalone="no"?>
<svg width="48px" height="55px" viewBox="0 0 48 55" version="1.1" xmlns="http://www.w3.org/2000/svg" xmlns:xlink="http://www.w3.org/1999/xlink" xmlns:sketch="http://www.bohemiancoding.com/sketch/ns">
    <!-- Generator: Sketch 3.4.2 (15857) - http://www.bohemiancoding.com/sketch -->
    <title>helmet12</title>
    <desc>Created with Sketch.</desc>
    <defs></defs>
    <g id="Welcome" stroke="none" stroke-width="1" fill="none" fill-rule="evenodd" sketch:type="MSPage">
        <g id="iconsets" sketch:type="MSArtboardGroup" transform="translate(-249.000000, -1077.000000)" fill="#010002">
            <g id="helmet12" sketch:type="MSLayerGroup" transform="translate(249.000000, 1077.000000)">
                <g id="Capa_1" sketch:type="MSShapeGroup">
                    <g id="Group">
                        <g id="Shape">
                            <path d="M16.4223658,35.8488469 L4.69763419,38.4480616 L0.0911928429,54.9632604 L20.274006,54.9632604 L22.3872962,37.29 L18.8258549,33.4359543 L16.4223658,35.8488469 Z"></path>
                            <path d="M43.0466302,38.4480616 L31.3123857,35.8488469 L28.9041948,33.4383598 L25.3544533,37.2924056 L27.4654473,54.965666 L47.6577734,54.965666 L43.0466302,38.4480616 Z"></path>
                            <path d="M23.8732803,18.5954672 C31.8101193,18.5954672 38.2420577,17.7982406 38.2420577,16.8122863 C38.2420577,16.6000497 37.8882207,16.3924056 37.3127435,16.2037873 C36.8787575,8.92738569 36.9235885,0 23.8779821,0 C10.8323757,0 10.872505,8.92738569 10.4432207,16.2014911 C9.86533797,16.3925149 9.5067992,16.6000497 9.5067992,16.8123956 C9.5067992,17.7982406 15.9435487,18.5954672 23.8732803,18.5954672 L23.8732803,18.5954672 Z"></path>
                            <path d="M35.8598907,19.6756759 C33.2394632,20.1025547 29.1472664,20.3785388 24.495994,20.3785388 C19.0168787,20.3785388 14.3019682,19.9964911 11.8890755,19.4374155 C12.7405368,26.9992048 17.7573459,32.8368588 23.894493,32.8368588 C29.9585984,32.8321571 34.9140656,27.1195924 35.8598907,19.6756759 L35.8598907,19.6756759 Z"></path>
                        </g>
                    </g>
                </g>
            </g>
        </g>
    </g>
</svg>