<?xml version="1.0" encoding="UTF-8" standalone="no"?>
<svg width="20px" height="20px" viewBox="0 0 20 20" version="1.1" xmlns="http://www.w3.org/2000/svg" xmlns:xlink="http://www.w3.org/1999/xlink" xmlns:sketch="http://www.bohemiancoding.com/sketch/ns">
    <!-- Generator: Sketch 3.3.3 (12072) - http://www.bohemiancoding.com/sketch -->
    <title>ios-help-outline - Ionicons</title>
    <desc>Created with Sketch.</desc>
    <defs></defs>
    <g id="Welcome" stroke="none" stroke-width="1" fill="none" fill-rule="evenodd" sketch:type="MSPage">
        <g id="Desktop-HD-Copy-7" sketch:type="MSArtboardGroup" transform="translate(-20.000000, -841.000000)" fill="#FFFFFF">
            <g id="foot" sketch:type="MSLayerGroup" transform="translate(-3.000000, 793.000000)">
                <path d="M32.75,48.25 C35.4375134,48.25 37.7343655,49.2031155 39.640625,51.109375 C41.5468845,53.0156345 42.5,55.3124866 42.5,58 C42.5,60.6875134 41.5468845,62.9843655 39.640625,64.890625 C37.7343655,66.7968845 35.4375134,67.75 32.75,67.75 C30.0624866,67.75 27.7656345,66.7968845 25.859375,64.890625 C23.9531155,62.9843655 23,60.6875134 23,58 C23,55.3124866 23.9531155,53.0156345 25.859375,51.109375 C27.7656345,49.2031155 30.0624866,48.25 32.75,48.25 L32.75,48.25 Z M32.75,66.953125 C35.2187623,66.953125 37.3281163,66.0781338 39.078125,64.328125 C40.8281337,62.5781163 41.703125,60.4687623 41.703125,58 C41.703125,55.5312377 40.8281337,53.4218837 39.078125,51.671875 C37.3281163,49.9218663 35.2187623,49.046875 32.75,49.046875 C30.2812377,49.046875 28.1718837,49.9218663 26.421875,51.671875 C24.6718663,53.4218837 23.796875,55.5312377 23.796875,58 C23.796875,60.4687623 24.6718663,62.5781163 26.421875,64.328125 C28.1718837,66.0781338 30.2812377,66.953125 32.75,66.953125 L32.75,66.953125 Z M32.9375,52.84375 C33.7187539,52.84375 34.3828098,53.0781227 34.9296875,53.546875 C35.4765652,54.0156273 35.75,54.6406211 35.75,55.421875 C35.75,56.2343791 35.3437541,57.0156213 34.53125,57.765625 C34.0312475,58.2656275 33.7343755,58.6406238 33.640625,58.890625 C33.5468745,59.1406262 33.4843752,59.5937467 33.453125,60.25 L32.5625,60.25 C32.5937502,59.0624941 33.0624955,58.0625041 33.96875,57.25 C34.562503,56.7187473 34.859375,56.1250033 34.859375,55.46875 C34.859375,54.9062472 34.6718769,54.4531267 34.296875,54.109375 C33.9218731,53.7656233 33.4531278,53.59375 32.890625,53.59375 C32.1406213,53.59375 31.5703145,53.7812481 31.1796875,54.15625 C30.7890605,54.5312519 30.6093748,55.0624966 30.640625,55.75 L29.75,55.75 C29.75,53.8124903 30.8124894,52.84375 32.9375,52.84375 L32.9375,52.84375 Z M32.9375,61.5625 C33.1562511,61.5625 33.3437492,61.6406242 33.5,61.796875 C33.6562508,61.9531258 33.734375,62.1406239 33.734375,62.359375 C33.734375,62.5781261 33.6562508,62.7656242 33.5,62.921875 C33.3437492,63.0781258 33.1562511,63.15625 32.9375,63.15625 C32.7187489,63.15625 32.5312508,63.0781258 32.375,62.921875 C32.2187492,62.7656242 32.140625,62.5781261 32.140625,62.359375 C32.140625,62.1406239 32.2187492,61.9531258 32.375,61.796875 C32.5312508,61.6406242 32.7187489,61.5625 32.9375,61.5625 L32.9375,61.5625 Z" id="ios-help-outline---Ionicons" sketch:type="MSShapeGroup"></path>
            </g>
        </g>
    </g>
</svg>