<?xml version="1.0" encoding="UTF-8" standalone="no"?>
<svg width="59px" height="55px" viewBox="0 0 59 55" version="1.1" xmlns="http://www.w3.org/2000/svg" xmlns:xlink="http://www.w3.org/1999/xlink" xmlns:sketch="http://www.bohemiancoding.com/sketch/ns">
    <!-- Generator: Sketch 3.4.2 (15857) - http://www.bohemiancoding.com/sketch -->
    <title>house219</title>
    <desc>Created with Sketch.</desc>
    <defs></defs>
    <g id="Welcome" stroke="none" stroke-width="1" fill="none" fill-rule="evenodd" sketch:type="MSPage">
        <g id="iconsets" sketch:type="MSArtboardGroup" transform="translate(-891.000000, -1077.000000)" fill="#FFFFFF">
            <g id="house219" sketch:type="MSLayerGroup" transform="translate(891.000000, 1077.000000)">
                <g id="Capa_1" sketch:type="MSShapeGroup">
                    <g id="Group">
                        <path d="M45.0272921,28.6995629 L45.0272921,11.9104904 L27.2212473,11.9104904 L27.2212473,0.0439765458 L0,0.0439765458 L0,37.6544776 L27.2212473,37.6544776 L27.2212473,15.2799147 L41.6577505,15.2799147 L41.6577505,28.6945203 L27.7373561,42.6200746 L33.0470256,42.6200746 L33.0470256,54.9190832 L53.6457569,54.9190832 L53.6457569,42.6200746 L58.9503838,42.6200746 L45.0272921,28.6995629 L45.0272921,28.6995629 Z M3.97407249,4.01546908 L11.3125267,4.01546908 L11.3125267,8.37395522 L3.97407249,8.37395522 L3.97407249,4.01546908 L3.97407249,4.01546908 Z M3.97407249,12.2721535 L11.3125267,12.2721535 L11.3125267,16.6357996 L3.97407249,16.6357996 L3.97407249,12.2721535 L3.97407249,12.2721535 Z M16.7284435,36.2479318 L10.029936,36.2479318 L10.029936,23.9539659 L16.7258635,23.9539659 L16.7284435,36.2479318 L16.7284435,36.2479318 L16.7284435,36.2479318 Z M22.7792644,16.6332196 L15.4433902,16.6332196 L15.4433902,12.2721535 L22.7792644,12.2721535 L22.7792644,16.6332196 L22.7792644,16.6332196 Z M22.7792644,8.37407249 L15.4433902,8.37407249 L15.4433902,4.01546908 L22.7792644,4.01546908 L22.7792644,8.37407249 L22.7792644,8.37407249 Z M46.5020896,53.8465245 L40.3905224,53.8465245 L40.3905224,43.1032303 L46.5020896,43.1032303 L46.5020896,53.8465245 L46.5020896,53.8465245 Z" id="Shape"></path>
                    </g>
                </g>
            </g>
        </g>
    </g>
</svg>