<?xml version="1.0" encoding="UTF-8" standalone="no"?>
<svg width="55px" height="42px" viewBox="0 0 55 42" version="1.1" xmlns="http://www.w3.org/2000/svg" xmlns:xlink="http://www.w3.org/1999/xlink" xmlns:sketch="http://www.bohemiancoding.com/sketch/ns">
    <!-- Generator: Sketch 3.4.1 (15681) - http://www.bohemiancoding.com/sketch -->
    <title>ios-reverse-camera-outline - Ionicons</title>
    <desc>Created with Sketch.</desc>
    <defs></defs>
    <g id="Page-1" stroke="none" stroke-width="1" fill="none" fill-rule="evenodd" sketch:type="MSPage">
        <path d="M34,29.5714286 L34.2857143,29.2857143 L35.8571429,31 L35.5714286,31.2857143 C33.2857029,33.2857243 30.5714443,34.2857143 27.4285714,34.2857143 C24.2856986,34.2857143 21.5238214,33.1904871 19.1428571,31 C16.7618929,28.8095129 15.3809543,26.1904914 15,23.1428571 L10.7142857,23.1428571 L16.1428571,16 L21.7142857,23.1428571 L17.2857143,23.1428571 C17.6666686,25.5238214 18.8333236,27.5952293 20.7857143,29.3571429 C22.738105,31.1190564 24.9523686,32 27.4285714,32 C29.9047743,32 32.0952286,31.1904843 34,29.5714286 L34,29.5714286 Z M36,12.4285714 C38.1904871,14.3333429 39.4761886,17.0476014 39.8571429,20.5714286 L44.1428571,20.5714286 L38.7142857,27.8571429 L33.1428571,20.5714286 L37.5714286,20.5714286 C37.1904743,17.9999871 36.0476286,15.8333421 34.1428571,14.0714286 C32.2380857,12.309515 30.0000129,11.4285714 27.4285714,11.4285714 C24.9523686,11.4285714 22.7619143,12.2380871 20.8571429,13.8571429 L20.5714286,14.1428571 L19,12.4285714 L19.2857143,12.1428571 C21.57144,10.1428471 24.2856986,9.14285714 27.4285714,9.14285714 C30.7619214,9.14285714 33.6190357,10.2380843 36,12.4285714 L36,12.4285714 Z M50.5714286,6.85714286 C51.80953,6.85714286 52.8333293,7.28571 53.6428571,8.14285714 C54.452385,9.00000429 54.8571429,10.0476129 54.8571429,11.2857143 L54.8571429,36.4285714 C54.8571429,37.6666729 54.452385,38.7619 53.6428571,39.7142857 C52.8333293,40.6666714 51.80953,41.1428571 50.5714286,41.1428571 L4.85714286,41.1428571 C3.61904143,41.1428571 2.500005,40.6666714 1.5,39.7142857 C0.499995,38.7619 0,37.6666729 0,36.4285714 L0,11.2857143 C0,10.0476129 0.476185714,9.00000429 1.42857143,8.14285714 C2.38095714,7.28571 3.52380286,6.85714286 4.85714286,6.85714286 L6.71428571,6.85714286 L6.71428571,4.57142857 L11.5714286,4.57142857 L11.5714286,6.85714286 L13.4285714,6.85714286 C15.9047743,3.99998571 17.6428521,2.14286143 18.6428571,1.28571429 C19.6428621,0.428567143 20.5238057,0 21.2857143,0 L33.8571429,0 C34.6190514,0 35.499995,0.428567143 36.5,1.28571429 C37.500005,2.14286143 39.2380829,3.99998571 41.7142857,6.85714286 L50.5714286,6.85714286 Z M52.5714286,36.4285714 L52.5714286,11.2857143 C52.5714286,9.85713571 51.9047686,9.14285714 50.5714286,9.14285714 L41.7142857,9.14285714 L40.8571429,9.14285714 C40.5714271,9.14285714 40.2857157,9.00000143 40,8.71428571 C39.9047614,8.61904714 39.7142871,8.38095429 39.4285714,8 C39.1428557,7.61904571 38.9047629,7.33333429 38.7142857,7.14285714 C38.1428543,6.57142571 37.4285757,5.78571929 36.5714286,4.78571429 C35.7142814,3.78570929 35.1428586,3.14285857 34.8571429,2.85714286 L33.8571429,2.28571429 L21.2857143,2.28571429 C21.1904757,2.28571429 20.9047643,2.47618857 20.4285714,2.85714286 C19.3809471,3.71429 18.1428643,4.99999143 16.7142857,6.71428571 C15.8571386,7.85714857 15.3333343,8.52380857 15.1428571,8.71428571 C14.8571414,9.00000143 14.57143,9.14285714 14.2857143,9.14285714 L13.4285714,9.14285714 L4.85714286,9.14285714 C4.19047286,9.14285714 3.59524071,9.35714071 3.07142857,9.78571429 C2.54761643,10.2142879 2.28571429,10.7142829 2.28571429,11.2857143 L2.28571429,36.4285714 C2.28571429,37.0952414 2.54761643,37.6666643 3.07142857,38.1428571 C3.59524071,38.61905 4.19047286,38.8571429 4.85714286,38.8571429 L50.5714286,38.8571429 C51.9047686,38.8571429 52.5714286,38.0476271 52.5714286,36.4285714 L52.5714286,36.4285714 Z" id="ios-reverse-camera-outline---Ionicons" fill="#FFFFFF" sketch:type="MSShapeGroup"></path>
    </g>
</svg>