<?xml version="1.0" encoding="UTF-8" standalone="no"?>
<svg width="49px" height="49px" viewBox="0 0 49 49" version="1.1" xmlns="http://www.w3.org/2000/svg" xmlns:xlink="http://www.w3.org/1999/xlink" xmlns:sketch="http://www.bohemiancoding.com/sketch/ns">
    <!-- Generator: Sketch 3.3.3 (12072) - http://www.bohemiancoding.com/sketch -->
    <title>Shape</title>
    <desc>Created with Sketch.</desc>
    <defs></defs>
    <g id="Page-1" stroke="none" stroke-width="1" fill="none" fill-rule="evenodd" sketch:type="MSPage">
        <g id="access39" sketch:type="MSLayerGroup" transform="translate(0.179075, 0.497532)" fill="#FFFFFF">
            <path d="M43.5,3 C43.731375,3 44.178375,3.0585 44.5605,3.4395 C44.943,3.823125 45,4.268625 45,4.5 C45,4.731375 44.943,5.176875 44.5605,5.5605 L42.879,7.242 L42,8.121 L42,9.363375 L42,15 L39,15 L36,15 L36,18 L36,21 L33,21 L30,21 L30,24 L30,27 L29.698125,27 L26.03025,27 L26.758125,30.59475 C26.917875,31.388625 27,32.197125 27,33 C27,39.618 21.616875,45 15,45 C8.383125,45 3,39.618 3,33 C3,26.382 8.383125,21 15,21 C16.858875,21 18.709125,21.47475 20.499,22.4085 L22.451625,23.428875 L24.008625,21.870375 L42.439125,3.439875 C42.821625,3.0585 43.268625,3 43.5,3 L43.5,3 Z M15,39 C18.309,39 21,36.3075 21,33 C21,29.6925 18.309,27 15,27 C11.691,27 9,29.6925 9,33 C9,36.3075 11.691,39 15,39 L15,39 Z M43.5,0 C42.34875,0 41.197125,0.4395 40.3185,1.3185 L21.887625,19.749 C19.8165,18.667875 17.4975,18 15,18 C6.71625,18 0,24.71475 0,33 C0,41.28525 6.71625,48 15,48 C23.28375,48 30,41.28525 30,33 C30,31.97175 29.894625,30.96975 29.698125,29.99925 L33,29.99925 L33,24 L39,24 L39,18 L45,18 L45,9.363375 L46.6815,7.681875 C48.4395,5.923875 48.4395,3.0765 46.6815,1.3185 C45.802875,0.4395 44.65125,0 43.5,0 L43.5,0 L43.5,0 Z M15,36 C13.34325,36 12,34.65825 12,33 C12,31.34175 13.34325,29.99925 15,29.99925 C16.65675,29.99925 18,31.34175 18,33 C18,34.65825 16.65675,36 15,36 L15,36 L15,36 Z" id="Shape" sketch:type="MSShapeGroup"></path>
        </g>
    </g>
</svg>