<?xml version="1.0" encoding="UTF-8" standalone="no"?>
<svg width="31px" height="55px" viewBox="0 0 31 55" version="1.1" xmlns="http://www.w3.org/2000/svg" xmlns:xlink="http://www.w3.org/1999/xlink" xmlns:sketch="http://www.bohemiancoding.com/sketch/ns">
    <!-- Generator: Sketch 3.4.2 (15857) - http://www.bohemiancoding.com/sketch -->
    <title>lightbulb52</title>
    <desc>Created with Sketch.</desc>
    <defs></defs>
    <g id="Welcome" stroke="none" stroke-width="1" fill="none" fill-rule="evenodd" sketch:type="MSPage">
        <g id="iconsets" sketch:type="MSArtboardGroup" transform="translate(-613.000000, -991.000000)" fill="#000000">
            <g id="lightbulb52" sketch:type="MSLayerGroup" transform="translate(613.170398, 991.000000)">
                <g id="Capa_1" sketch:type="MSShapeGroup">
                    <path d="M21.9794444,31.3681481 L22.2698148,30.3818519 C22.7081481,28.8909259 24.0612963,26.6190741 25.1648148,25.5205556 C25.3644444,25.322037 30.0574074,20.5925926 30.0574074,15.03 C30.0574074,6.74259259 23.3283333,0.000185185185 15.0574074,0.000185185185 C6.78648148,0.000185185185 0.0574074074,6.74259259 0.0574074074,15.03 C0.0574074074,20.5925926 4.75092593,25.322037 4.95018519,25.5201852 C6.05333333,26.617963 7.40666667,28.89 7.84611111,30.3822222 L8.13611111,31.3681481 C5.39148148,31.7827778 3.25611111,34.7388889 3.25611111,38.3148148 C3.25611111,41.6511111 7.12092593,49.3046296 7.56148148,50.1662963 C7.79907407,50.6307407 8.27666667,50.9227778 8.79833333,50.9227778 C9.31981481,50.9227778 9.79759259,50.6303704 10.035,50.1659259 C10.0637037,50.1096296 10.4692593,49.3142593 11.0212963,48.1401852 C12.3559259,51.3001852 13.7442593,54.0235185 13.8207407,54.1731481 C14.0581481,54.6374074 14.5357407,54.9296296 15.0574074,54.9296296 C15.5790741,54.9296296 16.0564815,54.6374074 16.2940741,54.1731481 C16.3705556,54.0233333 17.7590741,51.2998148 19.0935185,48.14 C19.6459259,49.3146296 20.0518519,50.1101852 20.0805556,50.1661111 C20.317963,50.6305556 20.7955556,50.9227778 21.3172222,50.9227778 C21.8387037,50.9227778 22.3162963,50.6305556 22.5538889,50.1661111 C22.9944444,49.3046296 26.8587037,41.6511111 26.8587037,38.3148148 C26.8585185,34.7390741 24.7237037,31.782963 21.9794444,31.3681481 L21.9794444,31.3681481 Z M6.90888889,23.5505556 C6.86814815,23.51 2.83518519,19.4498148 2.83518519,15.0298148 C2.83518519,8.27388889 8.31796296,2.77777778 15.0574074,2.77777778 C21.7968519,2.77777778 27.2796296,8.27407407 27.2796296,15.0298148 C27.2796296,19.4253704 23.2455556,23.5112963 23.2057407,23.5512963 C21.7605556,24.9898148 20.1788889,27.6459259 19.6051852,29.5975926 L18.5555556,33.1612963 L17.9281481,33.1612963 L19.2537037,22.8642593 L21.0075926,22.8642593 C21.7746296,22.8642593 22.3964815,22.2425926 22.3964815,21.4753704 C22.3964815,20.7081481 21.7746296,20.0864815 21.0075926,20.0864815 L9.10759259,20.0864815 C8.34037037,20.0864815 7.7187037,20.7081481 7.7187037,21.4753704 C7.7187037,22.2425926 8.34037037,22.8642593 9.10759259,22.8642593 L10.8612963,22.8642593 L12.1866667,33.1612963 L11.5592593,33.1612963 L10.5107407,29.5975926 C9.93518519,27.6437037 8.35314815,24.987963 6.90888889,23.5505556 L6.90888889,23.5505556 Z M14.9874074,33.1612963 L13.662037,22.8642593 L16.452963,22.8642593 L15.1274074,33.1612963 L14.9874074,33.1612963 L14.9874074,33.1612963 Z M21.3192593,46.3381481 C20.9953704,45.6351852 20.64,44.8383333 20.295,44.0146296 C20.0738889,43.4864815 19.5503704,43.1475926 18.9783333,43.1627778 C18.4057407,43.1774074 17.9009259,43.542037 17.707037,44.0811111 C16.92,46.2692593 15.8683333,48.6318519 15.0574074,50.3616667 C14.2464815,48.6318519 13.1948148,46.2696296 12.4077778,44.0814815 C12.2138889,43.5425926 11.7092593,43.1777778 11.1366667,43.1631481 C10.5625926,43.1477778 10.0412963,43.4864815 9.82,44.0148148 C9.47481481,44.8383333 9.11944444,45.6353704 8.79555556,46.3381481 C7.44092593,43.3903704 6.03407407,39.8390741 6.03407407,38.3148148 C6.03407407,36.0311111 7.44296296,34.1014815 8.93851852,34.0946296 L9.18796296,34.9424074 C9.36203704,35.5333333 9.90425926,35.9392593 10.5203704,35.9392593 L19.5944444,35.9392593 C20.2103704,35.9392593 20.7527778,35.5337037 20.9266667,34.9427778 L21.1764815,34.0946296 C22.6716667,34.1012963 24.0811111,36.0309259 24.0811111,38.3148148 C24.0807407,39.8375926 22.6738889,43.3894444 21.3192593,46.3381481 L21.3192593,46.3381481 Z" id="Shape"></path>
                </g>
            </g>
        </g>
    </g>
</svg>