<?xml version="1.0" encoding="UTF-8" standalone="no"?>
<svg width="48px" height="49px" viewBox="0 0 48 49" version="1.1" xmlns="http://www.w3.org/2000/svg" xmlns:xlink="http://www.w3.org/1999/xlink" xmlns:sketch="http://www.bohemiancoding.com/sketch/ns">
    <!-- Generator: Sketch 3.3.3 (12072) - http://www.bohemiancoding.com/sketch -->
    <title>line</title>
    <desc>Created with Sketch.</desc>
    <defs></defs>
    <g id="Page-1" stroke="none" stroke-width="1" fill="none" fill-rule="evenodd" sketch:type="MSPage">
        <g id="line" sketch:type="MSLayerGroup" transform="translate(0.000000, 0.891142)" fill="#FFFFFF">
            <g id="Page-1" sketch:type="MSShapeGroup">
                <path d="M47.0272,46.4 L1.6,46.4 L1.6,1 C1.6,0.448 1.3528,0 0.8,0 C0.2472,0 0,0.448 0,1 L0,47 C0,47.552 0.4744,48 1.0272,48 L47.0272,48 C47.5792,48 48,47.752 48,47.2 C48,46.648 47.5792,46.4 47.0272,46.4 L47.0272,46.4 L47.0272,46.4 Z M12,30.4 C13.7648,30.4 15.2,31.832 15.2,33.6 C15.2,35.368 13.7648,36.8 12,36.8 C10.2352,36.8 8.8,35.368 8.8,33.6 C8.8,31.832 10.2352,30.4 12,30.4 L12,30.4 L12,30.4 Z M32,24.8 C33.7648,24.8 35.2,26.232 35.2,28 C35.2,29.768 33.7648,31.2 32,31.2 C30.7528,31.2 29.6824,30.48 29.1536,29.432 C29.152,29.424 29.1544,29.424 29.1528,29.416 C29.1264,29.312 29.0792,29.216 29.0184,29.136 C28.8832,28.784 28.8,28.4 28.8,28 C28.8,26.232 30.2352,24.8 32,24.8 L32,24.8 L32,24.8 Z M40,5.6 C40,3.832 41.4352,2.4 43.2,2.4 C44.9648,2.4 46.4,3.832 46.4,5.6 C46.4,7.368 44.9648,8.8 43.2,8.8 C41.4352,8.8 40,7.368 40,5.6 L40,5.6 L40,5.6 Z M5.176,43.88 C5.308,43.96 5.4544,44 5.5992,44 C5.8664,44 6.1264,43.864 6.2784,43.624 L9.8616,37.888 C10.5064,38.216 11.2312,38.4 12,38.4 C14.6472,38.4 16.8,36.248 16.8,33.6 C16.8,33.544 16.7936,33.48 16.7912,33.424 L27.9424,30.552 C28.792,31.904 30.2912,32.8 32,32.8 C34.6472,32.8 36.8,30.648 36.8,28 C36.8,26.68 36.2648,25.488 35.4008,24.616 L42.8904,10.384 C42.9928,10.392 43.0952,10.4 43.2,10.4 C45.8472,10.4 48,8.248 48,5.6 C48,2.952 45.8472,0.8 43.2,0.8 C40.5528,0.8 38.4,2.952 38.4,5.6 C38.4,7.568 39.5888,9.256 41.2848,10 L34.084,23.68 C33.4528,23.376 32.748,23.2 32,23.2 C29.3528,23.2 27.2,25.352 27.2,28 C27.2,28.368 27.2448,28.72 27.3216,29.056 L16.4664,31.856 C15.7664,30.072 14.0304,28.8 12,28.8 C9.3528,28.8 7.2,30.952 7.2,33.6 C7.2,34.904 7.7216,36.08 8.5656,36.944 L4.9216,42.776 C4.6872,43.152 4.8008,43.648 5.176,43.88 L5.176,43.88 L5.176,43.88 Z" id="Fill-96"></path>
            </g>
        </g>
    </g>
</svg>