<?xml version="1.0" encoding="UTF-8" standalone="no"?>
<svg width="31px" height="49px" viewBox="0 0 31 49" version="1.1" xmlns="http://www.w3.org/2000/svg" xmlns:xlink="http://www.w3.org/1999/xlink" xmlns:sketch="http://www.bohemiancoding.com/sketch/ns">
    <!-- Generator: Sketch 3.3.3 (12072) - http://www.bohemiancoding.com/sketch -->
    <title>lock a</title>
    <desc>Created with Sketch.</desc>
    <defs></defs>
    <g id="Page-1" stroke="none" stroke-width="1" fill="none" fill-rule="evenodd" sketch:type="MSPage">
        <g id="lock-a" sketch:type="MSLayerGroup" transform="translate(0.500000, 0.891142)" fill="#FFFFFF">
            <g id="icons" sketch:type="MSShapeGroup">
                <g id="lock-a">
                    <path d="M0,28.5087885 L0,36 C0,42.619332 5.3748975,48 11.99688,48 L18.00312,48 C24.6265935,48 30,42.6262095 30,36 L30,28.5087885 C30,26.019366 27.990789,24 25.5073665,24 L4.4926335,24 C2.008938,24 0,26.020209 0,28.5087885 L0,28.5087885 L0,28.5087885 Z M3,28.5087885 C3,27.673317 3.669561,27 4.4926335,27 L25.5073665,27 C26.3305395,27 27,27.6728445 27,28.5087885 L27,36 C27,40.9694025 22.969692,45 18.00312,45 L11.99688,45 C7.0324725,45 3,40.9631985 3,36 L3,28.5087885 L3,28.5087885 Z M7.5,24 L7.5,10.495593 C7.5,6.359805 10.8640605,3 15,3 C19.1413815,3 22.5,6.357612 22.5,10.495593 L22.5,24 L25.5,24 L25.5,10.495593 C25.5,4.700556 20.798034,0 15,0 C9.208056,0 4.5,4.702101 4.5,10.495593 L4.5,24 L7.5,24 L7.5,24 Z M15,40.5 C12.514719,40.5 10.5,38.485281 10.5,36 C10.5,33.514719 12.514719,31.5 15,31.5 C17.485281,31.5 19.5,33.514719 19.5,36 C19.5,38.485281 17.485281,40.5 15,40.5 L15,40.5 L15,40.5 Z M15,39 C16.6568535,39 18,37.6568535 18,36 C18,34.3431465 16.6568535,33 15,33 C13.3431465,33 12,34.3431465 12,36 C12,37.6568535 13.3431465,39 15,39 L15,39 L15,39 Z" id="Shape"></path>
                </g>
            </g>
        </g>
    </g>
</svg>