<?xml version="1.0" encoding="UTF-8" standalone="no"?>
<svg width="42px" height="54px" viewBox="0 0 42 54" version="1.1" xmlns="http://www.w3.org/2000/svg" xmlns:xlink="http://www.w3.org/1999/xlink" xmlns:sketch="http://www.bohemiancoding.com/sketch/ns">
    <!-- Generator: Sketch 3.4.1 (15681) - http://www.bohemiancoding.com/sketch -->
    <title>magnifyingglass16</title>
    <desc>Created with Sketch.</desc>
    <defs></defs>
    <g id="Page-1" stroke="none" stroke-width="1" fill="none" fill-rule="evenodd" sketch:type="MSPage">
        <g id="magnifyingglass16" sketch:type="MSLayerGroup" fill="#FFFFFF">
            <g id="Capa_1" sketch:type="MSShapeGroup">
                <g id="Group">
                    <path d="M0.195,48.263 C0.37,48.908 0.786,49.445 1.365,49.776 L7.031,53.018 C7.422,53.242 7.847,53.348 8.268,53.348 C9.136,53.348 9.981,52.896 10.442,52.09 L20.022,35.347 C21.128,35.561 22.255,35.673 23.386,35.673 C29.774,35.673 35.711,32.232 38.88,26.694 C41.246,22.559 41.86,17.751 40.609,13.154 C39.358,8.557 36.392,4.723 32.258,2.358 C29.562,0.815 26.505,0 23.416,0 C17.028,0 11.092,3.441 7.922,8.979 C4.041,15.762 5.135,24.038 10.025,29.606 L0.437,46.363 C0.105,46.944 0.019,47.619 0.195,48.263 L0.195,48.263 Z M15.412,37.364 L10.614,34.619 L12.263,31.737 C12.976,32.308 13.726,32.847 14.544,33.315 C15.35,33.776 16.192,34.164 17.054,34.493 L15.412,37.364 L15.412,37.364 Z M10.526,10.47 C13.163,5.863 18.102,3 23.416,3 C25.983,3 28.525,3.678 30.767,4.961 C34.207,6.929 36.673,10.118 37.714,13.941 C38.754,17.764 38.244,21.764 36.276,25.203 C33.64,29.81 28.7,32.673 23.386,32.673 C20.819,32.673 18.277,31.995 16.034,30.712 C8.935,26.65 6.464,17.569 10.526,10.47 L10.526,10.47 Z M9.125,37.223 L13.923,39.968 L8.088,50.167 L3.29,47.422 L9.125,37.223 L9.125,37.223 Z" id="Shape"></path>
                    <path d="M17.085,28.877 C19.007,29.977 21.188,30.558 23.39,30.558 C27.946,30.558 32.181,28.104 34.441,24.154 C37.924,18.067 35.805,10.281 29.718,6.798 C27.796,5.698 25.615,5.117 23.413,5.117 C18.857,5.117 14.623,7.571 12.362,11.521 C10.675,14.47 10.237,17.899 11.129,21.177 C12.021,24.455 14.136,27.189 17.085,28.877 L17.085,28.877 Z M13.23,12.017 C15.312,8.377 19.214,6.116 23.413,6.116 C25.441,6.116 27.45,6.652 29.222,7.665 C34.83,10.874 36.783,18.047 33.574,23.656 C31.491,27.296 27.589,29.557 23.391,29.557 C21.363,29.557 19.354,29.021 17.583,28.008 C14.866,26.453 12.917,23.934 12.095,20.913 C11.272,17.893 11.675,14.733 13.23,12.017 L13.23,12.017 Z" id="Shape"></path>
                </g>
            </g>
        </g>
    </g>
</svg>