<?xml version="1.0" encoding="UTF-8" standalone="no"?>
<svg width="88px" height="55px" viewBox="0 0 88 55" version="1.1" xmlns="http://www.w3.org/2000/svg" xmlns:xlink="http://www.w3.org/1999/xlink" xmlns:sketch="http://www.bohemiancoding.com/sketch/ns">
    <!-- Generator: Sketch 3.4.2 (15857) - http://www.bohemiancoding.com/sketch -->
    <title>magnifying-glass40</title>
    <desc>Created with Sketch.</desc>
    <defs></defs>
    <g id="Welcome" stroke="none" stroke-width="1" fill="none" fill-rule="evenodd" sketch:type="MSPage">
        <g id="iconsets" sketch:type="MSArtboardGroup" transform="translate(-329.000000, -991.000000)" fill="#000000">
            <g id="magnifying-glass40" sketch:type="MSLayerGroup" transform="translate(329.000000, 991.000000)">
                <g id="Capa_1" sketch:type="MSShapeGroup">
                    <g id="Group">
                        <path d="M30.9596897,0.0147931034 C28.5529655,0.0147931034 27.8138793,3.00584483 27.262931,6.06972414 C26.7664138,8.83110345 26.3652931,12.5198966 25.9774483,16.086931 C25.6375862,19.2137759 25.1826034,23.397 24.6650345,26.2196379 C24.2559483,24.204931 23.8906724,21.5596207 23.6103621,19.5291724 C23.2352241,16.8125517 22.8473793,14.0031897 22.3544655,11.8790517 C21.9878621,10.2988448 21.225069,7.0107931 18.6960172,7.0107931 C16.3056034,7.0107931 15.3800862,9.79891379 15.076069,10.7151379 C14.5600172,12.2697414 14.1588966,14.2850172 13.7706724,16.2337241 C13.4457931,17.8655172 12.9534483,20.3376724 12.452569,21.7060345 C12.1347069,20.9859138 11.8085,19.9797931 11.5998793,19.3355345 C10.7587586,16.7406724 9.889,14.057431 7.40584483,14.057431 L0,14.057431 L0,17.8505345 L6.98139655,17.8505345 C7.30817241,18.3961724 7.7275,19.6898103 7.99168966,20.5051379 C8.85689655,23.1741552 9.83722414,26.1995345 12.5644655,26.1995345 C14.9554483,26.1995345 15.8809655,23.4108448 16.1851724,22.494431 C16.7014138,20.9394483 17.1027241,18.9237931 17.4907586,16.9745172 C17.7610172,15.6171552 18.1473448,13.6775517 18.5579483,12.276569 C19.0637586,14.3347069 19.5185517,17.6278793 19.8527241,20.048069 C20.2278621,22.7646897 20.6157069,25.5740517 21.1086207,27.6981897 C21.4752241,29.2783966 22.2380172,32.5664483 24.767069,32.5664483 C27.1734138,32.5664483 27.9125,29.5757759 28.4632586,26.5124655 C28.9595862,23.7516552 29.3607069,20.0638103 29.7483621,16.4971552 C30.0872759,13.380931 30.5401724,9.21572414 31.0556552,6.39308621 C31.4783966,8.48156897 31.8571379,11.2471207 32.1471207,13.3653793 C32.4331207,15.4548103 32.6897241,17.3270862 32.9692759,18.9543276 C33.2930172,16.0471034 34.1931207,13.2699828 35.6162931,10.7595172 C34.6687759,4.01291379 33.8591379,0.0147931034 30.9596897,0.0147931034 L30.9596897,0.0147931034 Z" id="Shape"></path>
                        <path d="M51.1352069,19.4861207 C50.4983448,21.1120345 50.0782586,23.1383103 49.7078621,24.9261897 C49.6492586,25.2095345 49.5836379,25.5253103 49.5142241,25.8498103 C49.0844655,24.1641552 48.6818276,22.0030345 48.3929828,20.4520345 C47.9630345,18.1435517 47.5767069,16.0732759 47.1037069,14.3794655 C45.6570172,15.8855172 44.7290345,17.765 44.4109828,19.8011379 C44.5020172,20.2788793 44.5871724,20.7346207 44.6637931,21.1467414 C45.826,27.3854483 46.6656034,31.8931724 49.774431,31.8931724 C51.699431,31.8931724 52.3651207,29.8564655 52.5837931,29.1871724 C52.8965345,28.2297931 53.1518103,26.9991207 53.4216897,25.696 C53.7281724,24.2172586 54.0450862,22.6882586 54.4642241,21.4316034 C54.9184483,20.0698793 55.2960517,19.6573793 55.4094655,19.5578103 L62.1818621,19.5578103 L62.1818621,15.7647069 L55.3288621,15.7647069 C53.5134828,15.7647069 52.1024483,17.0168103 51.1352069,19.4861207 L51.1352069,19.4861207 Z" id="Shape"></path>
                        <path d="M86.486931,46.3361724 L73.4581897,33.307431 C72.4939828,32.3430345 71.236,31.8518276 69.9721379,31.8317241 C74.8597414,24.5493448 74.0897414,14.5702586 67.6589138,8.13962069 C60.3516897,0.832206897 48.4618276,0.832206897 41.1547931,8.13962069 C33.8473793,15.4468448 33.8473793,27.3367069 41.1547931,34.643931 C47.585431,41.074569 57.5645172,41.8449483 64.8467069,36.9569655 C64.867,38.2210172 65.3582069,39.4788103 66.3226034,40.4432069 L79.3513448,53.4719483 C81.3220517,55.4426552 84.5164138,55.4426552 86.4871207,53.4719483 C88.4578276,51.5012414 88.4574483,48.3066897 86.486931,46.3361724 L86.486931,46.3361724 Z M63.5813276,30.5663448 C58.5224655,35.6253966 50.2910517,35.6253966 45.2321897,30.5663448 C40.1733276,25.5074828 40.1733276,17.276069 45.2321897,12.2172069 C50.2910517,7.15834483 58.5224655,7.15834483 63.5813276,12.2172069 C68.6401897,17.276069 68.6401897,25.5074828 63.5813276,30.5663448 L63.5813276,30.5663448 Z" id="Shape"></path>
                    </g>
                </g>
            </g>
        </g>
    </g>
</svg>