<?xml version="1.0" encoding="UTF-8" standalone="no"?>
<svg width="69px" height="55px" viewBox="0 0 69 55" version="1.1" xmlns="http://www.w3.org/2000/svg" xmlns:xlink="http://www.w3.org/1999/xlink" xmlns:sketch="http://www.bohemiancoding.com/sketch/ns">
    <!-- Generator: Sketch 3.4.2 (15857) - http://www.bohemiancoding.com/sketch -->
    <title>magnifyingglass1</title>
    <desc>Created with Sketch.</desc>
    <defs></defs>
    <g id="Welcome" stroke="none" stroke-width="1" fill="none" fill-rule="evenodd" sketch:type="MSPage">
        <g id="iconsets" sketch:type="MSArtboardGroup" transform="translate(-240.000000, -991.000000)" fill="#000000">
            <g id="magnifyingglass1" sketch:type="MSLayerGroup" transform="translate(240.000000, 991.000000)">
                <g id="Capa_1" sketch:type="MSShapeGroup">
                    <g id="Group">
                        <path d="M36.6226879,33.9397688 C35.6881647,33.0049277 34.469104,32.5290029 33.2438439,32.5091329 C37.981474,25.4510116 37.2346821,15.7786416 31.0017197,9.54504335 C23.9189595,2.46260116 12.3948699,2.46260116 5.31226879,9.54504335 C-1.77065029,16.6278035 -1.77065029,28.1526879 5.31226879,35.2349711 C11.5453902,41.4682514 21.2176012,42.2145665 28.2760405,37.4770954 C28.2957514,38.7018786 28.7715173,39.9214162 29.7063584,40.8559393 L42.3345809,53.4844798 C44.2447977,55.3945376 47.3410116,55.3945376 49.2512283,53.4844798 C51.161604,51.574104 51.161604,48.4782081 49.2512283,46.5678324 L36.6226879,33.9397688 L36.6226879,33.9397688 Z M27.0493497,31.2827601 C22.1462428,36.1863439 14.1674277,36.1863439 9.26432081,31.2827601 C4.36073699,26.3791763 4.36073699,18.4011561 9.26432081,13.4972543 C14.1674277,8.59398844 22.1462428,8.59398844 27.0493497,13.4972543 C31.9529335,18.4011561 31.9529335,26.3791763 27.0493497,31.2827601 L27.0493497,31.2827601 Z" id="Shape"></path>
                        <path d="M35.8531647,11.2349422 L42.1880202,11.2349422 C42.919711,11.2349422 43.6208815,10.9446821 44.1378179,10.4274277 L48.9678035,5.59776012 L65.595448,5.59776012 C67.1182803,5.59776012 68.3529191,4.36328035 68.3529191,2.84013006 C68.3529191,1.31761561 67.1182803,0.0828179191 65.595448,0.0828179191 L47.8255202,0.0828179191 C47.0938295,0.0828179191 46.3925,0.373078035 45.8755636,0.890650289 L41.045737,5.72 L30.8031792,5.72 C31.554104,6.29225434 32.2726012,6.91680636 32.9515173,7.59556358 C34.0705925,8.71511561 35.0373844,9.93815029 35.8531647,11.2349422 L35.8531647,11.2349422 Z" id="Shape"></path>
                        <path d="M65.595289,25.818526 L54.4439595,25.818526 L50.1803468,23.367052 C49.7621243,23.1267052 49.2882659,23.0000145 48.8059827,23.0000145 L39.057789,23.0000145 C39.0054913,24.8572977 38.708396,26.7125145 38.1593497,28.5144798 L48.0696821,28.5144798 L52.3332948,30.9662717 C52.7518353,31.2066185 53.2256936,31.3333092 53.7078179,31.3333092 L65.595289,31.3333092 C67.1181214,31.3333092 68.3527601,30.0985116 68.3527601,28.5756792 C68.3526012,27.0530058 67.1181214,25.818526 65.595289,25.818526 L65.595289,25.818526 Z" id="Shape"></path>
                        <path d="M65.4727312,14.1151301 L37.3666185,14.1151301 C38.1253324,15.8829191 38.6311416,17.7402023 38.8826156,19.6295954 L65.4727312,19.6295954 C66.9954046,19.6295954 68.2300434,18.3951156 68.2300434,16.8722832 C68.2300434,15.3496098 66.9954046,14.1151301 65.4727312,14.1151301 L65.4727312,14.1151301 Z" id="Shape"></path>
                    </g>
                </g>
            </g>
        </g>
    </g>
</svg>