<?xml version="1.0" encoding="UTF-8" standalone="no"?>
<svg width="49px" height="55px" viewBox="0 0 49 55" version="1.1" xmlns="http://www.w3.org/2000/svg" xmlns:xlink="http://www.w3.org/1999/xlink" xmlns:sketch="http://www.bohemiancoding.com/sketch/ns">
    <!-- Generator: Sketch 3.4.2 (15857) - http://www.bohemiancoding.com/sketch -->
    <title>mail1</title>
    <desc>Created with Sketch.</desc>
    <defs></defs>
    <g id="Welcome" stroke="none" stroke-width="1" fill="none" fill-rule="evenodd" sketch:type="MSPage">
        <g id="iconsets" sketch:type="MSArtboardGroup" transform="translate(-891.000000, -991.000000)" fill="#FFFFFF">
            <g id="mail1" sketch:type="MSLayerGroup" transform="translate(891.000000, 991.000000)">
                <g id="Capa_1" sketch:type="MSShapeGroup">
                    <g id="Group">
                        <path d="M12.7440525,51.5003425 L7.37627854,51.5003425 L7.37627854,43.4132078 C7.37627854,41.2771233 7.81401826,39.3252511 8.24623288,37.9176027 L11.6596233,47.0204795 C11.8314041,47.4786872 12.2682648,47.7721461 12.7434247,47.7721461 C12.8119863,47.7721461 12.8813014,47.7659932 12.950742,47.7534361 C13.5017466,47.6536073 13.9023174,47.1738014 13.9023174,46.6137557 L13.9023174,28.3703311 L20.0237671,28.3703311 C20.9822489,28.3703311 21.7620434,27.6214269 21.7620434,26.7009932 L21.7620434,18.9161073 C21.7620434,17.9956735 20.9822489,17.2467694 20.0237671,17.2467694 L13.9023174,17.2467694 L13.9023174,1.15826484 C13.9023174,0.598344749 13.5017466,0.118538813 12.950742,0.0185844749 C12.4004909,-0.0809931507 11.8562671,0.227283105 11.6596233,0.751541096 L7.23287671,12.5570776 L5.21030822,12.5570776 C4.57065068,12.5570776 4.05204338,13.0755594 4.05204338,13.7153425 L4.05204338,34.0568037 C4.05204338,34.6964612 4.57052511,35.2150685 5.21030822,35.2150685 L5.59894977,35.2150685 C4.99194064,36.7486644 3.98586758,39.8302968 3.98586758,43.4133333 L3.98586758,51.500468 L1.71291096,51.500468 C0.776655251,51.500468 0.0177054795,52.2594178 0.0177054795,53.1956735 C0.0177054795,54.1319292 0.776655251,54.890879 1.71291096,54.890879 L12.7441781,54.890879 C13.6804338,54.890879 14.4393836,54.1319292 14.4393836,53.1956735 C14.439258,52.2592922 13.6803082,51.5003425 12.7440525,51.5003425 L12.7440525,51.5003425 Z M19.3524658,18.720468 L14.4393836,22.8823858 L13.9024429,22.4274429 L13.9024429,18.720468 L19.3524658,18.720468 L19.3524658,18.720468 Z" id="Shape"></path>
                        <path d="M22.3006164,14.6580023 L30.329863,14.6580023 C31.0188699,14.6580023 31.5795434,14.1195548 31.5795434,13.4579224 L31.5795434,7.86135845 C31.5795434,7.19972603 31.0189954,6.66127854 30.329863,6.66127854 L22.3006164,6.66127854 C21.6116096,6.66127854 21.0509361,7.19972603 21.0509361,7.86135845 L21.0509361,13.4577968 C21.0509361,14.1195548 21.6116096,14.6580023 22.3006164,14.6580023 L22.3006164,14.6580023 Z M29.8472945,7.72071918 L26.3152397,10.7126941 L22.7833105,7.72071918 L29.8472945,7.72071918 L29.8472945,7.72071918 Z" id="Shape"></path>
                        <path d="M36.843847,28.7896119 L36.843847,23.1931735 C36.843847,22.5314155 36.2832991,21.9930936 35.5941667,21.9930936 L27.5649201,21.9930936 C26.8759132,21.9930936 26.3152397,22.5315411 26.3152397,23.1931735 L26.3152397,28.7896119 C26.3152397,29.4513699 26.8757877,29.9896918 27.5649201,29.9896918 L35.5941667,29.9896918 C36.2831735,29.9896918 36.843847,29.4513699 36.843847,28.7896119 L36.843847,28.7896119 Z M35.1115982,23.0525342 L31.5795434,26.0445091 L28.0474886,23.0525342 L35.1115982,23.0525342 L35.1115982,23.0525342 Z" id="Shape"></path>
                        <path d="M24.4850457,31.6406963 L19.0390411,31.6406963 C18.5716667,31.6406963 18.1915639,32.0058562 18.1915639,32.4546461 L18.1915639,36.2505251 C18.1915639,36.6994406 18.5716667,37.0644749 19.0390411,37.0644749 L24.4850457,37.0644749 C24.9524201,37.0644749 25.3325228,36.6994406 25.3325228,36.2505251 L25.3325228,32.4546461 C25.3325228,32.0058562 24.9524201,31.6406963 24.4850457,31.6406963 L24.4850457,31.6406963 Z M24.1576826,32.3592123 L21.7619178,34.3886872 L19.3662785,32.3592123 L24.1576826,32.3592123 L24.1576826,32.3592123 Z" id="Shape"></path>
                        <path d="M39.9906507,20.9232306 L45.4366553,20.9232306 C45.9040297,20.9232306 46.2841324,20.5581963 46.2841324,20.1092808 L46.2841324,16.3134018 C46.2841324,15.8646119 45.9040297,15.4994521 45.4366553,15.4994521 L39.9906507,15.4994521 C39.5232763,15.4994521 39.1431735,15.8646119 39.1431735,16.3134018 L39.1431735,20.1092808 C39.1431735,20.5580708 39.5234018,20.9232306 39.9906507,20.9232306 L39.9906507,20.9232306 Z M45.1094178,16.217968 L42.713653,18.2474429 L40.3180137,16.217968 L45.1094178,16.217968 L45.1094178,16.217968 Z" id="Shape"></path>
                        <path d="M46.9274315,32.4222489 L36.2153653,32.4222489 C35.2960616,32.4222489 34.5481621,33.1405137 34.5481621,34.0232763 L34.5481621,41.489589 C34.5481621,42.3723516 35.2960616,43.0906164 36.2153653,43.0906164 L46.9274315,43.0906164 C47.8467352,43.0906164 48.5946347,42.372226 48.5946347,41.489589 L48.5946347,34.0234018 C48.5945091,33.1406393 47.8466096,32.4222489 46.9274315,32.4222489 L46.9274315,32.4222489 Z M46.2835046,33.8356735 L41.5713356,37.8273174 L36.8592922,33.8356735 L46.2835046,33.8356735 L46.2835046,33.8356735 Z" id="Shape"></path>
                    </g>
                </g>
            </g>
        </g>
    </g>
</svg>