<?xml version="1.0" encoding="UTF-8" standalone="no"?>
<svg width="55px" height="55px" viewBox="0 0 55 55" version="1.1" xmlns="http://www.w3.org/2000/svg" xmlns:xlink="http://www.w3.org/1999/xlink" xmlns:sketch="http://www.bohemiancoding.com/sketch/ns">
    <!-- Generator: Sketch 3.4.2 (15857) - http://www.bohemiancoding.com/sketch -->
    <title>marketingbuzz</title>
    <desc>Created with Sketch.</desc>
    <defs></defs>
    <g id="Welcome" stroke="none" stroke-width="1" fill="none" fill-rule="evenodd" sketch:type="MSPage">
        <g id="iconsets" sketch:type="MSArtboardGroup" transform="translate(-1230.000000, -827.000000)" fill="#FFFFFF">
            <g id="marketingbuzz" sketch:type="MSLayerGroup" transform="translate(1230.000000, 827.000000)">
                <g id="Capa_1" sketch:type="MSShapeGroup">
                    <g id="Group">
                        <g>
                            <ellipse id="Oval" cx="27.4804274" cy="4.25850895" rx="4.25730616" ry="4.25730616"></ellipse>
                            <ellipse id="Oval" cx="27.4804274" cy="50.7070477" rx="4.25730616" ry="4.25730616"></ellipse>
                            <ellipse id="Oval" cx="50.7059543" cy="27.486332" rx="4.25971173" ry="4.25971173"></ellipse>
                            <ellipse id="Oval" cx="4.25971173" cy="27.486332" rx="4.25971173" ry="4.25971173"></ellipse>
                            <path d="M40.0237078,40.0248012 L39.0000298,36.5127833 L38.1532704,37.3501392 L34.0374553,33.2343241 C35.2450497,31.8214911 36.0021471,30.0360139 36.0989165,28.0571074 L42.0096123,28.0571074 L42.0096123,29.2458946 L45.2220278,27.4840358 L42.0096123,25.7221769 L42.0096123,26.9109642 L36.0681909,26.9109642 C35.9077833,24.9768887 35.1270676,23.2291352 33.9005567,21.865835 L38.153161,17.6132306 L38.9999205,18.4575845 L40.0235984,14.9384592 L36.5068787,15.9644334 L37.3465308,16.8064911 L33.0797117,21.0733101 C31.7046024,19.896332 29.9710636,19.1557455 28.0510934,19.0260636 L28.0510934,12.9572565 L29.2421769,12.9572565 L27.4781312,9.74232604 L25.7185686,12.9571471 L26.9120577,12.9571471 L26.9120577,19.0235487 C24.9920875,19.1532306 23.2538469,19.8962227 21.8787376,21.0732008 L17.6119185,16.8063817 L18.4562724,15.9643241 L14.9395527,14.9383499 L15.9655268,18.4574751 L16.8098807,17.6131213 L21.0577833,21.8610239 C19.8312724,23.2243241 19.0482604,24.9720775 18.8878529,26.9084493 L12.955835,26.9084493 L12.955835,25.719662 L9.74341948,27.4815209 L12.955835,29.2433797 L12.955835,28.0545924 L18.854831,28.0545924 C18.9538966,30.033499 19.710994,31.8213817 20.9185885,33.2318091 L16.8027734,37.3476243 L15.9584195,36.512674 L14.9394433,40.0269881 L18.456163,39.0033101 L17.6118091,38.1589563 L21.7135189,34.0549503 C23.1145427,35.3120775 24.9142346,36.1046024 26.9095427,36.2366899 L26.9095427,42.0105964 L25.7160537,42.0105964 L27.4756163,45.2207157 L29.2422863,42.0105964 L28.0512028,42.0105964 L28.0512028,36.2366899 C30.0466203,36.1021968 31.8439066,35.3073757 33.2425249,34.0525447 L37.3489364,38.1589563 L36.5045825,39.0010139 L40.0237078,40.0248012 L40.0237078,40.0248012 Z" id="Shape"></path>
                            <ellipse id="Oval" cx="43.9012624" cy="11.0607952" rx="4.25730616" ry="4.25730616"></ellipse>
                            <ellipse id="Oval" cx="11.0595924" cy="43.907167" rx="4.25730616" ry="4.25730616"></ellipse>
                            <ellipse id="Oval" cx="43.9012624" cy="43.907167" rx="4.25730616" ry="4.25730616"></ellipse>
                            <ellipse id="Oval" cx="11.0572962" cy="11.0607952" rx="4.25971173" ry="4.25971173"></ellipse>
                        </g>
                    </g>
                </g>
            </g>
        </g>
    </g>
</svg>