<?xml version="1.0" encoding="UTF-8" standalone="no"?>
<svg width="62px" height="55px" viewBox="0 0 62 55" version="1.1" xmlns="http://www.w3.org/2000/svg" xmlns:xlink="http://www.w3.org/1999/xlink" xmlns:sketch="http://www.bohemiancoding.com/sketch/ns">
    <!-- Generator: Sketch 3.4.2 (15857) - http://www.bohemiancoding.com/sketch -->
    <title>monitor7</title>
    <desc>Created with Sketch.</desc>
    <defs></defs>
    <g id="Welcome" stroke="none" stroke-width="1" fill="none" fill-rule="evenodd" sketch:type="MSPage">
        <g id="iconsets" sketch:type="MSArtboardGroup" transform="translate(-1142.000000, -827.000000)" fill="#FFFFFF">
            <g id="monitor7" sketch:type="MSLayerGroup" transform="translate(1142.000000, 827.000000)">
                <g id="Capa_1" sketch:type="MSShapeGroup">
                    <g id="Group">
                        <g id="Shape">
                            <path d="M57.3161921,0.0524503311 L3.7163245,0.0524503311 C1.670883,0.0524503311 0,1.72600442 0,3.76610375 L0,42.3042274 C0,44.341777 1.670883,46.0178808 3.7163245,46.0178808 L57.3161921,46.0178808 C59.3589625,46.0178808 61.0298455,44.341777 61.0298455,42.3042274 L61.0298455,3.76610375 C61.0298455,1.72600442 59.3589625,0.0524503311 57.3161921,0.0524503311 L57.3161921,0.0524503311 Z M56.3811921,39.5726821 L4.64865342,39.5726821 L4.64865342,5.26154525 L56.3811921,5.26154525 L56.3811921,39.5726821 L56.3811921,39.5726821 Z"></path>
                            <path d="M23.63883,47.7805519 L16.6251766,54.906755 L44.506777,54.906755 L37.4931236,47.7805519 L23.63883,47.7805519 Z"></path>
                            <path d="M12.5475276,32.6927042 C13.9173068,32.6927042 15.0329691,31.5795916 15.0329691,30.2099338 C15.0329691,29.9611589 14.9596358,29.7359382 14.8915232,29.5080464 C18.0682892,26.9467219 23.6808389,22.4316225 26.2394923,20.4595143 C26.6428256,20.7449558 27.1116004,20.9492936 27.6432671,20.9492936 C28.0858168,20.9492936 28.4787086,20.8026269 28.8374834,20.6009603 C30.4821413,21.9995143 33.2792494,24.3775055 35.2644702,26.0667219 C35.238245,26.2107174 35.1806954,26.3390508 35.1806954,26.4909382 C35.1806954,27.8632671 36.2963576,28.9763797 37.6686865,28.9763797 C39.0410155,28.9763797 40.1566777,27.8632671 40.1566777,26.4909382 C40.1566777,26.2473841 40.0833444,26.024713 40.0179029,25.8021634 L46.4448896,19.9985099 C46.7905519,20.1791722 47.1624393,20.3075055 47.5815563,20.3075055 C48.9538852,20.3075055 50.0669978,19.1943929 50.0669978,17.822064 C50.0669978,16.4497351 48.9538852,15.3366225 47.5815563,15.3366225 C46.2092274,15.3366225 45.0987859,16.4497351 45.0987859,17.8246137 C45.0987859,18.1519426 45.1694481,18.4636093 45.2846689,18.7490508 C43.4880022,20.3701545 40.7172406,22.8739294 38.9886865,24.4348124 C38.6036865,24.1860375 38.1689073,24.0027042 37.6713576,24.0027042 C37.0846909,24.0027042 36.5713576,24.2358168 36.1471413,24.5735872 C34.5050331,23.1777042 31.8493709,20.9201545 29.9611589,19.314713 C30.0607174,19.0476049 30.1313797,18.7673841 30.1313797,18.4636093 C30.1313797,17.0912804 29.0182671,15.9781678 27.6459382,15.9781678 C26.2736093,15.9781678 25.1604967,17.0912804 25.1604967,18.4636093 C25.1604967,18.7673841 25.23383,19.0502759 25.3333885,19.3173841 L13.9251987,28.1930243 C13.5270861,27.9206954 13.0687528,27.7215784 12.5501987,27.7215784 C11.1778698,27.7215784 10.0647572,28.8346909 10.0647572,30.2070199 C10.0620861,31.5795916 11.1751987,32.6927042 12.5475276,32.6927042 L12.5475276,32.6927042 Z"></path>
                        </g>
                    </g>
                </g>
            </g>
        </g>
    </g>
</svg>