<?xml version="1.0" encoding="UTF-8" standalone="no"?>
<svg width="20px" height="20px" viewBox="0 0 20 20" version="1.1" xmlns="http://www.w3.org/2000/svg" xmlns:xlink="http://www.w3.org/1999/xlink" xmlns:sketch="http://www.bohemiancoding.com/sketch/ns">
    <!-- Generator: Sketch 3.3.3 (12072) - http://www.bohemiancoding.com/sketch -->
    <title>ios-contact-outline - Ionicons</title>
    <desc>Created with Sketch.</desc>
    <defs></defs>
    <g id="Welcome" stroke="none" stroke-width="1" fill="none" fill-rule="evenodd" sketch:type="MSPage">
        <g id="Desktop-HD-Copy-5" sketch:type="MSArtboardGroup" transform="translate(-16.000000, -816.000000)" fill="#FFFFFF">
            <path d="M25.75,816.25 C28.4375134,816.25 30.7343655,817.203115 32.640625,819.109375 C34.5468845,821.015635 35.5,823.312487 35.5,826 C35.5,828.687513 34.5468845,830.984365 32.640625,832.890625 C30.7343655,834.796885 28.4375134,835.75 25.75,835.75 C23.0624866,835.75 20.7656345,834.796885 18.859375,832.890625 C16.9531155,830.984365 16,828.687513 16,826 C16,823.312487 16.9531155,821.015635 18.859375,819.109375 C20.7656345,817.203115 23.0624866,816.25 25.75,816.25 L25.75,816.25 Z M25.75,817.046875 C23.2812377,817.046875 21.1718837,817.921866 19.421875,819.671875 C17.6718663,821.421884 16.796875,823.531238 16.796875,826 C16.796875,828.156261 17.499993,830.062492 18.90625,831.71875 C20.1562562,831.156247 21.5624922,830.656252 23.125,830.21875 C23.2187505,830.15625 23.265625,830.000001 23.265625,829.75 C23.265625,829.249997 23.2031256,828.875001 23.078125,828.625 C22.9218742,828.281248 22.7812506,827.796878 22.65625,827.171875 C22.3749986,826.796873 22.1562508,826.281253 22,825.625 C21.9062495,825.124997 21.9218744,824.687502 22.046875,824.3125 L22.046875,824.21875 C22.1406255,823.906248 22.0937509,823.312504 21.90625,822.4375 C21.7499992,821.624996 21.9843719,820.812504 22.609375,820 C23.203128,819.218746 24.1093689,818.78125 25.328125,818.6875 L26.171875,818.6875 C27.3906311,818.75 28.296872,819.187496 28.890625,820 C29.5156281,820.812504 29.7500008,821.624996 29.59375,822.4375 C29.4062491,823.312504 29.3593745,823.906248 29.453125,824.21875 C29.4843752,824.25 29.5,824.28125 29.5,824.3125 C29.5937505,824.625002 29.5937505,825.062497 29.5,825.625 C29.3749994,826.250003 29.1562516,826.749998 28.84375,827.125 C28.7187494,827.812503 28.5781258,828.312498 28.421875,828.625 C28.2343741,829.062502 28.140625,829.421874 28.140625,829.703125 C28.140625,830.015627 28.1718747,830.1875 28.234375,830.21875 C29.7968828,830.687502 31.2499933,831.187497 32.59375,831.71875 C34.000007,830.062492 34.703125,828.156261 34.703125,826 C34.703125,823.531238 33.8281337,821.421884 32.078125,819.671875 C30.3281163,817.921866 28.2187623,817.046875 25.75,817.046875 L25.75,817.046875 Z" id="ios-contact-outline---Ionicons" sketch:type="MSShapeGroup"></path>
        </g>
    </g>
</svg>