<?xml version="1.0" encoding="UTF-8" standalone="no"?>
<svg width="64px" height="55px" viewBox="0 0 64 55" version="1.1" xmlns="http://www.w3.org/2000/svg" xmlns:xlink="http://www.w3.org/1999/xlink" xmlns:sketch="http://www.bohemiancoding.com/sketch/ns">
    <!-- Generator: Sketch 3.4.2 (15857) - http://www.bohemiancoding.com/sketch -->
    <title>network11</title>
    <desc>Created with Sketch.</desc>
    <defs></defs>
    <g id="Welcome" stroke="none" stroke-width="1" fill="none" fill-rule="evenodd" sketch:type="MSPage">
        <g id="iconsets" sketch:type="MSArtboardGroup" transform="translate(-1052.000000, -827.000000)" fill="#FFFFFF">
            <g id="network11" sketch:type="MSLayerGroup" transform="translate(1052.000000, 827.000000)">
                <g id="Capa_1" sketch:type="MSShapeGroup">
                    <g id="Group">
                        <g>
                            <circle id="Oval" cx="31.5683676" cy="7.47761416" r="7.37025114"></circle>
                            <path d="M57.3683904,27.7546575 L50.4992922,26.3217694 C48.1590297,25.8315411 45.8485274,26.9041667 44.6269749,28.8110845 C43.4405822,28.2016895 42.1647831,27.6761758 40.8077397,27.2400685 L40.8077397,23.1553767 C40.8105023,20.0648288 38.2805023,17.5375913 35.200879,17.5375913 L28.1773288,17.5375913 C25.0813813,17.5375913 22.5623059,20.0648288 22.5623059,23.1553767 L22.5623059,27.2616667 C21.2188242,27.6896119 19.9565868,28.2151256 18.762032,28.8272831 C17.5404795,26.9122032 15.2272146,25.8315411 12.8841895,26.3217694 L6.00956621,27.7546575 C2.99210046,28.3857763 1.03369863,31.3788813 1.66481735,34.4071461 L3.39028539,42.6496119 C4.01600457,45.6697146 7.01174658,47.6281164 10.0319749,46.9969977 L12.2069863,46.5419292 C13.2958105,48.1508676 14.8019064,49.6270776 16.7304224,50.8893151 C20.7473059,53.5221575 26.0536758,54.9740068 31.6848973,54.9740068 C40.3011872,54.9740068 47.7229224,51.5096347 51.14121,46.5337671 L53.3515068,46.9969977 C56.3689726,47.6253539 59.3647146,45.6697146 59.9904338,42.6496119 L61.7185388,34.4071461 C62.346895,31.3788813 60.3884932,28.3857763 57.3683904,27.7546575 L57.3683904,27.7546575 Z M31.6821347,52.1597146 C26.5952626,52.1597146 21.827968,50.878516 18.2715525,48.5354909 C17.052637,47.739121 16.0422945,46.8534703 15.2324886,45.905411 L16.8983105,45.5559475 C19.9211758,44.9275913 21.8795776,41.9344863 21.2484589,38.911621 L19.7018037,31.5006849 C20.6037785,31.0158562 21.5518379,30.5905479 22.5594178,30.2276484 L22.5594178,31.5792922 C22.5594178,34.6644406 25.0838927,37.1916781 28.1744406,37.1916781 L35.1979909,37.1916781 C38.2805023,37.1916781 40.8049772,34.6618037 40.8049772,31.5792922 L40.8049772,30.1572032 C41.8315183,30.5228653 42.7957763,30.942774 43.6897146,31.4194406 L42.1213356,38.9143836 C41.4956164,41.9372489 43.4512557,44.9303539 46.474121,45.55871 L48.1561416,45.9108105 C45.0196347,49.6244406 38.8140525,52.1597146 31.6821347,52.1597146 L31.6821347,52.1597146 Z" id="Shape"></path>
                            <circle id="Oval" cx="55.8732192" cy="17.1665297" r="7.37025114"></circle>
                            <path d="M9.00794521,24.3823288 C12.9950685,23.5480365 15.5412671,19.6395205 14.717774,15.6550342 C13.8780822,11.6733105 9.97760274,9.11631279 5.98771689,9.95060502 C2.00599315,10.7821347 -0.551004566,14.6880137 0.283287671,18.6725 C1.11494292,22.6596233 5.02082192,25.213984 9.00794521,24.3823288 L9.00794521,24.3823288 Z" id="Shape"></path>
                        </g>
                    </g>
                </g>
            </g>
        </g>
    </g>
</svg>