<?xml version="1.0" encoding="UTF-8" standalone="no"?>
<svg width="38px" height="48px" viewBox="0 0 38 48" version="1.1" xmlns="http://www.w3.org/2000/svg" xmlns:xlink="http://www.w3.org/1999/xlink" xmlns:sketch="http://www.bohemiancoding.com/sketch/ns">
    <!-- Generator: Sketch 3.3.3 (12072) - http://www.bohemiancoding.com/sketch -->
    <title>new-category</title>
    <desc>Created with Sketch.</desc>
    <defs></defs>
    <g id="Page-1" stroke="none" stroke-width="1" fill="none" fill-rule="evenodd" sketch:type="MSPage">
        <g id="new-category" sketch:type="MSLayerGroup" transform="translate(0.000000, -0.108858)" fill="#FFFFFF">
            <g id="Page-1" sketch:type="MSShapeGroup">
                <path d="M36.91,13.587 C36.496,13.587 36.16,13.923 36.16,14.337 L36.16,28.161 C36.16,28.575 36.496,28.911 36.91,28.911 C37.324,28.911 37.66,28.575 37.66,28.161 L37.66,14.337 C37.66,13.923 37.324,13.587 36.91,13.587 L36.91,13.587 L36.91,13.587 Z M27.833,27.364 C22.25,27.364 17.707,31.906 17.707,37.489 C17.707,43.073 22.25,47.616 27.833,47.616 C33.417,47.616 37.959,43.073 37.959,37.489 C37.959,31.906 33.417,27.364 27.833,27.364 L27.833,27.364 L27.833,27.364 Z M27.833,46.116 C23.077,46.116 19.207,42.246 19.207,37.489 C19.207,32.733 23.077,28.864 27.833,28.864 C32.59,28.864 36.459,32.733 36.459,37.489 C36.459,42.246 32.59,46.116 27.833,46.116 L27.833,46.116 L27.833,46.116 Z M29.312,13.229 L36.93,13.229 C37.344,13.229 37.68,12.894 37.68,12.479 C37.68,12.222 37.55,11.994 37.352,11.859 L26.674,1.023 C26.461,0.808 26.138,0.742 25.855,0.855 C25.574,0.972 25.39,1.245 25.39,1.55 L25.39,9.306 C25.39,11.47 27.15,13.229 29.312,13.229 L29.312,13.229 L29.312,13.229 Z M26.89,3.38 L35.118,11.729 L29.312,11.729 C27.977,11.729 26.89,10.643 26.89,9.306 L26.89,3.38 L26.89,3.38 Z M29.775,20.94 C29.361,20.94 29.025,21.276 29.025,21.69 L29.025,24.571 C29.025,24.985 29.361,25.321 29.775,25.321 C30.189,25.321 30.525,24.985 30.525,24.571 L30.525,21.69 C30.525,21.276 30.189,20.94 29.775,20.94 L29.775,20.94 L29.775,20.94 Z M18.711,45.97 L4.746,45.97 C3.278,45.97 2.083,44.772 2.083,43.302 L2.086,11.831 C2.131,10.381 3.299,9.245 4.746,9.245 L17.153,9.245 C17.567,9.245 17.903,8.909 17.903,8.495 C17.903,8.081 17.567,7.745 17.153,7.745 L9.224,7.745 L9.224,4.886 C9.269,3.435 10.437,2.3 11.884,2.3 L24.289,2.3 C24.703,2.3 25.039,1.964 25.039,1.55 C25.039,1.136 24.703,0.8 24.289,0.8 L11.884,0.8 C9.621,0.8 7.794,2.574 7.724,4.862 L7.724,7.745 L4.746,7.745 C2.484,7.745 0.657,9.519 0.586,11.808 L0.583,43.302 C0.583,45.6 2.451,47.47 4.746,47.47 L18.711,47.47 C19.125,47.47 19.461,47.134 19.461,46.72 C19.461,46.306 19.125,45.97 18.711,45.97 L18.711,45.97 L18.711,45.97 Z M32.136,36.739 L28.583,36.739 L28.583,33.185 C28.583,32.77 28.248,32.435 27.833,32.435 C27.419,32.435 27.083,32.77 27.083,33.185 L27.083,36.739 L23.529,36.739 C23.115,36.739 22.779,37.075 22.779,37.489 C22.779,37.903 23.115,38.239 23.529,38.239 L27.083,38.239 L27.083,41.792 C27.083,42.206 27.419,42.542 27.833,42.542 C28.248,42.542 28.583,42.206 28.583,41.792 L28.583,38.239 L32.136,38.239 C32.55,38.239 32.886,37.903 32.886,37.489 C32.886,37.075 32.55,36.739 32.136,36.739 L32.136,36.739 L32.136,36.739 Z M30.217,18.803 L19.539,7.969 C19.326,7.753 19.003,7.687 18.72,7.801 C18.439,7.917 18.255,8.19 18.255,8.495 L18.255,16.251 C18.255,18.413 20.015,20.173 22.177,20.173 L29.775,20.173 C29.782,20.173 29.789,20.172 29.795,20.173 C30.209,20.173 30.545,19.837 30.545,19.423 C30.545,19.165 30.415,18.937 30.217,18.803 L30.217,18.803 L30.217,18.803 Z M22.177,18.673 C20.842,18.673 19.755,17.586 19.755,16.251 L19.755,10.324 L27.983,18.673 L22.177,18.673 L22.177,18.673 Z" id="Fill-78"></path>
            </g>
        </g>
    </g>
</svg>