<?xml version="1.0" encoding="UTF-8" standalone="no"?>
<svg width="40px" height="48px" viewBox="0 0 40 48" version="1.1" xmlns="http://www.w3.org/2000/svg" xmlns:xlink="http://www.w3.org/1999/xlink" xmlns:sketch="http://www.bohemiancoding.com/sketch/ns">
    <!-- Generator: Sketch 3.3.3 (12072) - http://www.bohemiancoding.com/sketch -->
    <title>new-cat</title>
    <desc>Created with Sketch.</desc>
    <defs></defs>
    <g id="Page-1" stroke="none" stroke-width="1" fill="none" fill-rule="evenodd" sketch:type="MSPage">
        <g id="new-cat" sketch:type="MSLayerGroup" transform="translate(0.500000, -0.108858)" fill="#FFFFFF">
            <g id="Page-1" sketch:type="MSShapeGroup">
                <path d="M34.6129412,15.3623529 C34.1258824,15.3623529 33.7305882,15.7576471 33.7305882,16.2447059 L33.7305882,25.7 C33.7305882,26.1870588 34.1258824,26.5823529 34.6129412,26.5823529 C35.1,26.5823529 35.4952941,26.1870588 35.4952941,25.7 L35.4952941,16.2447059 C35.4952941,15.7576471 35.1,15.3623529 34.6129412,15.3623529 L34.6129412,15.3623529 L34.6129412,15.3623529 Z M25.6741176,14.9411765 L34.6129412,14.9411765 C34.6211765,14.94 34.6282353,14.94 34.6364706,14.9411765 C35.1235294,14.9411765 35.5188235,14.5458824 35.5188235,14.0588235 C35.5188235,13.7552941 35.3658824,13.4882353 35.1329412,13.3294118 L22.5705882,0.581176471 C22.32,0.327058824 21.94,0.251764706 21.6070588,0.383529412 C21.2764706,0.52 21.06,0.842352941 21.06,1.2 L21.06,10.3247059 C21.06,12.8705882 23.1305882,14.9411765 25.6741176,14.9411765 L25.6741176,14.9411765 L25.6741176,14.9411765 Z M22.8247059,3.35411765 L32.5047059,13.1764706 L25.6741176,13.1764706 C24.1035294,13.1764706 22.8247059,11.8976471 22.8247059,10.3247059 L22.8247059,3.35411765 L22.8247059,3.35411765 Z M29.8647059,28.3329412 C24.6552941,28.3329412 20.4176471,32.5705882 20.4176471,37.7788235 C20.4176471,42.9882353 24.6552941,47.2258824 29.8647059,47.2258824 C35.0729412,47.2258824 39.3105882,42.9882353 39.3105882,37.7788235 C39.3105882,32.5705882 35.0729412,28.3329412 29.8647059,28.3329412 L29.8647059,28.3329412 L29.8647059,28.3329412 Z M29.8647059,45.4611765 C25.6294118,45.4611765 22.1823529,42.0152941 22.1823529,37.7788235 C22.1823529,33.5435294 25.6294118,30.0976471 29.8647059,30.0976471 C34.1,30.0976471 37.5458824,33.5435294 37.5458824,37.7788235 C37.5458824,42.0152941 34.1,45.4611765 29.8647059,45.4611765 L29.8647059,45.4611765 L29.8647059,45.4611765 Z M20.5211765,45.2882353 L5.17058824,45.2882353 C3.44352941,45.2882353 2.03764706,43.88 2.03764706,42.1494118 L2.04117647,5.12705882 C2.09411765,3.42 3.46823529,2.08235294 5.17058824,2.08235294 L19.7635294,2.08235294 C20.2505882,2.08235294 20.6458824,1.68823529 20.6458824,1.2 C20.6458824,0.712941176 20.2505882,0.317647059 19.7635294,0.317647059 L5.17058824,0.317647059 C2.50823529,0.317647059 0.36,2.40705882 0.276470588,5.1 L0.272941176,42.1494118 C0.272941176,44.8529412 2.47058824,47.0529412 5.17058824,47.0529412 L20.5211765,47.0529412 C21.0082353,47.0529412 21.4035294,46.6576471 21.4035294,46.1705882 C21.4035294,45.6835294 21.0082353,45.2882353 20.5211765,45.2882353 L20.5211765,45.2882353 L20.5211765,45.2882353 Z M33.7929412,36.8964706 L30.7458824,36.8964706 L30.7458824,33.8470588 C30.7458824,33.36 30.3505882,32.9647059 29.8635294,32.9647059 C29.3764706,32.9647059 28.9811765,33.36 28.9811765,33.8470588 L28.9811765,36.8964706 L25.9329412,36.8964706 C25.4458824,36.8964706 25.0505882,37.2917647 25.0505882,37.7788235 C25.0505882,38.2658824 25.4458824,38.6611765 25.9329412,38.6611765 L28.9811765,38.6611765 L28.9811765,41.7105882 C28.9811765,42.1976471 29.3764706,42.5929412 29.8635294,42.5929412 C30.3505882,42.5929412 30.7458824,42.1976471 30.7458824,41.7105882 L30.7458824,38.6611765 L33.7929412,38.6611765 C34.28,38.6611765 34.6752941,38.2658824 34.6752941,37.7788235 C34.6752941,37.2917647 34.28,36.8964706 33.7929412,36.8964706 L33.7929412,36.8964706 L33.7929412,36.8964706 Z" id="Fill-77"></path>
            </g>
        </g>
    </g>
</svg>