<?xml version="1.0" encoding="UTF-8" standalone="no"?>
<svg width="46px" height="49px" viewBox="0 0 46 49" version="1.1" xmlns="http://www.w3.org/2000/svg" xmlns:xlink="http://www.w3.org/1999/xlink" xmlns:sketch="http://www.bohemiancoding.com/sketch/ns">
    <!-- Generator: Sketch 3.3.3 (12072) - http://www.bohemiancoding.com/sketch -->
    <title>document302</title>
    <desc>Created with Sketch.</desc>
    <defs></defs>
    <g id="Page-1" stroke="none" stroke-width="1" fill="none" fill-rule="evenodd" sketch:type="MSPage">
        <g id="document302" sketch:type="MSLayerGroup" transform="translate(0.655172, 0.108858)" fill="#FFFFFF">
            <path d="M26.2276552,41.2966552 C25.2328966,41.2966552 24.419069,42.1104828 24.419069,43.1052414 C24.419069,44.1 25.2328966,44.9138276 26.2276552,44.9138276 L42.8065862,44.9138276 C43.8013448,44.9138276 44.6151724,44.1 44.6151724,43.1052414 L44.6151724,14.3181724 C44.6151724,13.8056897 44.4041379,13.3234138 44.0424828,12.9918621 L30.477931,0.482275862 C30.1462759,0.180827586 29.6941034,0 29.2420345,0 L9.04582759,0 C8.05106897,0 7.23724138,0.813827586 7.23724138,1.80858621 L7.23724138,21.4018966 C7.23724138,22.3966552 8.05106897,23.2104828 9.04582759,23.2104828 C10.0405862,23.2104828 10.8544138,22.3966552 10.8544138,21.4018966 L10.8544138,3.61727586 L25.3233103,3.61727586 L25.3233103,19.2919655 C25.3233103,20.2867241 26.1371379,21.1005517 27.1318966,21.1005517 L40.6965517,21.1005517 C40.7869655,21.1005517 40.9075862,21.1005517 40.998,21.0704483 L40.998,41.2967586 L26.2276552,41.2967586 L26.2276552,41.2966552 Z M40.6965517,17.4832759 L28.9405862,17.4832759 L28.9405862,3.97893103 L40.998,15.1018966 L40.998,17.5133793 C40.9075862,17.4832759 40.7869655,17.4832759 40.6965517,17.4832759 L40.6965517,17.4832759 Z M0.00268965517,38.5838276 C0.00268965517,37.589069 0.816517241,36.7752414 1.81127586,36.7752414 L7.23713793,36.7752414 L7.23713793,31.047931 C7.23713793,30.0531724 8.05096552,29.2393448 9.04572414,29.2393448 C10.0404828,29.2393448 10.8543103,30.0531724 10.8543103,31.047931 L10.8543103,36.7752414 L16.883069,36.7752414 C17.8778276,36.7752414 18.6916552,37.589069 18.6916552,38.5838276 C18.6916552,39.5785862 17.8778276,40.3924138 16.883069,40.3924138 L10.8543103,40.3924138 L10.8543103,46.1197241 C10.8543103,47.1144828 10.0404828,47.9283103 9.04572414,47.9283103 C8.05096552,47.9283103 7.23713793,47.1144828 7.23713793,46.1197241 L7.23713793,40.3924138 L1.81137931,40.3924138 C0.81662069,40.3924138 0.00268965517,39.5784828 0.00268965517,38.5838276 L0.00268965517,38.5838276 Z" id="Shape" sketch:type="MSShapeGroup"></path>
        </g>
    </g>
</svg>