<?xml version="1.0" encoding="UTF-8" standalone="no"?>
<svg width="50px" height="55px" viewBox="0 0 50 55" version="1.1" xmlns="http://www.w3.org/2000/svg" xmlns:xlink="http://www.w3.org/1999/xlink" xmlns:sketch="http://www.bohemiancoding.com/sketch/ns">
    <!-- Generator: Sketch 3.4.2 (15857) - http://www.bohemiancoding.com/sketch -->
    <title>web7</title>
    <desc>Created with Sketch.</desc>
    <defs></defs>
    <g id="Welcome" stroke="none" stroke-width="1" fill="none" fill-rule="evenodd" sketch:type="MSPage">
        <g id="iconsets" sketch:type="MSArtboardGroup" transform="translate(-885.000000, -909.000000)" fill="#FFFFFF">
            <g id="web7" sketch:type="MSLayerGroup" transform="translate(885.000000, 909.000000)">
                <path d="M3.07289264,3.02139165 L38.3179423,3.02139165 L38.3179423,15.4372863 L41.3346322,15.4372863 L41.3346322,0 L0.0537972167,0 L0.0537972167,47.3189165 L15.7316402,47.3189165 L15.7316402,44.2975249 L3.07289264,44.2975249 L3.07289264,3.02139165 Z" id="Shape" sketch:type="MSShapeGroup"></path>
                <rect id="Rectangle-path" sketch:type="MSShapeGroup" x="30.9707952" y="30.3674354" width="18.0340954" height="24.595825"></rect>
                <path d="M42.796998,24.5935288 L24.7557952,24.5935288 L24.7557952,49.1893539 L28.7560338,49.1893539 L28.7560338,28.5512326 L42.796998,28.5512326 L42.796998,24.5935288 Z" id="Shape" sketch:type="MSShapeGroup"></path>
                <path d="M36.853171,18.4445726 L18.8119682,18.4445726 L18.8119682,43.0426938 L22.8146123,43.0426938 L22.8146123,22.4093837 L36.853171,22.4093837 L36.853171,18.4445726 Z" id="Shape" sketch:type="MSShapeGroup"></path>
            </g>
        </g>
    </g>
</svg>