<?xml version="1.0" encoding="UTF-8" standalone="no"?>
<svg width="50px" height="55px" viewBox="0 0 50 55" version="1.1" xmlns="http://www.w3.org/2000/svg" xmlns:xlink="http://www.w3.org/1999/xlink" xmlns:sketch="http://www.bohemiancoding.com/sketch/ns">
    <!-- Generator: Sketch 3.4.2 (15857) - http://www.bohemiancoding.com/sketch -->
    <title>file16</title>
    <desc>Created with Sketch.</desc>
    <defs></defs>
    <g id="Welcome" stroke="none" stroke-width="1" fill="none" fill-rule="evenodd" sketch:type="MSPage">
        <g id="iconsets" sketch:type="MSArtboardGroup" transform="translate(-798.000000, -741.000000)" fill="#FFFFFF">
            <g id="file16" sketch:type="MSLayerGroup" transform="translate(798.000000, 741.000000)">
                <g id="Capa_1" sketch:type="MSShapeGroup">
                    <g id="Group">
                        <g id="Shape">
                            <path d="M40.4814329,0 L5.74799599,0 L5.74799599,7.52254509 L0.103717435,7.52254509 L0.103717435,27.4867735 L5.74557114,27.4867735 L5.74557114,54.9378357 L49.9845291,54.9378357 L49.9845291,8.88960922 L40.4814329,0 L40.4814329,0 Z M29.9584669,16.6570641 L29.9584669,18.2928457 L25.909519,18.2928457 L25.909519,22.42501 L23.9552004,22.42501 L23.9552004,12.7270441 L30.6075551,12.7270441 L30.6075551,14.3675651 L25.909519,14.3675651 L25.909519,16.6571743 L29.9584669,16.6571743 L29.9584669,16.6570641 Z M22.2932966,17.6698798 C22.2932966,18.4687575 22.1934369,19.1558717 21.9961423,19.7335371 C21.7536573,20.4372946 21.4041483,21.0103307 20.959519,21.4453707 C20.6147495,21.782976 20.1630661,22.0373647 19.5900301,22.2204409 C19.1478257,22.356012 18.5724749,22.4273246 17.8543888,22.4273246 L14.1739078,22.4273246 L14.1739078,12.7269339 L17.7449399,12.7269339 C18.5508717,12.7269339 19.1690982,12.7863427 19.5922345,12.91001 C20.1581062,13.0811824 20.6430762,13.376022 21.0472545,13.804008 C21.4538577,14.231994 21.760491,14.7502505 21.9768537,15.3755311 C22.1886974,16.0008116 22.2932966,16.7592385 22.2932966,17.6698798 L22.2932966,17.6698798 Z M7.09367735,18.7659118 L7.09367735,22.4297495 L5.1392485,22.4297495 L5.1392485,22.4273246 L5.1392485,12.7269339 L8.27524048,12.7269339 C9.46396794,12.7269339 10.2390381,12.7768637 10.5957114,12.8742986 C11.1472545,13.0216633 11.6204309,13.3355711 11.9888978,13.8158016 C12.3692685,14.3079359 12.5547695,14.9379559 12.5547695,15.7035471 C12.5547695,16.3027054 12.4477455,16.7972645 12.2313828,17.2037575 C12.0174449,17.6174148 11.743988,17.9313226 11.4063828,18.1666433 C11.0806814,18.392485 10.7453908,18.5494389 10.4030461,18.6207515 C9.92986974,18.7111323 9.26182365,18.7658016 8.37498998,18.7658016 L7.09367735,18.7658016 L7.09367735,18.7659118 Z M46.7747996,51.7138878 L8.95761523,51.7138878 L8.95761523,27.4867735 L35.9189679,27.4867735 L35.9189679,7.52254509 L8.96004008,7.52254509 L8.96004008,3.21204409 L39.2189679,3.21204409 C39.9892986,3.93960922 45.9284168,9.49108216 46.7795391,10.2827956 C46.7747996,11.5881363 46.7747996,48.789519 46.7747996,51.7138878 L46.7747996,51.7138878 Z"></path>
                            <path d="M19.5162926,14.9191082 C19.2785471,14.6908417 18.9789679,14.543477 18.6152405,14.465 C18.3347295,14.4008517 17.8068838,14.3698798 17.0127455,14.3698798 L16.1330762,14.3698798 L16.1330762,20.7869138 L17.5880962,20.7869138 C18.1325852,20.7869138 18.5248597,20.7583667 18.7697695,20.6942184 C19.0907315,20.6157415 19.3522846,20.4754309 19.5590581,20.2900401 C19.772996,20.0997996 19.9394289,19.7907415 20.075,19.358016 C20.2057214,18.9205511 20.2747194,18.3261323 20.2747194,17.5796092 C20.2747194,16.8378257 20.2081463,16.2553106 20.075,15.8606112 C19.9371142,15.4564329 19.7516132,15.1449499 19.5162926,14.9191082 L19.5162926,14.9191082 Z"></path>
                            <path d="M10.2200802,14.8667535 C10.0156212,14.638487 9.75175351,14.4982866 9.43553106,14.4364529 C9.20968938,14.3912625 8.7341984,14.3698798 8.03518036,14.3698798 L7.09367735,14.3698798 L7.09367735,17.1206513 L8.15410822,17.1206513 C8.92675351,17.1206513 9.43795591,17.0731463 9.69708417,16.9684369 C9.95863727,16.8685772 10.1630962,16.7116232 10.3128858,16.4952605 C10.4602505,16.2788978 10.5292485,16.0292485 10.5292485,15.7391483 C10.5315631,15.3898597 10.4364429,15.0997595 10.2200802,14.8667535 L10.2200802,14.8667535 Z"></path>
                        </g>
                    </g>
                </g>
            </g>
        </g>
    </g>
</svg>