<?xml version="1.0" encoding="UTF-8" standalone="no"?>
<svg width="57px" height="49px" viewBox="0 0 57 49" version="1.1" xmlns="http://www.w3.org/2000/svg" xmlns:xlink="http://www.w3.org/1999/xlink" xmlns:sketch="http://www.bohemiancoding.com/sketch/ns">
    <!-- Generator: Sketch 3.3.3 (12072) - http://www.bohemiancoding.com/sketch -->
    <title>person-stalker - Ionicons</title>
    <desc>Created with Sketch.</desc>
    <defs></defs>
    <g id="Page-1" stroke="none" stroke-width="1" fill="none" fill-rule="evenodd" sketch:type="MSPage">
        <path d="M56.25,37.25 L56.5,48.5 L44.25,48.5 C44.25,42.5833037 44.2083338,39.3750025 44.125,38.875 C44.0416663,38.20833 43.9375006,37.6666688 43.8125,37.25 C43.6874994,36.8333312 43.0833388,36.1666713 42,35.25 C40.9166613,34.3333287 39.3333438,33.4583375 37.25,32.625 C36.9999988,32.5416663 36.6041694,32.3958344 36.0625,32.1875 C35.5208306,31.9791656 35.1250013,31.8333337 34.875,31.75 C35.208335,31.5833325 35.4999988,31.4166675 35.75,31.25 C36.0000013,31.0833325 36.2083325,30.9375006 36.375,30.8125 C36.5416675,30.6874994 36.6458331,30.5000012 36.6875,30.25 C36.7291669,29.9999988 36.75,29.8125006 36.75,29.6875 L36.75,28.9375 L36.75,28.25 C36.75,27.4999963 36.5000025,26.7291706 36,25.9375 C35.4999975,25.1458294 35.1250013,23.9583413 34.875,22.375 C34.7916663,21.8749975 34.6458344,21.4166688 34.4375,21 C34.2291656,20.5833312 34.0000013,19.875005 33.75,18.875 C33.5833325,18.4583312 33.5624994,18.0000025 33.6875,17.5 C33.8125006,16.9999975 33.875,16.7083337 33.875,16.625 C33.875,16.3749988 33.8333338,15.9583363 33.75,15.375 C33.6666663,14.7916637 33.625,14.2916688 33.625,13.875 C33.5416663,12.54166 34.0833275,11.1250075 35.25,9.625 C36.4166725,8.1249925 38.2499875,7.375 40.75,7.375 C43.2500125,7.375 45.1041606,8.14582562 46.3125,9.6875 C47.5208394,11.2291744 48.0833338,12.6249938 48,13.875 C48,14.2916688 47.9583338,14.7916637 47.875,15.375 C47.7916663,15.9583363 47.75,16.3749988 47.75,16.625 C47.75,16.7916675 47.8124994,17.0624981 47.9375,17.4375 C48.0625006,17.8125019 48.0416675,18.2916637 47.875,18.875 C47.6249988,19.875005 47.3958344,20.5833312 47.1875,21 C46.9791656,21.4166688 46.8333338,21.8749975 46.75,22.375 C46.4999988,23.9583413 46.1041694,25.1666625 45.5625,26 C45.0208306,26.8333375 44.75,27.58333 44.75,28.25 C44.75,30.0000088 44.9583313,31.041665 45.375,31.375 C45.5416675,31.4583337 46.95832,32.0416612 49.625,33.125 C53.8750213,34.7083413 56.0833325,36.0833275 56.25,37.25 Z M41.125,48.5 L20.75,48.5 L0.5,48.5 C0.5,43.0833063 0.5833325,39.875005 0.75,38.875 C1.083335,37.3749925 3.95830625,35.5833438 9.375,33.5 C12.70835,32.2499938 14.5833313,31.3958356 15,30.9375 C15.4166687,30.4791644 15.625,29.0416787 15.625,26.625 C15.625,25.7916625 15.29167,24.9791706 14.625,24.1875 C13.95833,23.3958294 13.458335,21.9583437 13.125,19.875 C13.0416663,19.20833 12.8541681,18.6250025 12.5625,18.125 C12.2708319,17.6249975 12.0000013,16.70834 11.75,15.375 C11.5833325,14.70833 11.5624994,14.1041694 11.6875,13.5625 C11.8125006,13.0208306 11.875,12.6666675 11.875,12.5 C11.7083325,11.3333275 11.5833337,10.1250062 11.5,8.875 C11.3333325,7.208325 12.0208256,5.39584312 13.5625,3.4375 C15.1041744,1.47915688 17.4999837,0.5 20.75,0.5 C24.0000163,0.5 26.4166588,1.49999 28,3.5 C29.5833412,5.50001 30.2916675,7.29165875 30.125,8.875 C30.0416663,10.1250062 29.9166675,11.3333275 29.75,12.5 C29.75,12.6666675 29.8333325,12.9999975 30,13.5 C30.1666675,14.0000025 30.1666675,14.6249963 30,15.375 C29.7499987,16.70834 29.458335,17.6249975 29.125,18.125 C28.791665,18.6250025 28.5833337,19.20833 28.5,19.875 C28.166665,21.9583437 27.66667,23.3958294 27,24.1875 C26.33333,24.9791706 26,25.7916625 26,26.625 L26,29.125 C26,29.458335 26.1249987,29.9166637 26.375,30.5 C26.6250013,31.0833363 26.9999975,31.4791656 27.5,31.6875 C28.0000025,31.8958344 28.7916612,32.2083312 29.875,32.625 C30.1250013,32.7083337 30.91666,32.9999975 32.25,33.5 C37.6666938,35.5833438 40.541665,37.3749925 40.875,38.875 C41.0416675,39.875005 41.125,41.8333187 41.125,44.75 L41.125,48.5 Z" id="person-stalker---Ionicons" fill="#FFFFFF" sketch:type="MSShapeGroup"></path>
    </g>
</svg>