<?xml version="1.0" encoding="UTF-8" standalone="no"?>
<svg width="20px" height="20px" viewBox="0 0 20 20" version="1.1" xmlns="http://www.w3.org/2000/svg" xmlns:xlink="http://www.w3.org/1999/xlink" xmlns:sketch="http://www.bohemiancoding.com/sketch/ns">
    <!-- Generator: Sketch 3.4.2 (15857) - http://www.bohemiancoding.com/sketch -->
    <title>ios-contact-outline - Ionicons</title>
    <desc>Created with Sketch.</desc>
    <defs></defs>
    <g id="Welcome" stroke="none" stroke-width="1" fill="none" fill-rule="evenodd" sketch:type="MSPage">
        <g id="Desktop-HD-Copy-5" sketch:type="MSArtboardGroup" transform="translate(-22.000000, -281.000000)" fill="#FFFFFF">
            <g id="Group" sketch:type="MSLayerGroup" transform="translate(20.000000, 210.000000)">
                <path d="M11.75,71.5 C14.4375134,71.5 16.7343655,72.4531155 18.640625,74.359375 C20.5468845,76.2656345 21.5,78.5624866 21.5,81.25 C21.5,83.9375134 20.5468845,86.2343655 18.640625,88.140625 C16.7343655,90.0468845 14.4375134,91 11.75,91 C9.06248656,91 6.76563453,90.0468845 4.859375,88.140625 C2.95311547,86.2343655 2,83.9375134 2,81.25 C2,78.5624866 2.95311547,76.2656345 4.859375,74.359375 C6.76563453,72.4531155 9.06248656,71.5 11.75,71.5 L11.75,71.5 Z M11.75,72.296875 C9.28123766,72.296875 7.17188375,73.1718662 5.421875,74.921875 C3.67186625,76.6718838 2.796875,78.7812377 2.796875,81.25 C2.796875,83.4062608 3.49999297,85.3124917 4.90625,86.96875 C6.15625625,86.4062472 7.56249219,85.9062522 9.125,85.46875 C9.21875047,85.4062497 9.265625,85.2500012 9.265625,85 C9.265625,84.4999975 9.20312562,84.1250012 9.078125,83.875 C8.92187422,83.5312483 8.78125062,83.0468781 8.65625,82.421875 C8.37499859,82.0468731 8.15625078,81.5312533 8,80.875 C7.90624953,80.3749975 7.92187438,79.9375019 8.046875,79.5625 L8.046875,79.46875 C8.14062547,79.1562484 8.09375094,78.5625044 7.90625,77.6875 C7.74999922,76.8749959 7.98437188,76.0625041 8.609375,75.25 C9.20312797,74.4687461 10.1093689,74.0312505 11.328125,73.9375 L12.171875,73.9375 C13.3906311,74.0000003 14.296872,74.4374959 14.890625,75.25 C15.5156281,76.0625041 15.7500008,76.8749959 15.59375,77.6875 C15.4062491,78.5625044 15.3593745,79.1562484 15.453125,79.46875 C15.4843752,79.5000002 15.5,79.5312498 15.5,79.5625 C15.5937505,79.8750016 15.5937505,80.3124972 15.5,80.875 C15.3749994,81.5000031 15.1562516,81.9999981 14.84375,82.375 C14.7187494,83.0625034 14.5781258,83.5624984 14.421875,83.875 C14.2343741,84.3125022 14.140625,84.6718736 14.140625,84.953125 C14.140625,85.2656266 14.1718747,85.4374998 14.234375,85.46875 C15.7968828,85.9375023 17.2499933,86.4374973 18.59375,86.96875 C20.000007,85.3124917 20.703125,83.4062608 20.703125,81.25 C20.703125,78.7812377 19.8281337,76.6718838 18.078125,74.921875 C16.3281163,73.1718662 14.2187623,72.296875 11.75,72.296875 L11.75,72.296875 Z" id="ios-contact-outline---Ionicons" sketch:type="MSShapeGroup"></path>
            </g>
        </g>
    </g>
</svg>