<?xml version="1.0" encoding="UTF-8" standalone="no"?>
<svg width="38px" height="55px" viewBox="0 0 38 55" version="1.1" xmlns="http://www.w3.org/2000/svg" xmlns:xlink="http://www.w3.org/1999/xlink" xmlns:sketch="http://www.bohemiancoding.com/sketch/ns">
    <!-- Generator: Sketch 3.4.2 (15857) - http://www.bohemiancoding.com/sketch -->
    <title>pin93</title>
    <desc>Created with Sketch.</desc>
    <defs></defs>
    <g id="Welcome" stroke="none" stroke-width="1" fill="none" fill-rule="evenodd" sketch:type="MSPage">
        <g id="iconsets" sketch:type="MSArtboardGroup" transform="translate(-986.000000, -827.000000)" fill="#FFFFFF">
            <g id="pin93" sketch:type="MSLayerGroup" transform="translate(986.000000, 827.000000)">
                <g id="Capa_1" sketch:type="MSShapeGroup">
                    <g id="Group">
                        <g>
                            <path d="M18.9587078,0 L18.9516004,0 C8.5123161,0.0519383698 0.0542345924,8.52642147 0.0542345924,18.9752187 C0.0542345924,28.2776541 6.4909841,33.759175 11.8592247,41.0119583 C16.5552187,47.3496421 18.2181213,53.2202087 18.751173,54.9609642 L19.1450298,54.9609642 C19.6874851,53.2203181 21.3573857,47.3449404 26.0440855,41.0119583 C31.412326,33.759175 37.8490755,28.2800596 37.8490755,18.9752187 C37.8489662,8.52642147 29.4003976,0.0519383698 18.9587078,0 L18.9587078,0 Z M31.4641551,19.2865209 L27.4781312,19.2865209 C27.2516799,20.4587972 26.7988867,21.5484095 26.1525547,22.5013419 L28.964006,25.3127932 L26.633668,27.647833 L23.8198111,24.8339761 C22.8668787,25.4801988 21.7772664,25.9306958 20.6049901,26.1571471 L20.6049901,30.1455765 L17.3029125,30.1455765 L17.3029125,26.1547416 C16.1306362,25.9282903 15.0433201,25.475497 14.090497,24.829165 L11.2719384,27.6454274 L8.94400596,25.3103877 L11.7554573,22.5012326 C11.1092346,21.5483002 10.656332,20.4586879 10.4322863,19.2864115 L6.4367495,19.2864115 L6.4367495,15.9866302 L10.4322863,15.9866302 C10.656332,14.8143539 11.1092346,13.7247416 11.753161,12.7718091 L8.94170974,9.96035785 L11.2696421,7.6206163 L14.0859046,10.439175 C15.038837,9.79295229 16.1284493,9.3400497 17.3007256,9.11359841 L17.3007256,5.12298211 L20.6028032,5.12298211 L20.6028032,9.11141153 C21.7750795,9.33786282 22.8646918,9.79065606 23.8176243,10.4345825 L26.6314811,7.61832008 L28.9618191,9.95806163 L26.1503678,12.7672167 C26.7965905,13.7201491 27.249493,14.812167 27.4759443,15.9820378 L31.4620775,15.9820378 L31.4620775,19.2865209 L31.4641551,19.2865209 L31.4641551,19.2865209 Z" id="Shape"></path>
                            <ellipse id="Oval" cx="18.954006" cy="17.6355368" rx="3.26194831" ry="3.26194831"></ellipse>
                        </g>
                    </g>
                </g>
            </g>
        </g>
    </g>
</svg>