<?xml version="1.0" encoding="UTF-8" standalone="no"?>
<svg width="45px" height="55px" viewBox="0 0 45 55" version="1.1" xmlns="http://www.w3.org/2000/svg" xmlns:xlink="http://www.w3.org/1999/xlink" xmlns:sketch="http://www.bohemiancoding.com/sketch/ns">
    <!-- Generator: Sketch 3.4.2 (15857) - http://www.bohemiancoding.com/sketch -->
    <title>plussign1</title>
    <desc>Created with Sketch.</desc>
    <defs></defs>
    <g id="Welcome" stroke="none" stroke-width="1" fill="none" fill-rule="evenodd" sketch:type="MSPage">
        <g id="iconsets" sketch:type="MSArtboardGroup" transform="translate(-908.000000, -827.000000)" fill="#FFFFFF">
            <g id="plussign1" sketch:type="MSLayerGroup" transform="translate(908.000000, 827.000000)">
                <g id="Capa_1" sketch:type="MSShapeGroup">
                    <g id="Group">
                        <g>
                            <circle id="Oval" cx="15.1981511" cy="11.1539563" r="11.1539563"></circle>
                            <path d="M31.4302584,28.5889563 C29.9821074,28.5889563 28.5927833,28.8342147 27.2861233,29.2659046 C24.5289066,25.7302684 20.1489165,23.4353579 15.1981511,23.4353579 C6.84853877,23.4377634 0.0839761431,29.9381511 0.0839761431,37.9669483 L0.0839761431,46.0358748 L18.9389165,46.0358748 C20.7125845,51.239006 25.6374354,54.9986879 31.4302584,54.9986879 C38.7137674,54.9986879 44.6362724,49.0737773 44.6362724,41.792674 C44.6362724,34.5115706 38.7137674,28.5889563 31.4302584,28.5889563 L31.4302584,28.5889563 Z M21.137167,41.792674 C21.137167,36.117833 25.7554175,31.4972863 31.4302584,31.4972863 C37.1098012,31.4972863 41.7280517,36.117833 41.7280517,41.792674 C41.7280517,47.4699205 37.1098012,52.0880616 31.4302584,52.0880616 C25.7554175,52.0880616 21.137167,47.4699205 21.137167,41.792674 L21.137167,41.792674 Z" id="Shape"></path>
                            <path d="M33.2699702,34.2213718 L29.9915109,34.2213718 C29.9891054,35.7922068 29.9915109,39.9245328 29.9915109,39.9245328 C29.9915109,39.9245328 26.434662,39.9245328 24.6750994,39.9292346 L24.6750994,43.2053976 C26.434662,43.202992 29.9915109,43.202992 29.9915109,43.202992 C29.9915109,43.202992 29.9915109,47.3306163 29.9891054,48.9085586 L33.2675646,48.9085586 C33.2699702,47.3306163 33.2699702,43.202992 33.2699702,43.202992 L38.5839761,43.202992 L38.5839761,39.9245328 L33.2699702,39.9245328 C33.2699702,39.9245328 33.2652684,35.7923161 33.2699702,34.2213718 L33.2699702,34.2213718 Z" id="Shape"></path>
                        </g>
                    </g>
                </g>
            </g>
        </g>
    </g>
</svg>