<?xml version="1.0" encoding="UTF-8" standalone="no"?>
<svg width="14px" height="14px" viewBox="0 0 14 14" version="1.1" xmlns="http://www.w3.org/2000/svg" xmlns:xlink="http://www.w3.org/1999/xlink" xmlns:sketch="http://www.bohemiancoding.com/sketch/ns">
    <!-- Generator: Sketch 3.3.3 (12072) - http://www.bohemiancoding.com/sketch -->
    <title>Fill 144</title>
    <desc>Created with Sketch.</desc>
    <defs></defs>
    <g id="Welcome" stroke="none" stroke-width="1" fill="none" fill-rule="evenodd" sketch:type="MSPage">
        <g id="Desktop-HD" sketch:type="MSArtboardGroup" transform="translate(-34.000000, -306.000000)" fill="#000000">
            <g id="pane" sketch:type="MSLayerGroup" transform="translate(0.000000, 289.000000)">
                <path d="M47.8127508,23.8126259 L41.1871244,23.8126259 L41.1871244,17.1872492 C41.1871244,17.0838877 41.1032367,17 40.9998752,17 C40.8965136,17 40.8126259,17.0838877 40.8126259,17.1872492 L40.8126259,23.8126259 L34.1872492,23.8126259 C34.0838877,23.8126259 34,23.8965136 34,23.9998752 C34,24.1032367 34.0838877,24.1871244 34.1872492,24.1871244 L40.8126259,24.1871244 L40.8126259,30.8127508 C40.8126259,30.9161123 40.8965136,31 40.9998752,31 C41.1032367,31 41.1871244,30.9161123 41.1871244,30.8127508 L41.1871244,24.1871244 L47.8127508,24.1871244 C47.9161123,24.1871244 48,24.1032367 48,23.9998752 C48,23.8965136 47.9161123,23.8126259 47.8127508,23.8126259" id="Fill-144" sketch:type="MSShapeGroup"></path>
            </g>
        </g>
    </g>
</svg>