<?xml version="1.0" encoding="UTF-8" standalone="no"?>
<svg width="24px" height="20px" viewBox="0 0 24 20" version="1.1" xmlns="http://www.w3.org/2000/svg" xmlns:xlink="http://www.w3.org/1999/xlink" xmlns:sketch="http://www.bohemiancoding.com/sketch/ns">
    <!-- Generator: Sketch 3.3.3 (12072) - http://www.bohemiancoding.com/sketch -->
    <title>Refresh + ios-loop-strong - Ionicons</title>
    <desc>Created with Sketch.</desc>
    <defs></defs>
    <g id="Welcome" stroke="none" stroke-width="1" fill="none" fill-rule="evenodd" sketch:type="MSPage">
        <g id="Desktop-HD-Copy-7" sketch:type="MSArtboardGroup" transform="translate(-17.000000, -201.000000)" fill="#FFFFFF">
            <g id="Refresh-+-ios-loop-strong---Ionicons" sketch:type="MSLayerGroup" transform="translate(17.000000, 201.000000)">
                <path d="M12,0.25 C14.6875134,0.25 16.9843655,1.20311547 18.890625,3.109375 C20.7968845,5.01563453 21.75,7.31248656 21.75,10 C21.75,10.7187536 21.6875006,11.374997 21.5625,11.96875 L21.515625,12.15625 L20.390625,11.921875 L20.4375,11.734375 C20.5625006,10.9843713 20.625,10.406252 20.625,10 C20.625,7.62498813 19.7812584,5.59375844 18.09375,3.90625 C16.4062416,2.21874156 14.3750119,1.375 12,1.375 C10.4687423,1.375 9.03125672,1.76562109 7.6875,2.546875 C6.34374328,3.32812891 5.28125391,4.40624313 4.5,5.78125 L4.40625,5.921875 L3.421875,5.40625 L3.515625,5.21875 C4.39062937,3.68749234 5.58592992,2.47656695 7.1015625,1.5859375 C8.61719508,0.695308047 10.2499913,0.25 12,0.25 L12,0.25 Z M19.5,14.21875 L19.59375,14.078125 L20.578125,14.59375 L20.484375,14.78125 C19.6093706,16.3125077 18.4140701,17.523433 16.8984375,18.4140625 C15.3828049,19.304692 13.7500087,19.75 12,19.75 C9.31248656,19.75 7.01563453,18.7968845 5.109375,16.890625 C3.20311547,14.9843655 2.25,12.6875134 2.25,10 C2.25,9.28124641 2.31249937,8.62500297 2.4375,8.03125 L2.484375,7.84375 L3.609375,8.078125 L3.5625,8.265625 C3.43749937,9.01562875 3.375,9.59374797 3.375,10 C3.375,12.3750119 4.21874156,14.4062416 5.90625,16.09375 C7.59375844,17.7812584 9.62498812,18.625 12,18.625 C13.5312577,18.625 14.9687433,18.2343789 16.3125,17.453125 C17.6562567,16.6718711 18.7187461,15.5937569 19.5,14.21875 L19.5,14.21875 Z M18,10 L24,10 L21,13 L18,10 Z M0,10 L3,7 L6,10 L0,10 Z" id="ios-loop-strong---Ionicons" sketch:type="MSShapeGroup"></path>
            </g>
        </g>
    </g>
</svg>