<?xml version="1.0" encoding="UTF-8" standalone="no"?>
<svg width="45px" height="58px" viewBox="0 0 45 58" version="1.1" xmlns="http://www.w3.org/2000/svg" xmlns:xlink="http://www.w3.org/1999/xlink" xmlns:sketch="http://www.bohemiancoding.com/sketch/ns">
    <!-- Generator: Sketch 3.4.2 (15857) - http://www.bohemiancoding.com/sketch -->
    <title>clipboard - Ionicons</title>
    <desc>Created with Sketch.</desc>
    <defs></defs>
    <g id="Welcome" stroke="none" stroke-width="1" fill="none" fill-rule="evenodd" sketch:type="MSPage">
        <g id="Desktop-HD-Copy-8" sketch:type="MSArtboardGroup" transform="translate(-305.000000, -431.000000)" fill="#FFFFFF">
            <path d="M315.140909,447.850454 C315.394433,445.06169 316.577527,443.371556 318.690227,442.78 L318.816988,442.653238 C320.591656,442.230698 321.478977,441.385631 321.478977,440.118011 L321.478977,437.456023 C321.478977,435.850371 322.049397,434.477136 323.190255,433.336278 C324.331113,432.19542 325.704348,431.625 327.309999,431.625 C328.915651,431.625 330.288886,432.19542 331.429744,433.336278 C332.570602,434.477136 333.141022,435.850371 333.141022,437.456023 L333.141022,440.118011 C333.141022,441.470139 334.028343,442.35746 335.803011,442.78 L336.056533,442.78 C338.084725,443.371556 339.225566,445.06169 339.47909,447.850454 L315.140909,447.850454 Z M327.309999,435.681364 C326.211396,435.681364 325.662102,436.272911 325.662102,437.456023 C325.662102,438.639135 326.211396,439.230682 327.309999,439.230682 C328.493111,439.230682 329.084659,438.639135 329.084659,437.456023 C329.084659,436.272911 328.493111,435.681364 327.309999,435.681364 L327.309999,435.681364 Z M346.197442,435.681364 C347.12703,435.681364 347.929844,436.01939 348.605908,436.695454 C349.281972,437.371518 349.619999,438.216586 349.619999,439.230682 L349.619999,484.864771 C349.619999,485.878867 349.281972,486.723935 348.605908,487.399999 C347.929844,488.076063 347.12703,488.41409 346.197442,488.41409 L327.309999,488.41409 L308.549318,488.41409 C307.61973,488.41409 306.79579,488.076063 306.077472,487.399999 C305.359154,486.723935 305,485.878867 305,484.864771 L305,439.230682 C305,438.216586 305.359154,437.371518 306.077472,436.695454 C306.79579,436.01939 307.61973,435.681364 308.549318,435.681364 L317.802897,435.681364 L317.802897,437.329261 C317.802897,438.005325 317.570504,438.575746 317.10571,439.04054 C316.640916,439.505334 316.070496,439.737727 315.394432,439.737727 L310.704261,439.737727 C309.690165,439.737727 309.183125,440.287021 309.183125,441.385625 L309.183125,482.83659 C309.183125,483.850686 309.647912,484.357726 310.5775,484.357726 L344.16926,484.357726 C345.098848,484.357726 345.563635,483.850686 345.563635,482.83659 L345.563635,441.385625 C345.563635,440.287021 345.056595,439.737727 344.042499,439.737727 L339.352329,439.737727 C338.676265,439.737727 338.084718,439.505334 337.57767,439.04054 C337.070622,438.575746 336.817102,438.005325 336.817102,437.329261 L336.817102,435.681364 L346.197442,435.681364 Z M313.112727,455.963181 L313.112727,451.906818 L327.309999,451.906818 L327.309999,455.963181 L313.112727,455.963181 Z M313.112727,480.301362 L313.112727,476.244999 L333.394545,476.244999 L333.394545,480.301362 L313.112727,480.301362 Z M313.112727,472.188635 L313.112727,468.132272 L329.464943,468.132272 L329.464943,472.188635 L313.112727,472.188635 Z M313.112727,464.075908 L313.112727,460.019545 L339.47909,460.019545 L339.47909,464.075908 L313.112727,464.075908 Z" id="clipboard---Ionicons" sketch:type="MSShapeGroup"></path>
        </g>
    </g>
</svg>