<?xml version="1.0" encoding="UTF-8" standalone="no"?>
<svg width="48px" height="48px" viewBox="0 0 48 48" version="1.1" xmlns="http://www.w3.org/2000/svg" xmlns:xlink="http://www.w3.org/1999/xlink" xmlns:sketch="http://www.bohemiancoding.com/sketch/ns">
    <!-- Generator: Sketch 3.4.1 (15681) - http://www.bohemiancoding.com/sketch -->
    <title>Fill 52</title>
    <desc>Created with Sketch.</desc>
    <defs></defs>
    <g id="Page-1" stroke="none" stroke-width="1" fill="none" fill-rule="evenodd" sketch:type="MSPage">
        <g id="Icon-Set" sketch:type="MSLayerGroup" transform="translate(-100.000000, -983.000000)" fill="#FFFFFF">
            <path d="M145,1025 C145,1026.65 143.656,1028 142,1028 L106,1028 C104.344,1028 103,1026.65 103,1025 L103,989 C103,987.344 104.344,986 106,986 L142,986 C143.656,986 145,987.344 145,989 L145,1025 L145,1025 Z M142,983 L106,983 C102.6865,983 100,985.6865 100,989 L100,1025 C100,1028.315 102.6865,1031 106,1031 L142,1031 C145.3135,1031 148,1028.315 148,1025 L148,989 C148,985.6865 145.3135,983 142,983 L142,983 Z M140.5,1002.5 L130.558,1002.5 L140.755,992.3015 L138.634,990.1805 L128.4535,1000.3625 L128.5,990.5 C128.5,989.6705 127.828,989 127,989 C126.172,989 125.5,989.6705 125.5,990.5 L125.5,1004 C125.5,1004.444 125.6845,1004.8025 125.974,1005.0485 C126.2455,1005.3275 126.6235,1005.5 127.042,1005.5 L140.5,1005.5 C141.328,1005.5 142,1004.8295 142,1004 C142,1003.172 141.328,1002.5 140.5,1002.5 L140.5,1002.5 Z M120.958,1008.5 L107.5,1008.5 C106.672,1008.5 106,1009.175 106,1010 C106,1010.825 106.672,1011.5 107.5,1011.5 L117.442,1011.5 L107.245,1021.7 L109.366,1023.815 L119.548,1013.645 L119.5,1023.5 C119.5,1024.325 120.172,1025 121,1025 C121.828,1025 122.5,1024.325 122.5,1023.5 L122.5,1010 C122.5,1009.55 122.3155,1009.19 122.026,1008.95 C121.753,1008.68 121.3765,1008.5 120.958,1008.5 L120.958,1008.5 Z" id="Fill-52" sketch:type="MSShapeGroup"></path>
        </g>
    </g>
</svg>