<?xml version="1.0" encoding="UTF-8" standalone="no"?>
<svg width="33px" height="41px" viewBox="0 0 33 41" version="1.1" xmlns="http://www.w3.org/2000/svg" xmlns:xlink="http://www.w3.org/1999/xlink" xmlns:sketch="http://www.bohemiancoding.com/sketch/ns">
    <!-- Generator: Sketch 3.3.3 (12072) - http://www.bohemiancoding.com/sketch -->
    <title>revert</title>
    <desc>Created with Sketch.</desc>
    <defs></defs>
    <g id="Welcome" stroke="none" stroke-width="1" fill="none" fill-rule="evenodd" sketch:type="MSPage">
        <g id="Desktop-HD" sketch:type="MSArtboardGroup" transform="translate(-93.000000, -223.000000)" fill="#FFFFFF">
            <g id="revert" sketch:type="MSLayerGroup" transform="translate(93.000000, 223.000000)">
                <path d="M21.593,12.428 L29.192,12.428 C29.198,12.427 29.204,12.427 29.212,12.428 C29.626,12.428 29.962,12.092 29.962,11.678 C29.962,11.42 29.831,11.193 29.633,11.058 L18.955,0.224 C18.742,0.007 18.419,-0.057 18.136,0.056 C17.855,0.172 17.671,0.446 17.671,0.75 L17.671,8.506 C17.671,10.668 19.431,12.428 21.593,12.428 L21.593,12.428 Z M19.171,2.58 L27.399,10.928 L21.593,10.928 C20.258,10.928 19.171,9.841 19.171,8.506 L19.171,2.58 L19.171,2.58 Z M29.192,12.786 C28.777,12.786 28.442,13.122 28.442,13.536 L28.442,21.573 C28.442,21.987 28.777,22.323 29.192,22.323 C29.606,22.323 29.942,21.987 29.942,21.573 L29.942,13.536 C29.942,13.122 29.606,12.786 29.192,12.786 L29.192,12.786 Z M17.212,38.225 L4.162,38.225 C2.694,38.225 1.5,37.028 1.5,35.557 L1.502,4.086 C1.547,2.636 2.715,1.5 4.162,1.5 L16.569,1.5 C16.984,1.5 17.319,1.164 17.319,0.75 C17.319,0.336 16.984,0 16.569,0 L4.162,0 C1.9,0 0.073,1.775 0.003,4.063 L0,35.557 C0,37.855 1.867,39.725 4.162,39.725 L17.212,39.725 C17.626,39.725 17.962,39.389 17.962,38.975 C17.962,38.561 17.626,38.225 17.212,38.225 L17.212,38.225 Z" id="Fill-76-Copy" sketch:type="MSShapeGroup"></path>
                <path d="M21.366971,25.9099118 C21.2389927,25.9795263 21.1918798,26.1398508 21.2618459,26.2674776 C21.3314605,26.3958075 21.4914334,26.4422172 21.6194117,26.3726026 C22.6326906,25.819905 23.7816827,25.5273832 24.9429805,25.5273832 C28.7724855,25.5273832 31.8886168,28.6431629 31.8886168,32.4730195 C31.8886168,36.3025245 28.7724855,39.4183043 24.9429805,39.4183043 C21.1131239,39.4183043 17.9976957,36.3025245 17.9976957,32.4730195 C17.9976957,31.354264 18.2708802,30.2481657 18.784903,29.2633656 L18.9993721,30.2562523 C19.0260929,30.3800115 19.135437,30.4643928 19.2570867,30.4643928 C19.2753693,30.4643928 19.2940035,30.4626349 19.3126377,30.4584158 C19.4550312,30.427476 19.5453895,30.2875437 19.5148013,30.1451502 L19.1551259,28.4800258 C19.1400076,28.4086532 19.0953559,28.346422 19.0324215,28.3091536 C18.9698387,28.2718852 18.8942471,28.2623923 18.8232261,28.2827844 L17.1893931,28.7627031 C17.0498123,28.803839 16.9696501,28.9504515 17.010786,29.0903839 C17.0519219,29.2299646 17.1995891,29.3101269 17.3381151,29.268991 L18.3401432,28.9747112 C17.7716241,30.0456506 17.4703125,31.2526549 17.4703125,32.4730195 C17.4703125,36.5932885 20.8223599,39.9456875 24.9429805,39.9456875 C29.063601,39.9456875 32.416,36.5932885 32.416,32.4730195 C32.416,28.352399 29.063601,25 24.9429805,25 C23.6937855,25 22.4572478,25.314672 21.366971,25.9099118 Z" id="Fill-115-Copy" stroke="#FFFFFF" sketch:type="MSShapeGroup"></path>
            </g>
        </g>
    </g>
</svg>