<?xml version="1.0" encoding="UTF-8" standalone="no"?>
<svg width="99px" height="114px" viewBox="0 0 99 114" version="1.1" xmlns="http://www.w3.org/2000/svg" xmlns:xlink="http://www.w3.org/1999/xlink" xmlns:sketch="http://www.bohemiancoding.com/sketch/ns">
    <!-- Generator: Sketch 3.3.3 (12072) - http://www.bohemiancoding.com/sketch -->
    <title></title>
    <desc>Created with Sketch.</desc>
    <defs></defs>
    <g id="Welcome" stroke="none" stroke-width="1" fill="none" fill-rule="evenodd" sketch:type="MSPage">
        <g id="Desktop-HD-Copy-3" sketch:type="MSArtboardGroup" transform="translate(-1232.000000, -312.000000)" fill="#000000">
            <g id="Right-side" sketch:type="MSLayerGroup" transform="translate(1138.000000, -2.000000)">
                <path d="M152.78125,332.75 L152.21875,332.75 L145.46875,334.15625 C139.093718,335.468757 133.843771,338.796848 129.71875,344.140625 C125.593729,349.484402 123.53125,355.531216 123.53125,362.28125 L123.53125,394.34375 L123.53125,398 L121,400.8125 L118.75,403.0625 L186.25,403.0625 L184,400.8125 L181.46875,398 L181.46875,394.34375 L181.46875,362.28125 C181.46875,355.531216 179.406271,349.484402 175.28125,344.140625 C171.156229,338.796848 165.906282,335.468757 159.53125,334.15625 C156.343734,333.218745 154.093757,332.75 152.78125,332.75 L152.78125,332.75 Z M152.5,312.5 C155.125013,312.5 157.234367,313.343742 158.828125,315.03125 C160.421883,316.718758 161.21875,318.781238 161.21875,321.21875 L161.21875,325.4375 C169.656292,327.50001 176.640597,331.953091 182.171875,338.796875 C187.703153,345.640659 190.46875,353.468706 190.46875,362.28125 L190.46875,394.34375 L202,406.15625 L202,412.0625 L103,412.0625 L103,406.15625 L114.53125,394.34375 L114.53125,362.28125 C114.53125,353.468706 117.296847,345.640659 122.828125,338.796875 C128.359403,331.953091 135.343708,327.50001 143.78125,325.4375 L143.78125,321.21875 C143.78125,318.781238 144.578117,316.718758 146.171875,315.03125 C147.765633,313.343742 149.874987,312.5 152.5,312.5 L152.5,312.5 Z M164.03125,417.6875 C164.03125,420.875016 162.906261,423.640613 160.65625,425.984375 C158.406239,428.328137 155.687516,429.5 152.5,429.5 C149.312484,429.5 146.593761,428.328137 144.34375,425.984375 C142.093739,423.640613 140.96875,420.875016 140.96875,417.6875 L164.03125,417.6875 Z" id="" sketch:type="MSShapeGroup" transform="translate(152.500000, 371.000000) rotate(15.000000) translate(-152.500000, -371.000000) "></path>
            </g>
        </g>
    </g>
</svg>