<?xml version="1.0" encoding="UTF-8" standalone="no"?>
<svg width="38px" height="55px" viewBox="0 0 38 55" version="1.1" xmlns="http://www.w3.org/2000/svg" xmlns:xlink="http://www.w3.org/1999/xlink" xmlns:sketch="http://www.bohemiancoding.com/sketch/ns">
    <!-- Generator: Sketch 3.4.2 (15857) - http://www.bohemiancoding.com/sketch -->
    <title>Shape</title>
    <desc>Created with Sketch.</desc>
    <defs></defs>
    <g id="Welcome" stroke="none" stroke-width="1" fill="none" fill-rule="evenodd" sketch:type="MSPage">
        <g id="iconsets" sketch:type="MSArtboardGroup" transform="translate(-986.000000, -905.000000)" fill="#FFFFFF">
            <g id="transport1064" sketch:type="MSLayerGroup" transform="translate(986.000000, 905.000000)">
                <g id="Capa_1" sketch:type="MSShapeGroup">
                    <path d="M31.5885786,32.0317057 L31.5885786,24.6274916 C31.5885786,18.4400836 29.5042809,12.302709 25.5608361,6.87886288 C22.5910201,2.79377926 19.6333445,0.553494983 19.5089967,0.460050167 C19.0185953,0.0917892977 18.3435117,0.0917892977 17.8531104,0.460050167 C17.7285786,0.553494983 14.771087,2.79377926 11.8012709,6.87886288 C7.85782609,12.302709 5.77371237,18.4402676 5.77371237,24.6274916 L5.77371237,32.0317057 C2.49247492,32.6766221 0.00919732441,35.5743311 0.00919732441,39.0422742 L0.00919732441,53.4572408 C0.00919732441,54.0651839 0.407257525,54.6015719 0.989080268,54.7777926 C1.12115385,54.817709 1.25561873,54.8370234 1.38861204,54.8370234 C1.84148829,54.8370234 2.27615385,54.6133445 2.53680602,54.2222742 L8.30132107,45.5731104 C8.45215719,45.3466722 8.5329097,45.0803177 8.5329097,44.8080769 L8.5329097,43.3495652 L14.4193813,43.3495652 L14.4193813,47.2541973 C14.4193813,49.3322408 16.7994649,53.1079264 17.5289967,54.2158361 C17.7843144,54.6032274 18.2171405,54.8366555 18.6812375,54.8366555 C19.1451505,54.8366555 19.5781605,54.6032274 19.8334783,54.2158361 C20.56301,53.1081104 22.9430936,49.3322408 22.9430936,47.2541973 L22.9430936,43.3495652 L28.8295652,43.3495652 L28.8295652,44.8080769 C28.8295652,45.0803177 28.9101338,45.3466722 29.0611538,45.5731104 L34.8256689,54.2222742 C35.0863211,54.6133445 35.5209866,54.8370234 35.9738629,54.8370234 C36.1068562,54.8370234 36.2413211,54.817709 36.3733946,54.7777926 C36.9552174,54.6015719 37.3532776,54.0651839 37.3532776,53.4572408 L37.3532776,39.0422742 C37.3530936,35.5743311 34.8698161,32.6766221 31.5885786,32.0317057 L31.5885786,32.0317057 Z M8.57061873,23.247893 C8.73102007,20.2403679 9.41658863,17.3084448 10.6203344,14.4751171 L26.723194,14.4751171 C27.8139967,17.0409866 28.6121405,19.9804515 28.7905686,23.247893 L8.57061873,23.247893 L8.57061873,23.247893 Z M18.6806856,3.35941472 C20.0875084,4.60289298 23.0197993,7.4851505 25.372291,11.7159197 L11.9739967,11.7159197 C12.5670401,10.6530769 13.2347659,9.60550167 13.9791973,8.57540134 C15.8046823,6.04981605 17.6507692,4.26829431 18.6806856,3.35941472 L18.6806856,3.35941472 Z M5.77352843,44.3907023 L2.76839465,48.8997826 L2.76839465,39.0422742 C2.76839465,37.1056856 4.02971572,35.4580769 5.77371237,34.8782776 L5.77371237,41.9701505 L5.77371237,44.3907023 L5.77352843,44.3907023 Z M8.53272575,26.0070903 L17.3014548,26.0070903 L17.3014548,32.150903 C15.6266221,32.7845987 14.4191973,34.5374247 14.4191973,36.5963378 L14.4191973,40.5905518 L8.53272575,40.5905518 L8.53272575,26.0070903 L8.53272575,26.0070903 Z M20.1837124,47.2545652 C20.1837124,47.8415385 19.518194,49.3055686 18.6810535,50.7988462 C17.843913,49.3057525 17.1783946,47.8415385 17.1783946,47.2545652 L17.1783946,36.5965217 C17.1783946,35.5447157 17.8665385,34.6560702 18.6810535,34.6560702 C19.4955686,34.6560702 20.1837124,35.5447157 20.1837124,36.5965217 L20.1837124,47.2545652 L20.1837124,47.2545652 Z M28.8293813,40.5907358 L22.9429097,40.5907358 L22.9429097,36.5965217 C22.9429097,34.5376087 21.7354849,32.7847826 20.0606522,32.151087 L20.0606522,26.0072742 L28.8293813,26.0072742 L28.8293813,40.5907358 L28.8293813,40.5907358 Z M34.5938963,48.8997826 L31.5885786,44.3905184 L31.5885786,41.9701505 L31.5885786,34.8782776 C33.3323913,35.457893 34.5938963,37.1055017 34.5938963,39.0422742 L34.5938963,48.8997826 L34.5938963,48.8997826 Z" id="Shape"></path>
                </g>
            </g>
        </g>
    </g>
</svg>