<?xml version="1.0" encoding="UTF-8" standalone="no"?>
<svg width="43px" height="48px" viewBox="0 0 43 48" version="1.1" xmlns="http://www.w3.org/2000/svg" xmlns:xlink="http://www.w3.org/1999/xlink" xmlns:sketch="http://www.bohemiancoding.com/sketch/ns">
    <!-- Generator: Sketch 3.4.1 (15681) - http://www.bohemiancoding.com/sketch -->
    <title>searching20</title>
    <desc>Created with Sketch.</desc>
    <defs></defs>
    <g id="Page-1" stroke="none" stroke-width="1" fill="none" fill-rule="evenodd" sketch:type="MSPage">
        <g id="searching20" sketch:type="MSLayerGroup" transform="translate(0.000000, -0.002468)" fill="#FFFFFF">
            <g id="Capa_1" sketch:type="MSShapeGroup">
                <path d="M15.9776424,20.6450861 C17.1156556,17.9313377 19.1036821,15.546596 21.8444503,13.9632318 C23.9564503,12.7419338 26.3663046,12.0953642 28.8066755,12.0953642 C30.8334834,12.0953642 32.8018013,12.5597881 34.5943311,13.3767417 L34.5943311,6.89070199 C34.594649,3.08535099 26.8809536,0 17.3693245,0 C7.85483444,0 0.142410596,3.08535099 0.142410596,6.89070199 L0.142410596,13.7826755 C0.138596026,17.4039735 7.11162914,20.3637616 15.9776424,20.6450861 L15.9776424,20.6450861 Z M17.3655099,1.72164238 C26.8288212,1.72164238 32.8679205,4.78378808 32.8679205,6.8887947 C32.8679205,8.99761589 26.8288212,12.0569007 17.3655099,12.0569007 C7.90029139,12.0569007 1.86119205,8.99761589 1.86119205,6.8887947 C1.86119205,4.78378808 7.90029139,1.72164238 17.3655099,1.72164238 L17.3655099,1.72164238 Z M0.136370861,24.1217483 L0.136370861,17.2297748 C0.136370861,20.7178808 6.61986755,23.5921589 15.0262252,24.048 C14.6914967,26.3399205 14.9273642,28.7205298 15.7811921,30.9774834 C7.01086093,30.6580132 0.138596026,27.7141192 0.136370861,24.1217483 L0.136370861,24.1217483 Z M27.7907285,39.9356821 C24.8951523,40.8165298 21.2878411,41.3486623 17.3655099,41.3486623 C7.85101987,41.3486623 0.138596026,38.2633113 0.138596026,34.4557351 L0.138596026,27.5631258 C0.138596026,31.3722914 7.84911258,34.456053 17.3655099,34.456053 C17.4739073,34.456053 17.5794437,34.4503311 17.6878411,34.4503311 C20.0945166,37.6285033 23.7860662,39.6257483 27.7907285,39.9356821 L27.7907285,39.9356821 Z M39.1934305,20.061457 C35.8912848,14.3437351 28.5552318,12.3770066 22.8352848,15.6794702 C17.1175629,18.9816159 15.1511523,26.3167152 18.4510728,32.0344371 C21.7532185,37.7540662 29.0930861,39.7188874 34.8108079,36.4205563 C40.5329801,33.1203179 42.4955762,25.7807682 39.1934305,20.061457 L39.1934305,20.061457 Z M20.1692185,31.0432848 C17.4128742,26.2760265 19.0553642,20.1517351 23.826755,17.3944371 C28.5981457,14.6409536 34.7221192,16.2805828 37.4784636,21.0529272 C40.2351258,25.8252715 38.5916821,31.9495629 33.8202914,34.7036821 C29.0469934,37.4622517 22.9246093,35.8207152 20.1692185,31.0432848 L20.1692185,31.0432848 Z M41.7873377,42.5489801 L36.6367152,45.5221192 L32.6705166,38.6565298 L37.8230464,35.6814834 L41.7873377,42.5489801 L41.7873377,42.5489801 Z M41.2316821,47.5428874 C39.8050331,48.3636556 37.9896159,47.8798411 37.1647152,46.4528742 L42.3194702,43.4797351 C43.1421457,44.9063841 42.6545166,46.7218013 41.2316821,47.5428874 L41.2316821,47.5428874 Z" id="Shape"></path>
            </g>
        </g>
    </g>
</svg>