<?xml version="1.0" encoding="UTF-8" standalone="no"?>
<svg width="71px" height="55px" viewBox="0 0 71 55" version="1.1" xmlns="http://www.w3.org/2000/svg" xmlns:xlink="http://www.w3.org/1999/xlink" xmlns:sketch="http://www.bohemiancoding.com/sketch/ns">
    <!-- Generator: Sketch 3.4.2 (15857) - http://www.bohemiancoding.com/sketch -->
    <title>servers1</title>
    <desc>Created with Sketch.</desc>
    <defs></defs>
    <g id="Welcome" stroke="none" stroke-width="1" fill="none" fill-rule="evenodd" sketch:type="MSPage">
        <g id="iconsets" sketch:type="MSArtboardGroup" transform="translate(-808.000000, -827.000000)" fill="#FFFFFF">
            <g id="servers1" sketch:type="MSLayerGroup" transform="translate(808.000000, 827.000000)">
                <g id="Capa_1" sketch:type="MSShapeGroup">
                    <g id="Group">
                        <path d="M44.1510863,0.0892113095 L26.2507143,0.0892113095 C25.6214881,0.0892113095 25.1111012,0.599761905 25.1111012,1.22931548 L25.1111012,53.7854167 C25.1111012,54.4149702 25.6214881,54.9255208 26.2507143,54.9255208 L44.1510863,54.9255208 C44.7803125,54.9255208 45.2906994,54.4149702 45.2906994,53.7854167 L45.2906994,1.22931548 C45.2906994,0.599761905 44.7803125,0.0892113095 44.1510863,0.0892113095 L44.1510863,0.0892113095 Z M35.2008185,44.9130655 C33.0009821,44.9130655 31.2177381,43.1296577 31.2177381,40.9299851 C31.2177381,38.7303125 33.0009821,36.9469048 35.2008185,36.9469048 C37.4006548,36.9469048 39.1838988,38.7303125 39.1838988,40.9299851 C39.1838988,43.1296577 37.4006548,44.9130655 35.2008185,44.9130655 L35.2008185,44.9130655 Z M42.5264583,24.5817262 C42.5264583,25.210625 42.0159077,25.7213393 41.3858631,25.7213393 L29.0159375,25.7213393 C28.3858929,25.7213393 27.8753423,25.210625 27.8753423,24.5817262 L27.8753423,23.4421131 C27.8753423,22.8110863 28.3858929,22.3008631 29.0159375,22.3008631 L41.3858631,22.3008631 C42.0159077,22.3008631 42.5264583,22.8110863 42.5264583,23.4421131 L42.5264583,24.5817262 L42.5264583,24.5817262 Z M42.5264583,18.8815327 C42.5264583,19.5107589 42.0159077,20.0213095 41.3858631,20.0213095 L29.0159375,20.0213095 C28.3858929,20.0213095 27.8753423,19.5107589 27.8753423,18.8815327 L27.8753423,17.7402827 C27.8753423,17.1110565 28.3858929,16.600506 29.0159375,16.600506 L41.3858631,16.600506 C42.0159077,16.600506 42.5264583,17.1110565 42.5264583,17.7402827 L42.5264583,18.8815327 L42.5264583,18.8815327 Z M42.5264583,13.1798661 C42.5264583,13.8102381 42.0159077,14.320625 41.3858631,14.320625 L29.0159375,14.320625 C28.3858929,14.320625 27.8753423,13.8104018 27.8753423,13.1798661 L27.8753423,12.040253 C27.8753423,11.4111905 28.3858929,10.9006399 29.0159375,10.9006399 L41.3858631,10.9006399 C42.0159077,10.9006399 42.5264583,11.4111905 42.5264583,12.040253 L42.5264583,13.1798661 L42.5264583,13.1798661 Z M42.5264583,7.48 C42.5264583,8.1090625 42.0159077,8.6196131 41.3858631,8.6196131 L29.0159375,8.6196131 C28.3858929,8.6196131 27.8753423,8.1090625 27.8753423,7.48 L27.8753423,6.34005952 C27.8753423,5.70952381 28.3858929,5.1993006 29.0159375,5.1993006 L41.3858631,5.1993006 C42.0159077,5.1993006 42.5264583,5.70952381 42.5264583,6.34005952 L42.5264583,7.48 L42.5264583,7.48 Z" id="Shape"></path>
                        <path d="M70.4016369,6.15705357 C70.4016369,5.61949405 69.9477232,5.14184524 69.3874107,5.09126488 C64.0802381,4.60870536 58.7727381,4.12614583 53.4654018,3.64522321 C53.4069643,3.63965774 53.2413095,3.64440476 53.0643601,3.69482143 L46.8591815,5.26199405 L46.8591815,54.01 L53.2801042,54.9181548 C53.3581845,54.9350149 53.4590179,54.9181548 53.4652381,54.9178274 C58.7725744,54.4355952 64.0800744,53.8983631 69.3874107,53.4167857 C69.9475595,53.3653869 70.4018006,52.8887202 70.4018006,52.3508333 C70.4013095,39.9542262 70.4016369,18.5548065 70.4016369,6.15705357 L70.4016369,6.15705357 Z M54.910625,9.49699405 C54.910625,8.92096726 55.3645387,8.4855506 55.9248512,8.52483631 C59.5926637,8.78395833 63.2603125,9.04324405 66.9282887,9.30236607 C67.4886012,9.34165179 67.9423512,9.8140625 67.9423512,10.3589881 L67.9423512,11.3430952 C67.9423512,11.8860565 67.4886012,12.301994 66.9282887,12.2704018 C63.2604762,12.0605506 59.5926637,11.8508631 55.9248512,11.6424851 C55.3647024,11.6102381 54.910625,11.1163839 54.910625,10.5406845 L54.910625,9.49699405 L54.910625,9.49699405 Z M67.9423512,26.1140327 C67.9423512,26.6568304 67.4884375,27.1037054 66.928125,27.1086161 C63.2603125,27.1483929 59.5925,27.1886607 55.9246875,27.2279464 C55.3645387,27.2335119 54.9104613,26.7720685 54.9104613,26.1950595 L54.9104613,25.1520238 C54.9104613,24.5748512 55.364375,24.1093155 55.9246875,24.1101339 C59.5923363,24.120119 63.2601488,24.1317411 66.928125,24.1405804 C67.4884375,24.1427083 67.9423512,24.5841815 67.9423512,25.1289435 L67.9423512,26.1140327 L67.9423512,26.1140327 Z M66.928125,22.1622173 C63.2603125,22.119003 59.5925,22.0761161 55.9246875,22.0324107 C55.3645387,22.0258631 54.9104613,21.5536161 54.9104613,20.9762798 L54.9104613,19.9334077 C54.9104613,19.3563988 55.364375,18.9010119 55.9246875,18.915744 C59.5925,19.0077381 63.2601488,19.100878 66.928125,19.1948363 C67.4884375,19.2085863 67.9421875,19.6610268 67.9421875,20.2059524 C67.9421875,20.5997917 67.9423512,20.7965476 67.9423512,21.1903869 C67.9423512,21.7333482 67.4884375,22.1695833 66.928125,22.1622173 L66.928125,22.1622173 Z M67.9423512,16.2669048 C67.9423512,16.8097024 67.4884375,17.2346429 66.928125,17.2164732 C63.2603125,17.0899405 59.5925,16.963244 55.9246875,16.8370387 C55.3645387,16.8182143 54.9104613,16.3348363 54.9104613,15.7584821 L54.9104613,14.714628 C54.9104613,14.1384375 55.364375,13.6940179 55.9246875,13.7208631 C59.5925,13.8955208 63.2601488,14.0723065 66.928125,14.2489286 C67.4884375,14.2759375 67.9423512,14.7372173 67.9423512,15.2821429 L67.9423512,16.2669048 L67.9423512,16.2669048 Z" id="Shape"></path>
                        <path d="M16.9365625,3.64522321 C11.6290625,4.12614583 6.3215625,4.60870536 1.01422619,5.09126488 C0.454077381,5.14184524 0.000163690476,5.61949405 0.000163690476,6.15705357 C0.000163690476,18.5548065 0.000491071429,39.9543899 0,52.3508333 C0,52.8887202 0.454077381,53.3653869 1.01422619,53.4167857 C6.32172619,53.8981994 11.6292262,54.4355952 16.9365625,54.9178274 C16.942619,54.9181548 17.0434524,54.9350149 17.1216964,54.9181548 L23.542619,54.01 L23.542619,5.26199405 L17.3374405,3.69482143 C17.1603274,3.64440476 16.9946726,3.63965774 16.9365625,3.64522321 L16.9365625,3.64522321 Z M15.4911756,26.1950595 C15.4911756,26.7719048 15.0372619,27.2335119 14.4771131,27.2279464 C10.8093006,27.1888244 7.1414881,27.1485565 3.4735119,27.1086161 C2.9133631,27.1037054 2.45928571,26.6568304 2.45928571,26.1140327 L2.45928571,25.1289435 C2.45928571,24.5841815 2.9131994,24.1427083 3.4735119,24.1405804 C7.1414881,24.1315774 10.8093006,24.120119 14.4771131,24.1101339 C15.0372619,24.1093155 15.4911756,24.5748512 15.4911756,25.1520238 L15.4911756,26.1950595 L15.4911756,26.1950595 Z M15.4911756,20.9762798 C15.4911756,21.5536161 15.0372619,22.0258631 14.4771131,22.0324107 C10.8093006,22.0761161 7.1414881,22.119003 3.4735119,22.1622173 C2.9133631,22.1695833 2.45928571,21.7333482 2.45928571,21.1902232 C2.45928571,20.7965476 2.4594494,20.5997917 2.4594494,20.2057887 C2.4594494,19.6608631 2.9131994,19.2084226 3.4735119,19.1946726 C7.1414881,19.1007143 10.8091369,19.0074107 14.4771131,18.9155804 C15.0372619,18.9008482 15.4911756,19.3560714 15.4911756,19.933244 L15.4911756,20.9762798 L15.4911756,20.9762798 Z M15.4911756,15.7584821 C15.4911756,16.3348363 15.0372619,16.8182143 14.4771131,16.8370387 C10.8093006,16.963244 7.1414881,17.0899405 3.4735119,17.2164732 C2.9133631,17.2346429 2.45928571,16.8098661 2.45928571,16.2669048 L2.45928571,15.2819792 C2.45928571,14.7372173 2.9131994,14.2759375 3.4735119,14.2487649 C7.1414881,14.0723065 10.8091369,13.8955208 14.4771131,13.7206994 C15.0372619,13.6938542 15.4911756,14.1384375 15.4911756,14.7144643 L15.4911756,15.7584821 L15.4911756,15.7584821 Z M15.4911756,10.5405208 C15.4911756,11.1163839 15.0372619,11.6100744 14.4771131,11.6423214 C10.8093006,11.8506994 7.1414881,12.0603869 3.4735119,12.2702381 C2.9133631,12.3018304 2.4594494,11.8858929 2.4594494,11.3429315 L2.4594494,10.3588244 C2.4594494,9.81389881 2.9131994,9.3414881 3.4735119,9.30220238 C7.1414881,9.04308036 10.8091369,8.78379464 14.4771131,8.52467262 C15.0372619,8.4855506 15.4911756,8.92096726 15.4911756,9.49683036 L15.4911756,10.5405208 L15.4911756,10.5405208 Z" id="Shape"></path>
                    </g>
                </g>
            </g>
        </g>
    </g>
</svg>