<?xml version="1.0" encoding="UTF-8" standalone="no"?>
<svg width="53px" height="55px" viewBox="0 0 53 55" version="1.1" xmlns="http://www.w3.org/2000/svg" xmlns:xlink="http://www.w3.org/1999/xlink" xmlns:sketch="http://www.bohemiancoding.com/sketch/ns">
    <!-- Generator: Sketch 3.4.2 (15857) - http://www.bohemiancoding.com/sketch -->
    <title>socialnetwork12</title>
    <desc>Created with Sketch.</desc>
    <defs></defs>
    <g id="Welcome" stroke="none" stroke-width="1" fill="none" fill-rule="evenodd" sketch:type="MSPage">
        <g id="iconsets" sketch:type="MSArtboardGroup" transform="translate(-720.000000, -827.000000)" fill="#FFFFFF">
            <g id="socialnetwork12" sketch:type="MSLayerGroup" transform="translate(720.000000, 827.000000)">
                <g id="Capa_1" sketch:type="MSShapeGroup">
                    <g id="Group">
                        <circle id="Oval" cx="7.95017617" cy="5.8152349" r="5.8152349"></circle>
                        <circle id="Oval" cx="44.2363339" cy="5.8152349" r="5.8152349"></circle>
                        <ellipse id="Oval" cx="44.2363339" cy="36.8011829" rx="5.79373322" ry="5.79373322"></ellipse>
                        <circle id="Oval" cx="7.95017617" cy="36.8011829" r="5.8152349"></circle>
                        <path d="M52.1115772,19.7631795 C52.1115772,15.57875 48.5924077,12.2098154 44.2578356,12.2098154 C39.9017617,12.2098154 36.3825923,15.6002517 36.3825923,19.7631795 L36.3825923,22.5098574 L31.8119631,27.3809564 L20.5033725,27.3809564 L15.8040101,22.3811242 L15.8040101,19.7631795 C15.8040101,15.57875 12.2848406,12.2098154 7.92876678,12.2098154 C3.57269295,12.2098154 0.0535234899,15.6002517 0.0535234899,19.7631795 L0.0535234899,23.9690185 L14.1302013,23.9690185 L17.9927517,28.0890352 L17.9927517,37.2088842 L13.4650336,45.3630956 C12.0487836,44.0112584 10.096099,43.174354 7.95017617,43.174354 C3.59410235,43.174354 0.0749328859,46.5647903 0.0749328859,50.7277181 L0.0749328859,54.933557 L15.8039178,54.933557 L15.8039178,50.7277181 C15.8039178,49.5046141 15.4820386,48.3887416 14.945604,47.3587836 L20.3960487,37.6380872 L31.8977852,37.6380872 L37.2838171,47.2514597 C36.7258809,48.3029195 36.3610906,49.461703 36.3610906,50.7277181 L36.3610906,54.933557 L52.0900755,54.933557 L52.0900755,50.7277181 C52.0900755,46.5432886 48.570906,43.174354 44.2363339,43.174354 C42.1334144,43.174354 40.2236409,43.9897567 38.8073909,45.2772735 L33.8075587,36.3290688 L33.8075587,28.6040604 L38.1421309,23.9690185 L52.1115772,23.9690185 L52.1115772,19.7631795 L52.1115772,19.7631795 L52.1115772,19.7631795 Z" id="Shape"></path>
                    </g>
                </g>
            </g>
        </g>
    </g>
</svg>