<?xml version="1.0" encoding="UTF-8" standalone="no"?>
<svg width="35px" height="55px" viewBox="0 0 35 55" version="1.1" xmlns="http://www.w3.org/2000/svg" xmlns:xlink="http://www.w3.org/1999/xlink" xmlns:sketch="http://www.bohemiancoding.com/sketch/ns">
    <!-- Generator: Sketch 3.4.2 (15857) - http://www.bohemiancoding.com/sketch -->
    <title>storage33</title>
    <desc>Created with Sketch.</desc>
    <defs></defs>
    <g id="Welcome" stroke="none" stroke-width="1" fill="none" fill-rule="evenodd" sketch:type="MSPage">
        <g id="iconsets" sketch:type="MSArtboardGroup" transform="translate(-1222.000000, -905.000000)" fill="#FFFFFF">
            <g id="storage33" sketch:type="MSLayerGroup" transform="translate(1222.000000, 905.000000)">
                <g id="Capa_1" sketch:type="MSShapeGroup">
                    <g id="Group">
                        <path d="M17.2229353,21.4333085 C26.3545771,21.4333085 33.7571393,18.3716418 33.7571393,14.5949751 L33.7571393,6.83819652 C33.7571393,3.06152985 26.3545771,0 17.2229353,0 C8.09129353,0 0.688731343,3.06152985 0.688731343,6.83819652 L0.688731343,14.5949751 C0.688731343,18.3716418 8.09143035,21.4333085 17.2229353,21.4333085 L17.2229353,21.4333085 Z" id="Shape"></path>
                        <path d="M17.2229353,33.5145647 C26.3545771,33.5145647 33.7571393,30.452898 33.7571393,26.6763682 L33.7571393,18.9195896 C33.7571393,18.7480224 33.7414055,18.5778234 33.711306,18.409403 C33.0800373,21.9475995 25.9394776,24.7372761 17.2227985,24.7372761 C8.5061194,24.7372761 1.36569652,21.9475995 0.734564677,18.409403 C0.70460199,18.5778234 0.688731343,18.7480224 0.688731343,18.9195896 L0.688731343,26.6763682 C0.688731343,30.452898 8.09143035,33.5145647 17.2229353,33.5145647 L17.2229353,33.5145647 Z" id="Shape"></path>
                        <path d="M32.9641542,50.8402488 L22.666704,50.8402488 L22.666704,50.7949627 C22.666704,50.0446642 22.0562313,49.4340547 21.305796,49.4340547 L18.5839801,49.4340547 L18.5839801,45.7010323 C27.0788806,45.4146766 33.7572761,42.4731343 33.7572761,38.8859577 L33.7572761,31.1291791 C33.7572761,30.9574751 33.7415423,30.7874129 33.7114428,30.6188557 C33.0801741,34.1571891 25.9396144,36.9467289 17.2229353,36.9467289 C8.50625622,36.9467289 1.36569652,34.1570522 0.734427861,30.6188557 C0.704465174,30.7874129 0.688594527,30.9574751 0.688594527,31.1291791 L0.688594527,38.8859577 C0.688594527,42.4729975 7.36699005,45.4146766 15.8618905,45.7010323 L15.8618905,49.4340547 L13.1400746,49.4340547 C12.3896393,49.4340547 11.7791667,50.0445274 11.7791667,50.7949627 L11.7791667,50.8402488 L1.48185323,50.8402488 C0.73141791,50.8402488 0.120945274,51.4507214 0.120945274,52.2011567 C0.120945274,52.951592 0.73141791,53.5622015 1.48185323,53.5622015 L11.7793035,53.5622015 L11.7793035,53.6074876 C11.7793035,54.3579229 12.3897761,54.9683955 13.1402114,54.9683955 L21.3056592,54.9683955 C22.0560945,54.9683955 22.6665672,54.3579229 22.6665672,53.6074876 L22.6665672,53.5622015 L32.9640174,53.5622015 C33.7144527,53.5622015 34.3249254,52.9517289 34.3249254,52.2011567 C34.3249254,51.4508582 33.7144527,50.8402488 32.9641542,50.8402488 L32.9641542,50.8402488 Z" id="Shape"></path>
                    </g>
                </g>
            </g>
        </g>
    </g>
</svg>