<?xml version="1.0" encoding="UTF-8" standalone="no"?>
<svg width="57px" height="55px" viewBox="0 0 57 55" version="1.1" xmlns="http://www.w3.org/2000/svg" xmlns:xlink="http://www.w3.org/1999/xlink" xmlns:sketch="http://www.bohemiancoding.com/sketch/ns">
    <!-- Generator: Sketch 3.4.2 (15857) - http://www.bohemiancoding.com/sketch -->
    <title>time51</title>
    <desc>Created with Sketch.</desc>
    <defs></defs>
    <g id="Welcome" stroke="none" stroke-width="1" fill="none" fill-rule="evenodd" sketch:type="MSPage">
        <g id="iconsets" sketch:type="MSArtboardGroup" transform="translate(-423.000000, -905.000000)" fill="#010002">
            <g id="time51" sketch:type="MSLayerGroup" transform="translate(423.000000, 905.000000)">
                <g id="Capa_1" sketch:type="MSShapeGroup">
                    <g id="Group">
                        <g>
                            <rect id="Rectangle-path" x="6.71297917" y="8.38314583" width="25.5643438" height="3.51472917"></rect>
                            <path d="M39.6230313,14.4016354 L39.6230313,0.078375 L0,0.078375 L0,44.1750833 L17.6871979,44.1750833 C21.1450938,50.5716979 27.9099792,54.9169271 35.6857187,54.9169271 C46.9787083,54.9169271 56.1411354,45.7619479 56.1411354,34.4689583 C56.1411354,24.5155625 49.0326146,16.2380625 39.6230313,14.4016354 L39.6230313,14.4016354 Z M19.0242708,36.3374687 C17.9861458,36.3374687 17.1483125,35.4996354 17.1483125,34.4664375 C17.1483125,33.4308333 17.9861458,32.5904792 19.0242708,32.5904792 C20.0574688,32.5904792 20.8953021,33.4308333 20.8953021,34.4664375 C20.8953021,35.4996354 20.0574688,36.3374687 19.0242708,36.3374687 L19.0242708,36.3374687 Z M6.71297917,20.3656979 L6.71297917,23.8779063 L18.216,23.8779063 C16.6835625,26.4014896 15.6652604,29.2685938 15.3488958,32.3507708 L6.71297917,32.3507708 L6.71297917,35.8655 L15.3093646,35.8655 C15.4452604,37.8749479 15.8728854,39.8053333 16.5476667,41.6146042 L2.55314583,41.6146042 L2.55314583,2.63175 L37.06725,2.63175 L37.06725,14.0853854 C36.6075417,14.0533021 36.1502396,14.0161771 35.6830833,14.0161771 C29.8647708,14.0161771 24.6199479,16.4631042 20.8977083,20.3683333 L6.71297917,20.3656979 L6.71297917,20.3656979 L6.71297917,20.3656979 Z M37.5666042,17.8000625 C37.5666042,18.8356667 36.7237292,19.6760208 35.6857188,19.6760208 C34.6550417,19.6760208 33.8121667,18.8356667 33.8121667,17.8000625 C33.8121667,16.7644583 34.6550417,15.9241042 35.6857188,15.9241042 C36.7213229,15.9216979 37.5666042,16.7644583 37.5666042,17.8000625 L37.5666042,17.8000625 Z M35.6857188,53.0038437 C34.6550417,53.0038437 33.8121667,52.1658958 33.8121667,51.1302917 C33.8121667,50.0921667 34.6550417,49.2518125 35.6857188,49.2518125 C36.7213229,49.2518125 37.5616771,50.0896458 37.5666042,51.1302917 C37.5666042,52.1634896 36.7238438,53.0038437 35.6857188,53.0038437 L35.6857188,53.0038437 Z M47.0330208,26.0035417 L39.1088958,33.9276667 C39.1484271,34.1402188 39.1731771,34.3576979 39.1731771,34.5802187 C39.1731771,36.6168229 37.5245521,38.2654479 35.4904688,38.2654479 C33.4611979,38.2654479 31.8200208,36.6291979 31.8077604,34.6024479 L23.6736042,28.2799687 C22.9494375,27.7164479 22.7862708,26.7178542 23.3078542,26.0530417 C23.8243958,25.3831875 24.8353646,25.2991979 25.5520833,25.8627187 L33.1425417,31.7650208 C33.4243021,31.5277187 33.7357396,31.3226146 34.0867083,31.1792708 C34.5711667,30.9370417 35.1099375,30.7887708 35.6858333,30.7887708 C36.1752188,30.7887708 36.642375,30.8900625 37.07,31.0630833 L37.07,31.2657812 C37.1515833,31.3078333 37.2306458,31.3522917 37.3122292,31.3992708 L44.8680833,23.8410104 C45.5625729,23.1514479 46.6006979,23.0773125 47.1988229,23.6729167 C47.7943125,24.266 47.7226979,25.3139792 47.0330208,26.0035417 L47.0330208,26.0035417 Z M52.3520938,36.3374687 C51.3090417,36.3374687 50.4785417,35.4996354 50.4785417,34.4664375 C50.4785417,33.4308333 51.3090417,32.5904792 52.3520938,32.5904792 C53.3852917,32.5904792 54.2256458,33.4308333 54.2280521,34.4664375 C54.2280521,35.4996354 53.3851771,36.3374687 52.3520938,36.3374687 L52.3520938,36.3374687 Z" id="Shape"></path>
                        </g>
                    </g>
                </g>
            </g>
        </g>
    </g>
</svg>