<?xml version="1.0" encoding="UTF-8" standalone="no"?>
<svg width="55px" height="51px" viewBox="0 0 55 51" version="1.1" xmlns="http://www.w3.org/2000/svg" xmlns:xlink="http://www.w3.org/1999/xlink" xmlns:sketch="http://www.bohemiancoding.com/sketch/ns">
    <!-- Generator: Sketch 3.4.2 (15857) - http://www.bohemiancoding.com/sketch -->
    <title>ios-toggle-outline - Ionicons</title>
    <desc>Created with Sketch.</desc>
    <defs></defs>
    <g id="Welcome" stroke="none" stroke-width="1" fill="none" fill-rule="evenodd" sketch:type="MSPage">
        <g id="Desktop-HD-Copy-8" sketch:type="MSArtboardGroup" transform="translate(-123.000000, -579.000000)" fill="#FFFFFF">
            <path d="M134.625,612.5 C133.010409,612.5 131.638026,613.065099 130.507812,614.195312 C129.377599,615.325526 128.8125,616.697909 128.8125,618.3125 C128.8125,619.927091 129.377599,621.299474 130.507812,622.429688 C131.638026,623.559901 133.010409,624.125 134.625,624.125 C136.239591,624.125 137.611974,623.559901 138.742188,622.429688 C139.872401,621.299474 140.4375,619.927091 140.4375,618.3125 C140.4375,616.697909 139.872401,615.325526 138.742188,614.195312 C137.611974,613.065099 136.239591,612.5 134.625,612.5 L134.625,612.5 Z M134.625,610.5625 C136.723969,610.5625 138.540357,611.329419 140.074219,612.863281 C141.608081,614.397143 142.375,616.213531 142.375,618.3125 C142.375,620.411469 141.608081,622.227857 140.074219,623.761719 C138.540357,625.295581 136.723969,626.0625 134.625,626.0625 C132.526031,626.0625 130.709643,625.295581 129.175781,623.761719 C127.641919,622.227857 126.875,620.411469 126.875,618.3125 C126.875,616.213531 127.641919,614.397143 129.175781,612.863281 C130.709643,611.329419 132.526031,610.5625 134.625,610.5625 L134.625,610.5625 Z M165.503906,608.625 L134.625,608.625 C131.960924,608.625 129.680348,609.573558 127.783203,611.470703 C125.886058,613.367848 124.9375,615.648424 124.9375,618.3125 C124.9375,620.976576 125.886058,623.257152 127.783203,625.154297 C129.680348,627.051442 131.960924,628 134.625,628 L165.625,628 C168.289076,628 170.569652,627.051442 172.466797,625.154297 C174.363942,623.257152 175.3125,620.976576 175.3125,618.3125 C175.3125,615.648424 174.34376,613.367848 172.40625,611.470703 C170.46874,609.573558 168.167982,608.625 165.503906,608.625 L165.503906,608.625 Z M165.625,606.6875 C168.854183,606.6875 171.598947,607.817697 173.859375,610.078125 C176.119803,612.338553 177.25,615.083317 177.25,618.3125 C177.25,621.541683 176.119803,624.286447 173.859375,626.546875 C171.598947,628.807303 168.854183,629.9375 165.625,629.9375 L134.625,629.9375 C131.395817,629.9375 128.651053,628.807303 126.390625,626.546875 C124.130197,624.286447 123,621.541683 123,618.3125 C123,615.083317 124.130197,612.338553 126.390625,610.078125 C128.651053,607.817697 131.395817,606.6875 134.625,606.6875 L165.625,606.6875 Z M165.625,585.375 C164.010409,585.375 162.638026,585.940099 161.507812,587.070312 C160.377599,588.200526 159.8125,589.572909 159.8125,591.1875 C159.8125,592.802091 160.377599,594.174474 161.507812,595.304688 C162.638026,596.434901 164.010409,597 165.625,597 C167.239591,597 168.611974,596.434901 169.742188,595.304688 C170.872401,594.174474 171.4375,592.802091 171.4375,591.1875 C171.4375,589.572909 170.872401,588.200526 169.742188,587.070312 C168.611974,585.940099 167.239591,585.375 165.625,585.375 L165.625,585.375 Z M165.625,583.4375 C167.723969,583.4375 169.540357,584.204419 171.074219,585.738281 C172.608081,587.272143 173.375,589.088531 173.375,591.1875 C173.375,593.286469 172.608081,595.102857 171.074219,596.636719 C169.540357,598.170581 167.723969,598.9375 165.625,598.9375 C163.526031,598.9375 161.709643,598.170581 160.175781,596.636719 C158.641919,595.102857 157.875,593.286469 157.875,591.1875 C157.875,589.088531 158.641919,587.272143 160.175781,585.738281 C161.709643,584.204419 163.526031,583.4375 165.625,583.4375 L165.625,583.4375 Z M134.746094,581.5 C132.082018,581.5 129.78126,582.448558 127.84375,584.345703 C125.90624,586.242848 124.9375,588.523424 124.9375,591.1875 C124.9375,593.851576 125.886058,596.132152 127.783203,598.029297 C129.680348,599.926442 131.960924,600.875 134.625,600.875 L165.625,600.875 C168.289076,600.875 170.569652,599.926442 172.466797,598.029297 C174.363942,596.132152 175.3125,593.851576 175.3125,591.1875 C175.3125,588.523424 174.363942,586.242848 172.466797,584.345703 C170.569652,582.448558 168.289076,581.5 165.625,581.5 L134.746094,581.5 Z M134.625,579.5625 L165.625,579.5625 C168.854183,579.5625 171.598947,580.692697 173.859375,582.953125 C176.119803,585.213553 177.25,587.958317 177.25,591.1875 C177.25,594.416683 176.119803,597.161447 173.859375,599.421875 C171.598947,601.682303 168.854183,602.8125 165.625,602.8125 L134.625,602.8125 C131.395817,602.8125 128.651053,601.682303 126.390625,599.421875 C124.130197,597.161447 123,594.416683 123,591.1875 C123,587.958317 124.130197,585.213553 126.390625,582.953125 C128.651053,580.692697 131.395817,579.5625 134.625,579.5625 L134.625,579.5625 Z" id="ios-toggle-outline---Ionicons" sketch:type="MSShapeGroup"></path>
        </g>
    </g>
</svg>