<?xml version="1.0" encoding="UTF-8" standalone="no"?>
<svg width="19px" height="22px" viewBox="0 0 19 22" version="1.1" xmlns="http://www.w3.org/2000/svg" xmlns:xlink="http://www.w3.org/1999/xlink" xmlns:sketch="http://www.bohemiancoding.com/sketch/ns">
    <!-- Generator: Sketch 3.3.3 (12072) - http://www.bohemiancoding.com/sketch -->
    <title>merge - Ionicons</title>
    <desc>Created with Sketch.</desc>
    <defs></defs>
    <g id="Welcome" stroke="none" stroke-width="1" fill="none" fill-rule="evenodd" sketch:type="MSPage">
        <g id="Desktop-HD-Copy-7" sketch:type="MSArtboardGroup" transform="translate(-18.000000, -273.000000)" fill="#FFFFFF">
            <g id="Sidebar" sketch:type="MSLayerGroup" transform="translate(0.000000, 105.000000)">
                <g id="Rectangle-3-Copy-+-merge---Ionicons" transform="translate(0.000000, 160.000000)" sketch:type="MSShapeGroup">
                    <path d="M33.5,17.6193762 C34.3125041,17.6193762 35.015622,17.9162483 35.609375,18.5100012 C36.203128,19.1037542 36.5,19.8068722 36.5,20.6193762 C36.5,21.4318803 36.203128,22.1349983 35.609375,22.7287512 C35.015622,23.3225042 34.3125041,23.6193762 33.5,23.6193762 C32.3749944,23.6193762 31.515628,23.1193812 30.921875,22.1193762 L30.453125,22.1193762 C27.5468605,22.1193762 25.0625103,20.9631378 23,18.6506262 L23,24.0412512 C24.000005,24.6350042 24.5,25.4943706 24.5,26.6193762 C24.5,27.4318803 24.203128,28.1349983 23.609375,28.7287512 C23.015622,29.3225042 22.3125041,29.6193762 21.5,29.6193762 C20.6874959,29.6193762 19.984378,29.3225042 19.390625,28.7287512 C18.796872,28.1349983 18.5,27.4318803 18.5,26.6193762 C18.5,25.4943706 18.999995,24.6350042 20,24.0412512 L20,14.1975012 C18.999995,13.6037483 18.5,12.7443818 18.5,11.6193762 C18.5,10.8068722 18.796872,10.1037542 19.390625,9.51000122 C19.984378,8.91624825 20.6874959,8.61937622 21.5,8.61937622 C22.3125041,8.61937622 23.015622,8.91624825 23.609375,9.51000122 C24.203128,10.1037542 24.5,10.8068722 24.5,11.6193762 C24.5,12.5568809 24.1562534,13.3224983 23.46875,13.9162512 C23.9062522,14.9162562 24.4843714,15.8224972 25.203125,16.6350012 C26.7031325,18.2912595 28.453115,19.1193762 30.453125,19.1193762 L30.921875,19.1193762 C31.515628,18.1193712 32.3749944,17.6193762 33.5,17.6193762 L33.5,17.6193762 Z M21.5,10.1193762 C21.0624978,10.1193762 20.7031264,10.2599998 20.421875,10.5412512 C20.1406236,10.8225026 20,11.181874 20,11.6193762 C20,12.0568784 20.1406236,12.4162498 20.421875,12.6975012 C20.7031264,12.9787526 21.0624978,13.1193762 21.5,13.1193762 C21.9375022,13.1193762 22.2968736,12.9787526 22.578125,12.6975012 C22.8593764,12.4162498 23,12.0568784 23,11.6193762 C23,11.181874 22.8593764,10.8225026 22.578125,10.5412512 C22.2968736,10.2599998 21.9375022,10.1193762 21.5,10.1193762 L21.5,10.1193762 Z M21.5,28.1193762 C21.9375022,28.1193762 22.2968736,27.9787526 22.578125,27.6975012 C22.8593764,27.4162498 23,27.0568784 23,26.6193762 C23,26.181874 22.8593764,25.8225026 22.578125,25.5412512 C22.2968736,25.2599998 21.9375022,25.1193762 21.5,25.1193762 C21.0624978,25.1193762 20.7031264,25.2599998 20.421875,25.5412512 C20.1406236,25.8225026 20,26.181874 20,26.6193762 C20,27.0568784 20.1406236,27.4162498 20.421875,27.6975012 C20.7031264,27.9787526 21.0624978,28.1193762 21.5,28.1193762 L21.5,28.1193762 Z M33.5,22.1193762 C33.9375022,22.1193762 34.2968736,21.9787526 34.578125,21.6975012 C34.8593764,21.4162498 35,21.0568784 35,20.6193762 C35,20.181874 34.8593764,19.8225026 34.578125,19.5412512 C34.2968736,19.2599998 33.9375022,19.1193762 33.5,19.1193762 C33.0624978,19.1193762 32.7031264,19.2599998 32.421875,19.5412512 C32.1406236,19.8225026 32,20.181874 32,20.6193762 C32,21.0568784 32.1406236,21.4162498 32.421875,21.6975012 C32.7031264,21.9787526 33.0624978,22.1193762 33.5,22.1193762 L33.5,22.1193762 Z" id="merge---Ionicons"></path>
                </g>
            </g>
        </g>
    </g>
</svg>