<?xml version="1.0" encoding="UTF-8" standalone="no"?>
<svg width="51px" height="48px" viewBox="0 0 51 48" version="1.1" xmlns="http://www.w3.org/2000/svg" xmlns:xlink="http://www.w3.org/1999/xlink" xmlns:sketch="http://www.bohemiancoding.com/sketch/ns">
    <!-- Generator: Sketch 3.4.1 (15681) - http://www.bohemiancoding.com/sketch -->
    <title>refresh2</title>
    <desc>Created with Sketch.</desc>
    <defs></defs>
    <g id="Page-1" stroke="none" stroke-width="1" fill="none" fill-rule="evenodd" sketch:type="MSPage">
        <g id="refresh2" sketch:type="MSLayerGroup" fill="#FFFFFF">
            <g id="Capa_1" sketch:type="MSShapeGroup">
                <path d="M12.112,23.2117333 L12.112,31.1114667 C12.112,32.8586667 13.5274667,34.272 15.2736,34.272 C17.0197333,34.272 18.432,32.8586667 18.432,31.1114667 L18.432,23.2117333 C18.432,21.4656 17.0197333,20.0512 15.2736,20.0512 C13.5274667,20.0512 12.112,21.4656 12.112,23.2117333 L12.112,23.2117333 Z" id="Shape"></path>
                <path d="M20.0138667,20.0501333 L20.0138667,31.1114667 C20.0138667,32.8586667 21.4282667,34.272 23.1744,34.272 C24.9205333,34.272 26.3349333,32.8586667 26.3349333,31.1114667 L26.3349333,20.0501333 C26.3349333,18.304 24.9194667,16.8896 23.1744,16.8896 C21.4282667,16.8896 20.0138667,18.304 20.0138667,20.0501333 L20.0138667,20.0501333 Z" id="Shape"></path>
                <path d="M27.9136,16.8885333 L27.9136,31.1104 C27.9136,32.8576 29.328,34.2709333 31.0741333,34.2709333 C32.8213333,34.2709333 34.2357333,32.8576 34.2357333,31.1104 L34.2357333,16.8885333 C34.2357333,15.1424 32.8213333,13.7290667 31.0741333,13.7290667 C29.328,13.7290667 27.9136,15.1424 27.9136,16.8885333 L27.9136,16.8885333 Z" id="Shape"></path>
                <path d="M50.0330667,20.3936 C49.8592,20.0224 49.4869333,19.7866667 49.0805333,19.7866667 L45.9552,19.7866667 C43.9712,9.0144 34.512,0.8256 23.1744,0.8256 C10.3957333,0.8256 0,11.2224 0,24 C0,36.7776 10.3957333,47.1744 23.1744,47.1744 C31.4197333,47.1744 39.1114667,42.736 43.2448,35.5925333 C43.8282667,34.5866667 43.4837333,33.2970667 42.4768,32.7136 C41.4677333,32.1322667 40.1802667,32.4746667 39.5978667,33.4837333 C36.2144,39.328 29.9221333,42.9632 23.1744,42.9632 C12.7189333,42.96 4.21333333,34.4565333 4.21333333,24 C4.21333333,13.5445333 12.7189333,5.04 23.1733333,5.04 C32.1792,5.04 39.7226667,11.3557333 41.6448,19.7866667 L38.5461333,19.7866667 C38.1376,19.7866667 37.7674667,20.0234667 37.5914667,20.3936 C37.4176,20.7637333 37.4773333,21.2 37.7365333,21.5146667 L43.0037333,27.8357333 C43.2042667,28.0757333 43.5018667,28.2133333 43.8133333,28.2133333 C44.1258667,28.2133333 44.4202667,28.0746667 44.6218667,27.8357333 L49.8890667,21.5146667 C50.1504,21.2 50.208,20.7637333 50.0330667,20.3936 L50.0330667,20.3936 Z" id="Shape"></path>
            </g>
        </g>
    </g>
</svg>