<?xml version="1.0" encoding="UTF-8" standalone="no"?>
<svg width="21px" height="18px" viewBox="0 0 21 18" version="1.1" xmlns="http://www.w3.org/2000/svg" xmlns:xlink="http://www.w3.org/1999/xlink" xmlns:sketch="http://www.bohemiancoding.com/sketch/ns">
    <!-- Generator: Sketch 3.3.3 (12072) - http://www.bohemiancoding.com/sketch -->
    <title></title>
    <desc>Created with Sketch.</desc>
    <defs></defs>
    <g id="Welcome" stroke="none" stroke-width="1" fill="none" fill-rule="evenodd" sketch:type="MSPage">
        <g id="Desktop-HD-Copy-7" sketch:type="MSArtboardGroup" transform="translate(-19.000000, -234.000000)" fill="#FFFFFF">
            <g id="ios-cloud-upload-outline---Ionicons-+-Upload" sketch:type="MSLayerGroup" transform="translate(19.000000, 234.000000)">
                <path d="M7.546875,9.1875 L7.03125,8.671875 L10.5,5.15625 L14.015625,8.671875 L13.453125,9.1875 L10.875,6.65625 L10.875,18 L10.125,18 L10.125,6.65625 L7.546875,9.1875 Z M17.203125,5.625 C18.2656303,5.625 19.1640588,6.01562109 19.8984375,6.796875 C20.6328162,7.57812891 21,8.51561953 21,9.609375 C21,10.6718803 20.6250037,11.5859337 19.875,12.3515625 C19.1249963,13.1171913 18.2187553,13.5 17.15625,13.5 L12.421875,13.5 L12.421875,12.75 L16.96875,12.75 L17.15625,12.75 C18.0312544,12.75 18.765622,12.4453155 19.359375,11.8359375 C19.953128,11.2265595 20.25,10.4843794 20.25,9.609375 C20.25,8.73437063 19.9453155,7.96875328 19.3359375,7.3125 C18.7265595,6.65624672 18.0000042,6.328125 17.15625,6.328125 L16.453125,6.28125 L16.453125,5.34375 C16.453125,4.03124344 15.9921921,2.92969195 15.0703125,2.0390625 C14.1484329,1.14843305 13.0312566,0.703125 11.71875,0.703125 C10.8437456,0.703125 10.0234413,0.9531225 9.2578125,1.453125 C8.49218367,1.9531275 7.90625203,2.60937094 7.5,3.421875 L7.21875,4.03125 L6.5625,3.75 C6.24999844,3.59374922 5.93750156,3.515625 5.625,3.515625 C5.1249975,3.515625 4.67968945,3.68749828 4.2890625,4.03125 C3.89843555,4.37500172 3.65625047,4.81249734 3.5625,5.34375 L3.515625,5.765625 L3.09375,5.90625 C2.40624656,6.12500109 1.84375219,6.54687188 1.40625,7.171875 C0.968747813,7.79687812 0.75,8.48437125 0.75,9.234375 C0.75,10.2031298 1.08593414,11.0312466 1.7578125,11.71875 C2.42969086,12.4062534 3.24999516,12.75 4.21875,12.75 L8.484375,12.75 L8.484375,13.5 L4.21875,13.5 C3.03124406,13.5 2.03125406,13.0937541 1.21875,12.28125 C0.406245938,11.4687459 0,10.4687559 0,9.28125 C0,8.34374531 0.265622344,7.50781617 0.796875,6.7734375 C1.32812766,6.03905883 2.01562078,5.53125141 2.859375,5.25 C2.98437563,4.56249656 3.30468492,3.98437734 3.8203125,3.515625 C4.33594008,3.04687266 4.93749656,2.8125 5.625,2.8125 C6.06250219,2.8125 6.46874812,2.90624906 6.84375,3.09375 C7.28125219,2.15624531 7.94530805,1.40625281 8.8359375,0.84375 C9.72656695,0.281247187 10.7031197,0 11.765625,0 C13.2656325,0 14.5546821,0.531244687 15.6328125,1.59375 C16.7109429,2.65625531 17.25,3.9374925 17.25,5.4375 L17.25,5.53125 L17.203125,5.625 Z" id="" sketch:type="MSShapeGroup"></path>
            </g>
        </g>
    </g>
</svg>