<?xml version="1.0" encoding="UTF-8" standalone="no"?>
<svg width="62px" height="55px" viewBox="0 0 62 55" version="1.1" xmlns="http://www.w3.org/2000/svg" xmlns:xlink="http://www.w3.org/1999/xlink" xmlns:sketch="http://www.bohemiancoding.com/sketch/ns">
    <!-- Generator: Sketch 3.4.2 (15857) - http://www.bohemiancoding.com/sketch -->
    <title>wallclock</title>
    <desc>Created with Sketch.</desc>
    <defs></defs>
    <g id="Welcome" stroke="none" stroke-width="1" fill="none" fill-rule="evenodd" sketch:type="MSPage">
        <g id="iconsets" sketch:type="MSArtboardGroup" transform="translate(-253.000000, -905.000000)" fill="#010002">
            <g id="wallclock" sketch:type="MSLayerGroup" transform="translate(253.000000, 905.000000)">
                <g id="Capa_1" sketch:type="MSShapeGroup">
                    <g id="Group">
                        <g>
                            <rect id="Rectangle-path" x="8.91244989" y="27.7241648" width="5.47219376" height="5.47488864"></rect>
                            <rect id="Rectangle-path" x="8.91244989" y="36.3803563" width="5.47219376" height="5.46962138"></rect>
                            <rect id="Rectangle-path" x="18.083853" y="19.062706" width="5.47219376" height="5.47219376"></rect>
                            <rect id="Rectangle-path" x="18.083853" y="27.7241648" width="5.47219376" height="5.47488864"></rect>
                            <rect id="Rectangle-path" x="18.083853" y="36.3803563" width="5.47219376" height="5.46962138"></rect>
                            <path d="M50.9383296,19.8501002 L50.9383296,3.88540089 C50.9383296,1.76624722 49.2076058,0.0355233853 47.0884521,0.0355233853 L3.84987751,0.0355233853 C1.73072383,0.0355233853 0,1.76624722 0,3.88540089 L0,47.1214031 C0,49.2405568 1.73072383,50.9712806 3.84987751,50.9712806 L32.0723497,50.9712806 C35.211392,53.4841314 39.1880512,54.9928953 43.5214143,54.9928953 C53.6626058,54.9928953 61.8881069,46.7753563 61.8881069,36.6341648 C61.8852895,29.1378731 57.3801893,22.7011581 50.9383296,19.8501002 L50.9383296,19.8501002 Z M16.686069,3.81668151 L34.2362138,3.81668151 L34.2362138,8.3535078 L16.686069,8.3535078 L16.686069,3.81668151 L16.686069,3.81668151 Z M4.72975501,12.6868708 L46.2033073,12.6868708 L46.2033073,18.4946993 C45.3260022,18.3652227 44.4330178,18.2754343 43.5187194,18.2754343 C39.478608,18.2754343 35.7556347,19.5965367 32.7223051,21.8081737 L32.7223051,19.0601336 L27.2526837,19.0601336 L27.2526837,24.5323274 L29.7390757,24.5323274 C26.8985523,27.763853 25.1652561,31.9915033 25.1652561,36.6340423 C25.1652561,39.9475167 26.0556682,43.0468708 27.588196,45.7288864 L4.72975501,45.7288864 L4.72975501,12.6868708 L4.72975501,12.6868708 Z M41.8355234,21.6785746 C41.8355234,20.745902 42.5938864,19.9980735 43.5187194,19.9980735 C44.4540869,19.9980735 45.2019154,20.745902 45.2044878,21.6785746 C45.2044878,22.6086748 44.4540869,23.3617706 43.5187194,23.3617706 C42.5965813,23.3617706 41.8355234,22.6086748 41.8355234,21.6785746 L41.8355234,21.6785746 Z M30.24902,36.6367372 C30.24902,37.5694098 29.4986192,38.3252004 28.5632517,38.3252004 C27.6305791,38.3252004 26.8800557,37.5695323 26.8800557,36.6367372 C26.8800557,35.7039421 27.6304566,34.9562361 28.5632517,34.9562361 C29.4960468,34.9562361 30.2464477,35.7039421 30.24902,36.6367372 L30.24902,36.6367372 Z M43.5187194,53.2778508 C42.5938864,53.2778508 41.8355234,52.5274499 41.8355234,51.6000445 C41.8355234,50.6646771 42.5938864,49.9090089 43.5187194,49.9090089 C44.4540869,49.9090089 45.2019154,50.6621047 45.2044878,51.6000445 C45.2044878,52.5248775 44.4540869,53.2778508 43.5187194,53.2778508 L43.5187194,53.2778508 Z M53.712706,29.0453898 L46.6657238,36.0818374 C46.7132517,36.2985301 46.7978953,36.4992984 46.7978953,36.7292205 C46.7978953,38.555 45.3155902,40.0374276 43.4896882,40.0374276 C41.7272383,40.0374276 40.3162249,38.6449109 40.2211693,36.9009577 L32.7355345,31.0852895 C32.0881514,30.5779176 31.9349109,29.6849332 32.4052895,29.0877728 C32.8729733,28.4826503 33.781882,28.4086637 34.429265,28.9160356 L41.2806236,34.2480958 C41.8725167,33.693196 42.6546437,33.3391871 43.5239866,33.3391871 C44.0999555,33.3391871 44.6125947,33.5241537 45.0829733,33.7831069 L51.7600223,27.0980958 C52.3836414,26.4771715 53.3268486,26.4164143 53.855412,26.9528174 C54.3864254,27.4864031 54.3256682,28.4217706 53.712706,29.0453898 L53.712706,29.0453898 Z M58.4740646,38.3225056 C57.5439644,38.3225056 56.7908686,37.5668374 56.7908686,36.6340423 C56.7908686,35.7012472 57.5439644,34.9535412 58.4740646,34.9535412 C59.4068597,34.9535412 60.1625278,35.7013697 60.1625278,36.6340423 C60.1625278,37.5667149 59.4094321,38.3225056 58.4740646,38.3225056 L58.4740646,38.3225056 Z" id="Shape"></path>
                        </g>
                    </g>
                </g>
            </g>
        </g>
    </g>
</svg>