<?xml version="1.0" encoding="UTF-8" standalone="no"?>
<svg width="55px" height="48px" viewBox="0 0 55 48" version="1.1" xmlns="http://www.w3.org/2000/svg" xmlns:xlink="http://www.w3.org/1999/xlink" xmlns:sketch="http://www.bohemiancoding.com/sketch/ns">
    <!-- Generator: Sketch 3.4.2 (15857) - http://www.bohemiancoding.com/sketch -->
    <title>web58</title>
    <desc>Created with Sketch.</desc>
    <defs></defs>
    <g id="Welcome" stroke="none" stroke-width="1" fill="none" fill-rule="evenodd" sketch:type="MSPage">
        <g id="iconsets" sketch:type="MSArtboardGroup" transform="translate(-720.000000, -912.000000)" fill="#FFFFFF">
            <g id="web58" sketch:type="MSLayerGroup" transform="translate(720.000000, 912.000000)">
                <path d="M9.09249503,21.7712525 L11.2081909,29.6443439 L14.3216501,29.6443439 L18.2581412,17.4077734 L15.0575348,17.4077734 L12.722495,25.4270577 L10.6751392,17.4077734 L7.54998012,17.4077734 L5.43898608,25.4270577 L3.14637177,17.4077734 L0,17.4077734 L3.87285288,29.6443439 L7.02403579,29.6443439 L9.09249503,21.7712525 Z" id="Shape" sketch:type="MSShapeGroup"></path>
                <path d="M29.0277535,17.4077734 L25.9048907,17.4077734 L23.7914911,25.4270577 L21.4894732,17.4077734 L18.3431014,17.4077734 L22.2230616,29.6443439 L25.3765408,29.6443439 L27.4474056,21.7712525 L29.5678032,29.6443439 L32.6765606,29.6443439 L36.6130517,17.4077734 L33.4194433,17.4077734 L31.0725944,25.4270577 L29.0277535,17.4077734 Z" id="Shape" sketch:type="MSShapeGroup"></path>
                <path d="M51.7625447,17.4077734 L49.420507,25.4270577 L47.3778529,17.4077734 L44.247992,17.4077734 L42.1345924,25.4270577 L39.8443837,17.4077734 L36.6933101,17.4077734 L40.5755666,29.6443439 L43.7243439,29.6443439 L45.7952087,21.7712525 L47.9086083,29.6443439 L51.02666,29.6443439 L54.9632604,17.4077734 L51.7625447,17.4077734 Z" id="Shape" sketch:type="MSShapeGroup"></path>
                <path d="M27.4804274,0.0835387674 C18.0151789,0.0835387674 9.87321074,5.67823062 6.12774354,13.725835 L48.8355169,13.725835 C45.0853479,5.67823062 36.9456759,0.0835387674 27.4804274,0.0835387674 L27.4804274,0.0835387674 Z" id="Shape" sketch:type="MSShapeGroup"></path>
                <path d="M27.4804274,47.2256461 C36.9479722,47.2256461 45.0805368,41.6333598 48.8331113,33.5833499 L6.13244533,33.5833499 C9.87791252,41.6309543 18.0152883,47.2256461 27.4804274,47.2256461 L27.4804274,47.2256461 Z" id="Shape" sketch:type="MSShapeGroup"></path>
            </g>
        </g>
    </g>
</svg>